# Blender v2.78 (sub 0) OBJ File: 'aim-board-small.blend'
# www.blender.org
mtllib aim-board-small.mtl
o Cylinder_Cylinder.001
v 0.000000 0.000000 -1.000000
v 0.195090 0.000000 -0.980785
v 0.382683 0.000000 -0.923880
v 0.555570 0.000000 -0.831470
v 0.707107 0.000000 -0.707107
v 0.831470 0.000000 -0.555570
v 0.923880 0.000000 -0.382683
v 0.980785 0.000000 -0.195090
v 1.000000 0.000000 -0.000000
v 0.980785 0.000000 0.195090
v 0.923880 0.000000 0.382683
v 0.831470 0.000000 0.555570
v 0.707107 0.000000 0.707107
v 0.555570 0.000000 0.831470
v 0.382683 0.000000 0.923880
v 0.195090 0.000000 0.980785
v -0.000000 0.000000 1.000000
v -0.195091 0.000000 0.980785
v -0.382684 0.000000 0.923879
v -0.555571 0.000000 0.831469
v -0.707107 0.000000 0.707106
v -0.831470 0.000000 0.555570
v -0.923880 0.000000 0.382683
v -0.980785 0.000000 0.195089
v -1.000000 0.000000 -0.000001
v -0.980785 0.000000 -0.195091
v -0.923879 0.000000 -0.382684
v -0.831469 0.000000 -0.555571
v -0.707106 0.000000 -0.707108
v -0.555569 0.000000 -0.831470
v -0.382682 0.000000 -0.923880
v -0.195089 0.000000 -0.980786
v 0.000000 0.100000 -1.000000
v 0.195090 0.100000 -0.980785
v 0.382683 0.100000 -0.923880
v 0.555570 0.100000 -0.831470
v 0.707107 0.100000 -0.707107
v 0.831470 0.100000 -0.555570
v 0.923880 0.100000 -0.382683
v 0.980785 0.100000 -0.195090
v 1.000000 0.100000 -0.000000
v 0.980785 0.100000 0.195090
v 0.923880 0.100000 0.382683
v 0.831470 0.100000 0.555570
v 0.707107 0.100000 0.707107
v 0.555570 0.100000 0.831470
v 0.382683 0.100000 0.923880
v 0.195090 0.100000 0.980785
v -0.000000 0.100000 1.000000
v -0.195091 0.100000 0.980785
v -0.382684 0.100000 0.923879
v -0.555571 0.100000 0.831469
v -0.707107 0.100000 0.707106
v -0.831470 0.100000 0.555570
v -0.923880 0.100000 0.382683
v -0.980785 0.100000 0.195089
v -1.000000 0.100000 -0.000001
v -0.980785 0.100000 -0.195091
v -0.923879 0.100000 -0.382684
v -0.831469 0.100000 -0.555571
v -0.707106 0.100000 -0.707108
v -0.555569 0.100000 -0.831470
v -0.382682 0.100000 -0.923880
v -0.195089 0.100000 -0.980786
v 0.000000 0.100000 -0.000000
v 0.817321 0.100000 0.162575
v 0.307960 0.100000 -0.127561
v 0.461940 0.100000 -0.191342
v 0.615920 0.100000 -0.255122
v 0.769900 0.100000 -0.318903
v -0.092595 0.100000 0.138578
v -0.185190 0.100000 0.277156
v -0.277785 0.100000 0.415734
v -0.370380 0.100000 0.554313
v -0.462976 0.100000 0.692891
v 0.138578 0.100000 -0.092595
v 0.277157 0.100000 -0.185190
v 0.415735 0.100000 -0.277785
v 0.554313 0.100000 -0.370380
v 0.692891 0.100000 -0.462975
v -0.063781 0.100000 0.153980
v -0.127561 0.100000 0.307960
v -0.191342 0.100000 0.461939
v -0.255123 0.100000 0.615919
v -0.318903 0.100000 0.769899
v -0.032515 0.100000 -0.163465
v -0.065029 0.100000 -0.326929
v -0.097544 0.100000 -0.490393
v -0.130059 0.100000 -0.653857
v -0.162574 0.100000 -0.817321
v 0.000000 0.100000 -0.833333
v 0.000000 0.100000 -0.666667
v 0.000000 0.100000 -0.500000
v 0.000000 0.100000 -0.333334
v 0.000000 0.100000 -0.166667
v 0.117851 0.100000 -0.117851
v 0.235702 0.100000 -0.235702
v 0.353553 0.100000 -0.353554
v 0.471405 0.100000 -0.471405
v 0.589256 0.100000 -0.589256
v -0.032515 0.100000 0.163464
v -0.065030 0.100000 0.326928
v -0.097545 0.100000 0.490392
v -0.130060 0.100000 0.653857
v -0.162576 0.100000 0.817321
v -0.063780 0.100000 -0.153980
v -0.127561 0.100000 -0.307960
v -0.191341 0.100000 -0.461940
v -0.255121 0.100000 -0.615920
v -0.318902 0.100000 -0.769900
v 0.092595 0.100000 -0.138579
v 0.185190 0.100000 -0.277157
v 0.277785 0.100000 -0.415735
v 0.370380 0.100000 -0.554313
v 0.462975 0.100000 -0.692891
v 0.000000 0.100000 0.166666
v 0.000000 0.100000 0.333333
v -0.000000 0.100000 0.500000
v -0.000000 0.100000 0.666667
v -0.000000 0.100000 0.833333
v -0.092595 0.100000 -0.138579
v -0.185190 0.100000 -0.277157
v -0.277784 0.100000 -0.415735
v -0.370379 0.100000 -0.554314
v -0.462974 0.100000 -0.692892
v 0.063781 0.100000 -0.153980
v 0.127561 0.100000 -0.307960
v 0.191342 0.100000 -0.461940
v 0.255122 0.100000 -0.615920
v 0.318903 0.100000 -0.769900
v 0.032515 0.100000 0.163464
v 0.065030 0.100000 0.326928
v 0.097545 0.100000 0.490393
v 0.130060 0.100000 0.653857
v 0.162575 0.100000 0.817321
v -0.117851 0.100000 -0.117852
v -0.235702 0.100000 -0.235703
v -0.353553 0.100000 -0.353554
v -0.471404 0.100000 -0.471405
v -0.589255 0.100000 -0.589256
v 0.032515 0.100000 -0.163464
v 0.065030 0.100000 -0.326929
v 0.097545 0.100000 -0.490393
v 0.130060 0.100000 -0.653857
v 0.162575 0.100000 -0.817321
v 0.063781 0.100000 0.153980
v 0.127561 0.100000 0.307960
v 0.191342 0.100000 0.461940
v 0.255122 0.100000 0.615920
v 0.318903 0.100000 0.769900
v -0.138578 0.100000 -0.092595
v -0.277156 0.100000 -0.185191
v -0.415734 0.100000 -0.277786
v -0.554313 0.100000 -0.370381
v -0.692891 0.100000 -0.462976
v 0.092595 0.100000 0.138578
v 0.185190 0.100000 0.277156
v 0.277785 0.100000 0.415735
v 0.370380 0.100000 0.554313
v 0.462975 0.100000 0.692891
v -0.153980 0.100000 -0.063781
v -0.307960 0.100000 -0.127562
v -0.461939 0.100000 -0.191342
v -0.615919 0.100000 -0.255123
v -0.769899 0.100000 -0.318904
v 0.117851 0.100000 0.117851
v 0.235702 0.100000 0.235702
v 0.353553 0.100000 0.353553
v 0.471405 0.100000 0.471404
v 0.589256 0.100000 0.589256
v -0.163464 0.100000 -0.032515
v -0.326928 0.100000 -0.065031
v -0.490392 0.100000 -0.097546
v -0.653857 0.100000 -0.130061
v -0.817321 0.100000 -0.162576
v 0.138578 0.100000 0.092595
v 0.277157 0.100000 0.185190
v 0.415735 0.100000 0.277785
v 0.554313 0.100000 0.370380
v 0.692891 0.100000 0.462975
v -0.166667 0.100000 -0.000000
v -0.333333 0.100000 -0.000001
v -0.500000 0.100000 -0.000001
v -0.666667 0.100000 -0.000001
v -0.833333 0.100000 -0.000001
v 0.153980 0.100000 0.063780
v 0.307960 0.100000 0.127561
v 0.461940 0.100000 0.191341
v 0.615920 0.100000 0.255122
v 0.769900 0.100000 0.318903
v 0.163464 0.100000 0.032515
v 0.326929 0.100000 0.065030
v 0.490393 0.100000 0.097545
v 0.653857 0.100000 0.130060
v 0.153980 0.100000 -0.063781
v -0.138578 0.100000 0.092595
v -0.277157 0.100000 0.185190
v -0.415735 0.100000 0.277785
v -0.554313 0.100000 0.370380
v -0.692892 0.100000 0.462975
v -0.589256 0.100000 0.589255
v -0.471405 0.100000 0.471404
v -0.353554 0.100000 0.353553
v -0.235702 0.100000 0.235702
v -0.117851 0.100000 0.117851
v 0.166667 0.100000 -0.000000
v 0.333333 0.100000 -0.000000
v 0.500000 0.100000 -0.000000
v 0.666667 0.100000 -0.000000
v 0.833333 0.100000 -0.000000
v 0.817321 0.100000 -0.162575
v 0.653857 0.100000 -0.130060
v 0.490393 0.100000 -0.097545
v 0.326928 0.100000 -0.065030
v 0.163464 0.100000 -0.032515
v -0.769900 0.100000 0.318902
v -0.615920 0.100000 0.255122
v -0.461940 0.100000 0.191341
v -0.307960 0.100000 0.127561
v -0.153980 0.100000 0.063780
v -0.817321 0.100000 0.162574
v -0.653857 0.100000 0.130060
v -0.490393 0.100000 0.097545
v -0.326928 0.100000 0.065030
v -0.163464 0.100000 0.032515
vn 0.0000 -1.0000 0.0000
vn -0.0980 0.0000 -0.9952
vn -0.2903 0.0000 -0.9569
vn -0.4714 0.0000 -0.8819
vn 0.0000 1.0000 -0.0000
vn -0.6344 0.0000 -0.7730
vn -0.7730 0.0000 -0.6344
vn -0.8819 0.0000 -0.4714
vn -0.9569 0.0000 -0.2903
vn -0.9952 0.0000 -0.0980
vn -0.9952 0.0000 0.0980
vn -0.9569 0.0000 0.2903
vn -0.8819 0.0000 0.4714
vn -0.7730 0.0000 0.6344
vn -0.6344 0.0000 0.7730
vn -0.4714 0.0000 0.8819
vn -0.2903 0.0000 0.9569
vn -0.0980 0.0000 0.9952
vn 0.0980 0.0000 0.9952
vn 0.2903 0.0000 0.9569
vn 0.4714 0.0000 0.8819
vn 0.6344 0.0000 0.7730
vn 0.7730 0.0000 0.6344
vn 0.8819 0.0000 0.4714
vn 0.9569 0.0000 0.2903
vn 0.9952 0.0000 0.0980
vn 0.9952 0.0000 -0.0980
vn 0.9569 0.0000 -0.2903
vn 0.8819 0.0000 -0.4714
vn 0.7730 0.0000 -0.6344
vn 0.6344 0.0000 -0.7730
vn 0.4714 0.0000 -0.8819
vn 0.2903 0.0000 -0.9569
vn 0.0980 0.0000 -0.9952
usemtl black
s off
f 32//1 1//1 2//1 3//1 4//1 5//1 6//1 7//1 8//1 9//1 10//1 11//1 12//1 13//1 14//1 15//1 16//1 17//1 18//1 19//1 20//1 21//1 22//1 23//1 24//1 25//1 26//1 27//1 28//1 29//1 30//1 31//1
f 32//2 64//2 33//2 1//2
f 31//3 63//3 64//3 32//3
f 30//4 62//4 63//4 31//4
f 41//5 40//5 211//5 210//5
f 29//6 61//6 62//6 30//6
f 28//7 60//7 61//7 29//7
f 27//8 59//8 60//8 28//8
f 26//9 58//9 59//9 27//9
f 25//10 57//10 58//10 26//10
f 24//11 56//11 57//11 25//11
f 23//12 55//12 56//12 24//12
f 22//13 54//13 55//13 23//13
f 21//14 53//14 54//14 22//14
f 20//15 52//15 53//15 21//15
f 19//16 51//16 52//16 20//16
f 18//17 50//17 51//17 19//17
f 17//18 49//18 50//18 18//18
f 16//19 48//19 49//19 17//19
f 15//20 47//20 48//20 16//20
f 14//21 46//21 47//21 15//21
f 13//22 45//22 46//22 14//22
f 12//23 44//23 45//23 13//23
f 11//24 43//24 44//24 12//24
f 10//25 42//25 43//25 11//25
f 9//26 41//26 42//26 10//26
f 8//27 40//27 41//27 9//27
f 7//28 39//28 40//28 8//28
f 6//29 38//29 39//29 7//29
f 5//30 37//30 38//30 6//30
f 4//31 36//31 37//31 5//31
f 3//32 35//32 36//32 4//32
f 2//33 34//33 35//33 3//33
f 1//34 33//34 34//34 2//34
f 224//5 219//5 220//5 225//5
f 55//5 54//5 200//5 216//5
f 56//5 55//5 216//5 221//5
f 222//5 217//5 218//5 223//5
f 192//5 207//5 206//5 191//5
f 33//5 64//5 90//5 91//5
f 42//5 41//5 210//5 66//5
f 72//5 82//5 81//5 71//5
f 194//5 209//5 208//5 193//5
f 189//5 194//5 193//5 188//5
f 187//5 192//5 191//5 186//5
f 43//5 42//5 66//5 190//5
f 184//5 222//5 223//5 183//5
f 74//5 84//5 83//5 73//5
f 182//5 224//5 225//5 181//5
f 177//5 187//5 186//5 176//5
f 57//5 56//5 221//5 185//5
f 44//5 43//5 190//5 180//5
f 179//5 189//5 188//5 178//5
f 172//5 182//5 181//5 171//5
f 52//5 51//5 85//5 75//5
f 58//5 57//5 185//5 175//5
f 67//5 77//5 76//5 195//5
f 174//5 184//5 183//5 173//5
f 169//5 179//5 178//5 168//5
f 167//5 177//5 176//5 166//5
f 45//5 44//5 180//5 170//5
f 164//5 174//5 173//5 163//5
f 69//5 79//5 78//5 68//5
f 162//5 172//5 171//5 161//5
f 157//5 167//5 166//5 156//5
f 59//5 58//5 175//5 165//5
f 46//5 45//5 170//5 160//5
f 159//5 169//5 168//5 158//5
f 152//5 162//5 161//5 151//5
f 39//5 38//5 80//5 70//5
f 60//5 59//5 165//5 155//5
f 204//5 72//5 71//5 205//5
f 154//5 164//5 163//5 153//5
f 149//5 159//5 158//5 148//5
f 147//5 157//5 156//5 146//5
f 47//5 46//5 160//5 150//5
f 134//5 149//5 148//5 133//5
f 202//5 74//5 73//5 203//5
f 132//5 147//5 146//5 131//5
f 142//5 94//5 95//5 141//5
f 48//5 47//5 150//5 135//5
f 34//5 33//5 91//5 145//5
f 144//5 92//5 93//5 143//5
f 137//5 152//5 151//5 136//5
f 53//5 52//5 75//5 201//5
f 61//5 60//5 155//5 140//5
f 214//5 67//5 195//5 215//5
f 139//5 154//5 153//5 138//5
f 129//5 144//5 143//5 128//5
f 127//5 142//5 141//5 126//5
f 35//5 34//5 145//5 130//5
f 124//5 139//5 138//5 123//5
f 212//5 69//5 68//5 213//5
f 122//5 137//5 136//5 121//5
f 117//5 132//5 131//5 116//5
f 62//5 61//5 140//5 125//5
f 49//5 48//5 135//5 120//5
f 119//5 134//5 133//5 118//5
f 112//5 127//5 126//5 111//5
f 40//5 39//5 70//5 211//5
f 36//5 35//5 130//5 115//5
f 197//5 204//5 205//5 196//5
f 114//5 129//5 128//5 113//5
f 109//5 124//5 123//5 108//5
f 107//5 122//5 121//5 106//5
f 63//5 62//5 125//5 110//5
f 104//5 119//5 118//5 103//5
f 199//5 202//5 203//5 198//5
f 102//5 117//5 116//5 101//5
f 97//5 112//5 111//5 96//5
f 50//5 49//5 120//5 105//5
f 37//5 36//5 115//5 100//5
f 99//5 114//5 113//5 98//5
f 87//5 107//5 106//5 86//5
f 54//5 53//5 201//5 200//5
f 64//5 63//5 110//5 90//5
f 207//5 214//5 215//5 206//5
f 89//5 109//5 108//5 88//5
f 84//5 104//5 103//5 83//5
f 82//5 102//5 101//5 81//5
f 51//5 50//5 105//5 85//5
f 79//5 99//5 98//5 78//5
f 209//5 212//5 213//5 208//5
f 77//5 97//5 96//5 76//5
f 94//5 87//5 86//5 95//5
f 38//5 37//5 100//5 80//5
f 217//5 199//5 198//5 218//5
f 92//5 89//5 88//5 93//5
f 219//5 197//5 196//5 220//5
usemtl white
f 216//5 200//5 199//5 217//5
f 223//5 218//5 219//5 224//5
f 91//5 90//5 89//5 92//5
f 221//5 216//5 217//5 222//5
f 66//5 210//5 209//5 194//5
f 193//5 208//5 207//5 192//5
f 190//5 66//5 194//5 189//5
f 73//5 83//5 82//5 72//5
f 188//5 193//5 192//5 187//5
f 183//5 223//5 224//5 182//5
f 185//5 221//5 222//5 184//5
f 178//5 188//5 187//5 177//5
f 75//5 85//5 84//5 74//5
f 180//5 190//5 189//5 179//5
f 175//5 185//5 184//5 174//5
f 173//5 183//5 182//5 172//5
f 170//5 180//5 179//5 169//5
f 68//5 78//5 77//5 67//5
f 168//5 178//5 177//5 167//5
f 163//5 173//5 172//5 162//5
f 165//5 175//5 174//5 164//5
f 158//5 168//5 167//5 157//5
f 70//5 80//5 79//5 69//5
f 160//5 170//5 169//5 159//5
f 155//5 165//5 164//5 154//5
f 153//5 163//5 162//5 152//5
f 150//5 160//5 159//5 149//5
f 203//5 73//5 72//5 204//5
f 148//5 158//5 157//5 147//5
f 133//5 148//5 147//5 132//5
f 135//5 150//5 149//5 134//5
f 143//5 93//5 94//5 142//5
f 201//5 75//5 74//5 202//5
f 145//5 91//5 92//5 144//5
f 140//5 155//5 154//5 139//5
f 138//5 153//5 152//5 137//5
f 130//5 145//5 144//5 129//5
f 213//5 68//5 67//5 214//5
f 128//5 143//5 142//5 127//5
f 123//5 138//5 137//5 122//5
f 125//5 140//5 139//5 124//5
f 118//5 133//5 132//5 117//5
f 211//5 70//5 69//5 212//5
f 120//5 135//5 134//5 119//5
f 115//5 130//5 129//5 114//5
f 113//5 128//5 127//5 112//5
f 110//5 125//5 124//5 109//5
f 198//5 203//5 204//5 197//5
f 108//5 123//5 122//5 107//5
f 103//5 118//5 117//5 102//5
f 105//5 120//5 119//5 104//5
f 98//5 113//5 112//5 97//5
f 200//5 201//5 202//5 199//5
f 100//5 115//5 114//5 99//5
f 90//5 110//5 109//5 89//5
f 88//5 108//5 107//5 87//5
f 85//5 105//5 104//5 84//5
f 208//5 213//5 214//5 207//5
f 83//5 103//5 102//5 82//5
f 78//5 98//5 97//5 77//5
f 80//5 100//5 99//5 79//5
f 93//5 88//5 87//5 94//5
f 210//5 211//5 212//5 209//5
f 218//5 198//5 197//5 219//5
usemtl red
f 220//5 196//5 65//5
f 225//5 220//5 65//5
f 191//5 206//5 65//5
f 186//5 191//5 65//5
f 181//5 225//5 65//5
f 176//5 186//5 65//5
f 171//5 181//5 65//5
f 166//5 176//5 65//5
f 161//5 171//5 65//5
f 156//5 166//5 65//5
f 151//5 161//5 65//5
f 146//5 156//5 65//5
f 131//5 146//5 65//5
f 141//5 95//5 65//5
f 136//5 151//5 65//5
f 126//5 141//5 65//5
f 121//5 136//5 65//5
f 116//5 131//5 65//5
f 111//5 126//5 65//5
f 106//5 121//5 65//5
f 101//5 116//5 65//5
f 96//5 111//5 65//5
f 86//5 106//5 65//5
f 81//5 101//5 65//5
f 76//5 96//5 65//5
f 95//5 86//5 65//5
f 71//5 81//5 65//5
f 195//5 76//5 65//5
f 205//5 71//5 65//5
f 215//5 195//5 65//5
f 196//5 205//5 65//5
f 206//5 215//5 65//5
