# Blender v2.78 (sub 0) OBJ File: 'batarang.blend'
# www.blender.org
mtllib batarang.mtl
o batarang_Cube
v 0.002803 0.001291 0.017358
v 0.001700 0.001291 0.019139
v 0.001700 0.001291 -0.005788
v 0.002803 0.001291 -0.006065
v 0.002060 0.001291 -0.008875
v 0.002443 0.001291 -0.008875
v 0.003820 0.001291 -0.002759
v 0.003820 0.001291 0.015903
v 0.005850 0.001291 -0.002536
v 0.005849 0.001291 0.014059
v 0.012770 0.001291 -0.004361
v 0.012770 0.001291 0.010340
v 0.015273 0.001291 -0.006811
v 0.015273 0.001291 0.009630
v 0.016114 0.001291 -0.009818
v 0.016414 0.001291 0.009373
v 0.033961 0.001291 -0.009497
v 0.026164 0.001291 -0.009426
v 0.033213 0.001291 0.008627
v 0.026177 0.001291 0.008320
v 0.032854 0.001291 0.001867
v 0.037884 0.001291 -0.009497
v 0.041135 0.001291 -0.008074
v 0.041135 0.001291 -0.009497
v 0.043473 0.001291 -0.009497
v 0.043451 0.001291 -0.009487
v 0.037011 0.001291 -0.004542
v 0.002803 0.000044 0.017358
v 0.001700 0.000044 0.019139
v 0.001700 0.000044 -0.005788
v 0.002803 0.000044 -0.006065
v 0.002060 0.000044 -0.008875
v 0.002443 0.000044 -0.008875
v 0.003820 0.000044 -0.002759
v 0.003820 0.000044 0.015903
v 0.005850 0.000044 -0.002536
v 0.005849 0.000044 0.014059
v 0.012770 0.000044 -0.004361
v 0.012770 0.000044 0.010340
v 0.015273 0.000044 -0.006811
v 0.015273 0.000044 0.009630
v 0.016414 0.000044 0.009373
v 0.034621 0.000044 0.008626
v 0.026177 0.000044 0.008320
v 0.033956 0.000044 -0.010645
v 0.041135 0.000044 -0.010645
v 0.037884 0.000044 -0.003778
v 0.041812 0.000044 -0.007142
v 0.032342 0.001291 0.005568
v 0.026177 0.000044 -0.010575
v 0.016414 0.000044 -0.010890
v 0.033956 0.000044 0.002278
v 0.037884 0.000044 -0.010645
v 0.049005 0.000044 -0.010645
v 0.043981 0.000044 -0.008465
v 0.033517 0.000044 0.005452
v 0.033229 0.000044 0.008627
v 0.016114 0.000044 -0.009818
v -0.002803 0.001291 0.017358
v -0.001700 0.001291 0.019139
v -0.001700 0.001291 -0.005788
v -0.002803 0.001291 -0.006065
v -0.002060 0.001291 -0.008875
v -0.002443 0.001291 -0.008875
v -0.003820 0.001291 -0.002759
v -0.003820 0.001291 0.015903
v -0.005849 0.001291 -0.002536
v -0.005849 0.001291 0.014059
v -0.012770 0.001291 -0.004361
v -0.012770 0.001291 0.010340
v -0.015273 0.001291 -0.006811
v -0.015273 0.001291 0.009630
v -0.016114 0.001291 -0.009818
v -0.016414 0.001291 0.009373
v -0.033961 0.001291 -0.009497
v -0.026164 0.001291 -0.009426
v -0.033212 0.001291 0.008627
v -0.026177 0.001291 0.008320
v -0.032853 0.001291 0.001867
v -0.037884 0.001291 -0.009497
v -0.041135 0.001291 -0.008074
v -0.041135 0.001291 -0.009497
v -0.043473 0.001291 -0.009497
v -0.043451 0.001291 -0.009487
v -0.037011 0.001291 -0.004542
v 0.000000 0.001291 -0.006065
v 0.000000 0.001291 0.022860
v -0.002803 0.000044 0.017358
v -0.001700 0.000044 0.019139
v -0.001700 0.000044 -0.005788
v -0.002803 0.000044 -0.006065
v -0.002060 0.000044 -0.008875
v -0.002443 0.000044 -0.008875
v -0.003820 0.000044 -0.002759
v -0.003820 0.000044 0.015903
v -0.005849 0.000044 -0.002536
v -0.005849 0.000044 0.014059
v -0.012770 0.000044 -0.004361
v -0.012770 0.000044 0.010340
v -0.015273 0.000044 -0.006811
v -0.015273 0.000044 0.009630
v -0.016414 0.000044 0.009373
v -0.034621 0.000044 0.008626
v -0.026177 0.000044 0.008320
v -0.033956 0.000044 -0.010645
v -0.041135 0.000044 -0.010645
v -0.037884 0.000044 -0.003778
v -0.041812 0.000044 -0.007142
v 0.000000 0.000044 -0.006065
v 0.000000 0.000044 0.022860
v -0.032342 0.001291 0.005568
v -0.026177 0.000044 -0.010575
v -0.016414 0.000044 -0.010890
v -0.033956 0.000044 0.002278
v -0.037884 0.000044 -0.010645
v -0.049005 0.000044 -0.010645
v -0.043981 0.000044 -0.008465
v -0.033517 0.000044 0.005452
v -0.033229 0.000044 0.008627
v -0.016114 0.000044 -0.009818
vn 0.8502 0.0000 0.5265
vn 0.0000 1.0000 0.0000
vn 0.8198 0.0000 0.5727
vn 0.9095 0.0000 0.4156
vn -0.9933 0.0000 -0.1158
vn 0.9558 0.0000 -0.2940
vn 0.6725 0.0000 0.7401
vn 0.0000 0.0000 -1.0000
vn 0.9919 0.0000 -0.1270
vn 0.1093 0.0000 -0.9940
vn -0.2550 0.0000 -0.9669
vn 0.4734 0.0000 0.8809
vn 0.2729 0.0000 0.9620
vn -0.6994 0.0000 -0.7147
vn -0.9630 0.0000 -0.2693
vn 0.2193 0.0000 0.9757
vn -0.0437 -0.0003 0.9990
vn 0.1073 0.0000 0.9942
vn 0.1608 0.0000 -0.9870
vn 0.0000 -1.0000 0.0000
vn 0.0010 -0.0000 1.0000
vn -0.8502 0.0000 0.5265
vn -0.8198 0.0000 0.5727
vn -0.9095 0.0000 0.4156
vn 0.9933 0.0000 -0.1158
vn -0.9558 0.0000 -0.2940
vn -0.6725 0.0000 0.7401
vn -0.9919 0.0000 -0.1270
vn -0.1093 0.0000 -0.9940
vn 0.2550 0.0000 -0.9669
vn -0.4734 0.0000 0.8809
vn -0.2729 0.0000 0.9620
vn 0.6994 0.0000 -0.7147
vn 0.9630 0.0000 -0.2693
vn -0.2193 0.0000 0.9757
vn 0.0437 -0.0003 0.9990
vn -0.1073 0.0000 0.9942
vn -0.1608 0.0000 -0.9870
vn -0.0010 -0.0000 1.0000
vn -0.0067 0.6776 -0.7354
vn 0.0266 0.6667 -0.7448
vn 0.6170 0.6775 0.4003
vn 0.0000 0.6776 -0.7355
vn 0.2928 0.6776 0.6747
vn 0.6733 0.7079 -0.2133
vn 0.3831 0.6776 0.6278
vn 0.4784 0.6775 0.5586
vn 0.7285 0.6776 0.1007
vn 0.0067 0.6776 -0.7354
vn -0.0266 0.6667 -0.7448
vn -0.6170 0.6776 0.4003
vn -0.2928 0.6776 0.6747
vn -0.6733 0.7079 -0.2133
vn -0.3831 0.6776 0.6278
vn -0.4784 0.6775 0.5586
vn -0.7285 0.6776 0.1007
usemtl black
s off
f 2//1 29//1 28//1 1//1
f 7//2 4//2 1//2 8//2
f 1//3 28//3 35//3 8//3
f 4//2 3//2 2//2 1//2
f 87//4 110//4 29//4 2//4
f 5//5 32//5 30//5 3//5
f 34//6 31//6 4//6 7//6
f 8//7 35//7 37//7 10//7
f 33//8 32//8 5//8 6//8
f 31//9 33//9 6//9 4//9
f 3//2 4//2 6//2 5//2
f 36//10 34//10 7//10 9//10
f 38//11 36//11 9//11 11//11
f 10//12 37//12 39//12 12//12
f 3//2 86//2 87//2 2//2
f 9//2 7//2 8//2 10//2
f 12//13 39//13 41//13 14//13
f 40//14 38//14 11//14 13//14
f 51//15 58//15 15//15
f 14//16 41//16 42//16 16//16
f 11//2 9//2 10//2 12//2
f 13//2 11//2 12//2 14//2
f 20//17 44//17 57//17 19//17
f 16//18 42//18 44//18 20//18
f 18//2 15//2 16//2 20//2
f 17//2 21//2 27//2 22//2
f 22//2 27//2 23//2 24//2
f 24//2 23//2 26//2 25//2
f 30//19 109//19 86//19 3//19
f 34//20 35//20 28//20 31//20
f 31//20 28//20 29//20 30//20
f 30//20 32//20 33//20 31//20
f 30//20 29//20 110//20 109//20
f 36//20 37//20 35//20 34//20
f 38//20 39//20 37//20 36//20
f 40//20 41//20 39//20 38//20
f 51//20 42//20 41//20 40//20 58//20
f 50//20 44//20 42//20 51//20
f 45//20 53//20 47//20 52//20
f 53//20 46//20 48//20 47//20
f 46//20 54//20 55//20 48//20
f 18//2 21//2 17//2
f 52//20 56//20 43//20 57//20 44//20 50//20 45//20
f 18//2 20//2 49//2 21//2
f 20//2 19//2 49//2
f 19//21 57//21 43//21
f 15//2 13//2 14//2 16//2
f 15//15 58//15 40//15 13//15
f 60//22 59//22 88//22 89//22
f 65//2 66//2 59//2 62//2
f 59//23 66//23 95//23 88//23
f 62//2 59//2 60//2 61//2
f 87//24 60//24 89//24 110//24
f 63//25 61//25 90//25 92//25
f 94//26 65//26 62//26 91//26
f 66//27 68//27 97//27 95//27
f 93//8 64//8 63//8 92//8
f 91//28 62//28 64//28 93//28
f 61//2 63//2 64//2 62//2
f 96//29 67//29 65//29 94//29
f 98//30 69//30 67//30 96//30
f 68//31 70//31 99//31 97//31
f 61//2 60//2 87//2 86//2
f 67//2 68//2 66//2 65//2
f 70//32 72//32 101//32 99//32
f 100//33 71//33 69//33 98//33
f 113//34 73//34 120//34
f 72//35 74//35 102//35 101//35
f 69//2 70//2 68//2 67//2
f 71//2 72//2 70//2 69//2
f 78//36 77//36 119//36 104//36
f 74//37 78//37 104//37 102//37
f 76//2 78//2 74//2 73//2
f 75//2 80//2 85//2 79//2
f 80//2 82//2 81//2 85//2
f 82//2 83//2 84//2 81//2
f 90//38 61//38 86//38 109//38
f 94//20 91//20 88//20 95//20
f 91//20 90//20 89//20 88//20
f 90//20 91//20 93//20 92//20
f 90//20 109//20 110//20 89//20
f 96//20 94//20 95//20 97//20
f 98//20 96//20 97//20 99//20
f 100//20 98//20 99//20 101//20
f 113//20 120//20 100//20 101//20 102//20
f 112//20 113//20 102//20 104//20
f 105//20 114//20 107//20 115//20
f 115//20 107//20 108//20 106//20
f 106//20 108//20 117//20 116//20
f 76//2 75//2 79//2
f 114//20 105//20 112//20 104//20 119//20 103//20 118//20
f 76//2 79//2 111//2 78//2
f 78//2 111//2 77//2
f 77//39 103//39 119//39
f 73//2 74//2 72//2 71//2
f 73//34 71//34 100//34 120//34
usemtl silver
f 18//40 17//40 45//40 50//40
f 15//41 18//41 50//41 51//41
f 27//42 21//42 52//42 47//42
f 17//43 22//43 53//43 45//43
f 24//43 25//43 54//43 46//43
f 25//44 26//44 55//44 54//44
f 49//45 19//45 43//45 56//45
f 22//43 24//43 46//43 53//43
f 26//46 23//46 48//46 55//46
f 23//47 27//47 47//47 48//47
f 21//48 49//48 56//48 52//48
f 76//49 112//49 105//49 75//49
f 73//50 113//50 112//50 76//50
f 85//51 107//51 114//51 79//51
f 75//43 105//43 115//43 80//43
f 82//43 106//43 116//43 83//43
f 83//52 116//52 117//52 84//52
f 111//53 118//53 103//53 77//53
f 80//43 115//43 106//43 82//43
f 84//54 117//54 108//54 81//54
f 81//55 108//55 107//55 85//55
f 79//56 114//56 118//56 111//56
