# Blender v2.78 (sub 0) OBJ File: 'bo-shuriken.blend'
# www.blender.org
mtllib bo-shuriken.mtl
o bo-shuriken_Cube.005
v -0.957274 0.000000 0.000000
v 0.957274 -0.029140 0.029140
v 0.957274 0.029140 0.029140
v 0.957274 -0.029140 -0.029140
v 0.957274 0.029140 -0.029140
v -0.415186 -0.029140 -0.029140
v -0.415186 0.029140 -0.029140
v -0.415186 -0.029140 0.029140
v -0.415186 0.029140 0.029140
vn 0.0000 0.0000 -1.0000
vn 1.0000 0.0000 0.0000
vn -0.0537 0.0000 0.9986
vn 0.0000 -1.0000 0.0000
vn -0.0537 0.9986 0.0000
vn 0.0000 1.0000 0.0000
vn -0.0537 -0.9986 0.0000
vn 0.0000 0.0000 1.0000
vn -0.0537 0.0000 -0.9986
usemtl black.010
s off
f 6//1 7//1 5//1 4//1
f 4//2 5//2 3//2 2//2
f 8//3 9//3 1//3
f 6//4 4//4 2//4 8//4
f 7//5 1//5 9//5
f 5//6 7//6 9//6 3//6
f 1//7 6//7 8//7
f 2//8 3//8 9//8 8//8
f 1//9 7//9 6//9
