# Blender v2.78 (sub 0) OBJ File: 'goho.blend'
# www.blender.org
mtllib goho.mtl
o goho_Plane.009
v -0.012243 -0.000779 0.009274
v 0.000000 0.000779 -0.051019
v -0.009747 0.000779 -0.029881
v 0.009747 0.000779 -0.029881
v -0.012027 0.000000 -0.029493
v 0.000000 0.000000 -0.055576
v 0.012027 0.000000 -0.029493
v -0.012243 0.000779 0.009274
v 0.000000 -0.000779 -0.051019
v 0.000000 0.000000 -0.055576
v -0.009747 -0.000779 -0.029881
v -0.012027 0.000000 -0.029493
v 0.012027 0.000000 -0.029493
v 0.009747 -0.000779 -0.029881
v -0.007204 -0.000779 -0.028324
v -0.007204 0.000779 -0.028324
v -0.004974 0.000779 0.014555
v -0.004974 -0.000779 0.014555
v 0.007204 0.000779 -0.028324
v 0.007204 -0.000779 -0.028324
v -0.004492 -0.000779 -0.025658
v -0.004492 0.000779 -0.025658
v -0.018754 -0.000779 0.018236
v -0.018754 0.000779 0.018236
v 0.004492 0.000779 -0.025658
v 0.004492 -0.000779 -0.025658
v -0.004492 -0.000779 -0.014580
v -0.004492 0.000779 -0.014580
v -0.011486 0.000779 0.023517
v -0.011486 -0.000779 0.023517
v 0.004492 0.000779 -0.014580
v 0.004492 -0.000779 -0.014580
v 0.000000 -0.000906 -0.017251
v -0.006627 -0.000906 -0.015933
v -0.012245 -0.000906 -0.012179
v -0.015999 -0.000906 -0.006561
v -0.017317 -0.000906 0.000066
v -0.015999 -0.000906 0.006693
v -0.012245 -0.000906 0.012311
v -0.006627 -0.000906 0.016065
v 0.000000 -0.000906 0.017383
v 0.006627 -0.000906 0.016065
v 0.012245 -0.000906 0.012311
v 0.015999 -0.000906 0.006693
v 0.017317 -0.000906 0.000066
v 0.015999 -0.000906 -0.006561
v 0.012245 -0.000906 -0.012179
v 0.006627 -0.000906 -0.015933
v 0.000000 0.000906 -0.017251
v -0.006627 0.000906 -0.015933
v -0.012245 0.000906 -0.012179
v -0.015999 0.000906 -0.006561
v -0.017317 0.000906 0.000066
v -0.015999 0.000906 0.006693
v -0.012245 0.000906 0.012311
v -0.006627 0.000906 0.016065
v 0.000000 0.000906 0.017383
v 0.006627 0.000906 0.016065
v 0.012245 0.000906 0.012311
v 0.015999 0.000906 0.006693
v 0.017317 0.000906 0.000066
v 0.015999 0.000906 -0.006561
v 0.012245 0.000906 -0.012179
v 0.006627 0.000906 -0.015933
v -0.001831 -0.000906 -0.004354
v 0.000000 -0.000906 -0.004718
v -0.003382 -0.000906 -0.003317
v -0.004419 -0.000906 -0.001765
v -0.004784 -0.000906 0.000066
v -0.004419 -0.000906 0.001896
v -0.003382 -0.000906 0.003448
v -0.001831 -0.000906 0.004485
v 0.000000 -0.000906 0.004849
v 0.001831 -0.000906 0.004485
v 0.003382 -0.000906 0.003448
v 0.004419 -0.000906 0.001896
v 0.004784 -0.000906 0.000066
v 0.004419 -0.000906 -0.001765
v 0.003382 -0.000906 -0.003317
v 0.001831 -0.000906 -0.004354
v -0.001831 0.000906 -0.004354
v 0.000000 0.000906 -0.004718
v -0.003382 0.000906 -0.003317
v -0.004419 0.000906 -0.001765
v -0.004784 0.000906 0.000066
v -0.004419 0.000906 0.001896
v -0.003382 0.000906 0.003448
v -0.001831 0.000906 0.004485
v 0.000000 0.000906 0.004849
v 0.001831 0.000906 0.004485
v 0.003382 0.000906 0.003448
v 0.004419 0.000906 0.001896
v 0.004784 0.000906 0.000066
v 0.004419 0.000906 -0.001765
v 0.003382 0.000906 -0.003317
v 0.001831 0.000906 -0.004354
v -0.022515 -0.000779 0.018799
v -0.022515 0.000779 0.018799
v -0.010859 0.000779 0.027268
v -0.010859 -0.000779 0.027268
v -0.025488 -0.000779 0.018564
v -0.027104 -0.000000 0.016909
v -0.007644 0.000000 0.031049
v -0.009717 -0.000779 0.030022
v -0.032705 -0.000000 0.045081
v -0.030027 -0.000779 0.041394
v -0.027104 -0.000000 0.016909
v -0.032705 -0.000000 0.045081
v -0.007644 0.000000 0.031049
v -0.025488 0.000779 0.018564
v -0.009717 0.000779 0.030022
v -0.030027 0.000779 0.041394
v 0.030027 0.000779 0.041394
v 0.025488 0.000779 0.018564
v 0.009717 0.000779 0.030022
v 0.027104 0.000000 0.016909
v 0.032705 0.000000 0.045081
v 0.007644 -0.000000 0.031049
v 0.030027 -0.000779 0.041394
v 0.032705 0.000000 0.045081
v 0.025488 -0.000779 0.018564
v 0.027104 0.000000 0.016909
v 0.007644 -0.000000 0.031049
v 0.009717 -0.000779 0.030022
v 0.022515 -0.000779 0.018799
v 0.022515 0.000779 0.018799
v 0.010859 0.000779 0.027268
v 0.010859 -0.000779 0.027268
v 0.018754 -0.000779 0.018236
v 0.018754 0.000779 0.018236
v 0.011486 0.000779 0.023517
v 0.011486 -0.000779 0.023517
v 0.012243 -0.000779 0.009274
v 0.012243 0.000779 0.009274
v 0.004974 0.000779 0.014555
v 0.004974 -0.000779 0.014555
v 0.015317 -0.000779 -0.000188
v 0.015317 0.000779 -0.000188
v 0.012541 0.000779 -0.008732
v 0.012541 -0.000779 -0.008732
v 0.025853 -0.000779 -0.003611
v 0.025853 0.000779 -0.003611
v 0.023077 0.000779 -0.012156
v 0.023077 -0.000779 -0.012156
v 0.029226 -0.000779 -0.001856
v 0.029226 0.000779 -0.001856
v 0.024774 0.000779 -0.015558
v 0.024774 -0.000779 -0.015558
v 0.031493 -0.000779 0.000082
v 0.031828 0.000000 0.002370
v 0.024395 0.000000 -0.020507
v 0.025469 -0.000779 -0.018458
v 0.052918 0.000000 -0.017128
v 0.048584 -0.000779 -0.015720
v 0.031828 0.000000 0.002370
v 0.052918 0.000000 -0.017128
v 0.024395 0.000000 -0.020507
v 0.031493 0.000779 0.000082
v 0.025469 0.000779 -0.018458
v 0.048584 0.000779 -0.015720
v -0.012541 -0.000779 -0.008732
v -0.012541 0.000779 -0.008732
v -0.015317 0.000779 -0.000188
v -0.015317 -0.000779 -0.000188
v -0.023077 -0.000779 -0.012156
v -0.023077 0.000779 -0.012156
v -0.025853 0.000779 -0.003611
v -0.025853 -0.000779 -0.003611
v -0.024774 -0.000779 -0.015558
v -0.024774 0.000779 -0.015558
v -0.029226 0.000779 -0.001856
v -0.029226 -0.000779 -0.001856
v -0.025469 -0.000779 -0.018458
v -0.024395 -0.000000 -0.020507
v -0.031828 -0.000000 0.002370
v -0.031493 -0.000779 0.000082
v -0.052918 -0.000000 -0.017128
v -0.048584 -0.000779 -0.015720
v -0.024395 -0.000000 -0.020507
v -0.052918 -0.000000 -0.017128
v -0.031828 -0.000000 0.002370
v -0.025469 0.000779 -0.018458
v -0.031493 0.000779 0.000082
v -0.048584 0.000779 -0.015720
vn 0.0000 1.0000 0.0000
vn 0.0000 -1.0000 0.0000
vn -0.1678 0.0000 0.9858
vn -0.3433 0.9258 -0.1583
vn 0.3433 0.9258 -0.1583
vn 0.9863 0.0000 -0.1649
vn 0.0000 0.0000 1.0000
vn 0.1678 0.0000 0.9858
vn -0.3433 -0.9258 -0.1583
vn 0.3433 -0.9258 -0.1583
vn -0.3708 0.9258 -0.0737
vn -0.5221 0.0000 0.8529
vn 0.5221 0.0000 0.8529
vn 0.9237 0.0000 -0.3831
vn 1.0000 0.0000 0.0000
vn 0.7010 0.0000 0.7131
vn -0.1480 0.0000 -0.9890
vn -0.7010 0.0000 0.7131
vn -0.8090 0.0000 -0.5878
vn -1.0000 0.0000 0.0000
vn 0.8315 0.0000 -0.5556
vn -0.5556 0.0000 0.8315
vn 0.5556 0.0000 -0.8315
vn -0.1951 0.0000 0.9808
vn -0.1951 0.0000 -0.9808
vn 0.1951 0.0000 -0.9808
vn 0.1951 0.0000 0.9808
vn -0.5556 0.0000 -0.8315
vn 0.5556 0.0000 0.8315
vn -0.8315 0.0000 -0.5556
vn 0.8315 0.0000 0.5556
vn -0.9808 0.0000 -0.1951
vn 0.9808 0.0000 0.1951
vn -0.9808 0.0000 0.1951
vn 0.9808 0.0000 -0.1951
vn -0.8315 0.0000 0.5556
vn 0.1847 -0.9258 0.3299
vn 0.5878 0.0000 -0.8090
vn 0.4437 0.0000 -0.8962
vn 0.8090 0.0000 0.5878
vn 0.1847 0.9258 0.3299
vn 0.7152 0.0000 -0.6989
vn 0.0789 0.0000 -0.9969
vn -0.3708 -0.9258 -0.0737
vn 0.1480 0.0000 -0.9890
vn -0.9237 0.0000 -0.3831
vn -0.7152 0.0000 -0.6989
vn -0.1847 -0.9258 0.3299
vn 0.3708 0.9258 -0.0737
vn 0.3708 -0.9258 -0.0737
vn -0.4437 0.0000 -0.8962
vn -0.8090 0.0000 0.5878
vn -0.1847 0.9258 0.3299
vn 0.8090 0.0000 -0.5878
vn -0.0789 0.0000 -0.9969
vn -0.5878 0.0000 -0.8090
vn -0.9863 0.0000 -0.1649
vn -0.9511 0.0000 0.3090
vn 0.3090 0.0000 0.9511
vn -0.3090 0.0000 -0.9511
vn -0.4616 0.0000 0.8871
vn -0.8949 0.0000 -0.4464
vn -0.9725 0.0000 -0.2330
vn 0.0445 -0.9258 -0.3754
vn 0.0445 0.9258 -0.3754
vn -0.6498 0.0000 0.7601
vn 0.2567 0.9258 0.2776
vn -0.8857 0.0000 0.4642
vn 0.2567 -0.9258 0.2776
vn -0.9894 0.0000 0.1451
vn 0.4616 0.0000 0.8871
vn -0.0445 0.9258 -0.3754
vn 0.6498 0.0000 0.7601
vn 0.8949 0.0000 -0.4464
vn 0.3090 0.0000 -0.9511
vn -0.2567 -0.9258 0.2776
vn 0.9511 0.0000 0.3090
vn 0.9894 0.0000 0.1451
vn -0.3090 0.0000 0.9511
vn -0.2567 0.9258 0.2776
vn 0.8857 0.0000 0.4642
vn 0.9725 0.0000 -0.2330
vn -0.0445 -0.9258 -0.3754
usemtl black.006
s off
f 16//1 22//1 25//1 19//1
f 9//2 14//2 11//2
f 4//3 14//3 13//3
f 10//4 12//4 3//4 2//4
f 13//5 10//5 2//5 4//5
f 3//1 16//1 19//1 4//1
f 99//6 100//6 30//6 29//6
f 6//7 10//7 12//7 5//7
f 7//7 13//7 10//7 6//7
f 2//1 3//1 4//1
f 12//8 11//8 3//8
f 10//9 9//9 11//9 12//9
f 13//10 14//10 9//10 10//10
f 14//2 20//2 15//2 11//2
f 27//7 32//7 31//7 28//7
f 99//1 29//1 24//1 98//1
f 102//11 105//11 112//11 110//11
f 3//12 11//12 15//12 16//12
f 14//13 4//13 19//13 20//13
f 111//14 104//14 100//14 99//14
f 26//15 25//15 31//15 32//15
f 25//1 22//1 28//1 31//1
f 100//2 97//2 23//2 30//2
f 20//16 19//16 25//16 26//16
f 97//17 98//17 24//17 23//17
f 16//18 15//18 21//18 22//18
f 21//2 26//2 32//2 27//2
f 30//2 23//2 1//2 18//2
f 23//19 24//19 8//19 1//19
f 22//20 21//20 27//20 28//20
f 106//2 101//2 104//2
f 107//7 102//7 105//7 108//7
f 46//21 47//21 63//21 62//21
f 39//22 40//22 56//22 55//22
f 47//23 48//23 64//23 63//23
f 40//24 41//24 57//24 56//24
f 33//25 34//25 50//25 49//25
f 48//26 33//26 49//26 64//26
f 41//27 42//27 58//27 57//27
f 34//28 35//28 51//28 50//28
f 42//29 43//29 59//29 58//29
f 35//30 36//30 52//30 51//30
f 43//31 44//31 60//31 59//31
f 36//32 37//32 53//32 52//32
f 44//33 45//33 61//33 60//33
f 37//34 38//34 54//34 53//34
f 45//35 46//35 62//35 61//35
f 38//36 39//36 55//36 54//36
f 78//36 94//36 95//36 79//36
f 71//23 87//23 88//23 72//23
f 79//22 95//22 96//22 80//22
f 72//26 88//26 89//26 73//26
f 66//27 82//27 81//27 65//27
f 80//24 96//24 82//24 66//24
f 73//25 89//25 90//25 74//25
f 65//29 81//29 83//29 67//29
f 74//28 90//28 91//28 75//28
f 67//31 83//31 84//31 68//31
f 75//30 91//30 92//30 76//30
f 68//33 84//33 85//33 69//33
f 76//32 92//32 93//32 77//32
f 69//35 85//35 86//35 70//35
f 77//34 93//34 94//34 78//34
f 70//21 86//21 87//21 71//21
f 43//2 75//2 76//2 44//2
f 58//1 90//1 89//1 57//1
f 44//2 76//2 77//2 45//2
f 59//1 91//1 90//1 58//1
f 45//2 77//2 78//2 46//2
f 60//1 92//1 91//1 59//1
f 46//2 78//2 79//2 47//2
f 33//2 66//2 65//2 34//2
f 61//1 93//1 92//1 60//1
f 47//2 79//2 80//2 48//2
f 34//2 65//2 67//2 35//2
f 62//1 94//1 93//1 61//1
f 48//2 80//2 66//2 33//2
f 35//2 67//2 68//2 36//2
f 63//1 95//1 94//1 62//1
f 50//1 81//1 82//1 49//1
f 36//2 68//2 69//2 37//2
f 64//1 96//1 95//1 63//1
f 51//1 83//1 81//1 50//1
f 37//2 69//2 70//2 38//2
f 49//1 82//1 96//1 64//1
f 52//1 84//1 83//1 51//1
f 38//2 70//2 71//2 39//2
f 53//1 85//1 84//1 52//1
f 39//2 71//2 72//2 40//2
f 54//1 86//1 85//1 53//1
f 40//2 72//2 73//2 41//2
f 55//1 87//1 86//1 54//1
f 41//2 73//2 74//2 42//2
f 56//1 88//1 87//1 55//1
f 42//2 74//2 75//2 43//2
f 57//1 89//1 88//1 56//1
f 15//2 20//2 26//2 21//2
f 105//37 106//37 104//37 103//37
f 18//38 1//38 8//38 17//38
f 103//39 104//39 111//39
f 29//40 30//40 18//40 17//40
f 101//2 97//2 100//2 104//2
f 111//1 99//1 98//1 110//1
f 24//1 29//1 17//1 8//1
f 105//41 103//41 111//41 112//41
f 110//42 101//42 102//42
f 112//1 111//1 110//1
f 101//43 110//43 98//43 97//43
f 108//7 105//7 103//7 109//7
f 102//44 101//44 106//44 105//44
f 113//1 114//1 115//1
f 126//45 125//45 129//45 130//45
f 124//46 115//46 127//46 128//46
f 122//47 121//47 114//47
f 114//1 126//1 127//1 115//1
f 117//7 120//7 122//7 116//7
f 123//48 124//48 119//48 120//48
f 120//49 122//49 114//49 113//49
f 126//1 130//1 131//1 127//1
f 131//1 130//1 134//1 135//1
f 120//50 119//50 121//50 122//50
f 115//51 124//51 123//51
f 132//52 131//52 135//52 136//52
f 123//53 120//53 113//53 115//53
f 118//7 123//7 120//7 117//7
f 130//54 129//54 133//54 134//54
f 114//55 121//55 125//55 126//55
f 124//2 128//2 125//2 121//2
f 129//2 132//2 136//2 133//2
f 119//2 124//2 121//2
f 133//56 136//56 135//56 134//56
f 125//2 128//2 132//2 129//2
f 128//57 127//57 131//57 132//57
f 154//2 149//2 152//2
f 160//1 159//1 158//1
f 140//58 137//58 138//58 139//58
f 141//59 142//59 138//59 137//59
f 143//60 144//60 140//60 139//60
f 148//2 145//2 141//2 144//2
f 145//61 146//61 142//61 141//61
f 149//2 145//2 148//2 152//2
f 147//62 148//62 144//62 143//62
f 159//63 152//63 148//63 147//63
f 153//64 154//64 152//64 151//64
f 144//2 141//2 137//2 140//2
f 153//65 151//65 159//65 160//65
f 149//66 158//66 146//66 145//66
f 142//1 143//1 139//1 138//1
f 150//67 153//67 160//67 158//67
f 151//68 152//68 159//68
f 155//7 150//7 153//7 156//7
f 150//69 149//69 154//69 153//69
f 147//1 143//1 142//1 146//1
f 158//70 149//70 150//70
f 159//1 147//1 146//1 158//1
f 156//7 153//7 151//7 157//7
f 171//71 172//71 168//71 167//71
f 171//1 167//1 166//1 170//1
f 174//72 177//72 184//72 182//72
f 183//73 176//73 172//73 171//73
f 172//2 169//2 165//2 168//2
f 169//74 170//74 166//74 165//74
f 168//2 165//2 161//2 164//2
f 165//75 166//75 162//75 161//75
f 178//2 173//2 176//2
f 179//7 174//7 177//7 180//7
f 177//76 178//76 176//76 175//76
f 164//77 161//77 162//77 163//77
f 175//78 176//78 183//78
f 167//79 168//79 164//79 163//79
f 173//2 169//2 172//2 176//2
f 183//1 171//1 170//1 182//1
f 166//1 167//1 163//1 162//1
f 177//80 175//80 183//80 184//80
f 182//81 173//81 174//81
f 184//1 183//1 182//1
f 173//82 182//82 170//82 169//82
f 180//7 177//7 175//7 181//7
f 174//83 173//83 178//83 177//83
