# Blender v2.78 (sub 0) OBJ File: 'happo.blend'
# www.blender.org
mtllib happo.mtl
o happo_Plane.011
v 0.000000 0.000786 -0.051494
v -0.007132 0.000786 -0.030187
v 0.007132 0.000786 -0.030187
v -0.008801 0.000000 -0.029795
v 0.000000 0.000000 -0.056088
v 0.008801 0.000000 -0.029795
v 0.000000 -0.000786 -0.051494
v 0.000000 0.000000 -0.056088
v -0.007132 -0.000786 -0.030187
v -0.008801 0.000000 -0.029795
v 0.008801 0.000000 -0.029795
v 0.007132 -0.000786 -0.030187
v -0.005271 -0.000786 -0.028617
v -0.005271 0.000786 -0.028617
v 0.005271 0.000786 -0.028617
v 0.005271 -0.000786 -0.028617
v -0.003287 -0.000786 -0.025930
v -0.003287 0.000786 -0.025930
v 0.003287 0.000786 -0.025930
v 0.003287 -0.000786 -0.025930
v -0.003287 -0.000786 -0.014763
v -0.003287 0.000786 -0.014763
v 0.003287 0.000786 -0.014763
v 0.003287 -0.000786 -0.014763
v 0.000000 -0.000913 -0.017456
v -0.006680 -0.000913 -0.016127
v -0.012343 -0.000913 -0.012343
v -0.016127 -0.000913 -0.006680
v -0.017456 -0.000913 0.000000
v -0.016127 -0.000913 0.006680
v -0.012343 -0.000913 0.012343
v -0.006680 -0.000913 0.016127
v -0.000000 -0.000913 0.017456
v 0.006680 -0.000913 0.016127
v 0.012343 -0.000913 0.012343
v 0.016127 -0.000913 0.006680
v 0.017456 -0.000913 -0.000000
v 0.016127 -0.000913 -0.006680
v 0.012343 -0.000913 -0.012343
v 0.006680 -0.000913 -0.016127
v 0.000000 0.000913 -0.017456
v -0.006680 0.000913 -0.016127
v -0.012343 0.000913 -0.012343
v -0.016127 0.000913 -0.006680
v -0.017456 0.000913 0.000000
v -0.016127 0.000913 0.006680
v -0.012343 0.000913 0.012343
v -0.006680 0.000913 0.016127
v -0.000000 0.000913 0.017456
v 0.006680 0.000913 0.016127
v 0.012343 0.000913 0.012343
v 0.016127 0.000913 0.006680
v 0.017456 0.000913 -0.000000
v 0.016127 0.000913 -0.006680
v 0.012343 0.000913 -0.012343
v 0.006680 0.000913 -0.016127
v -0.001845 -0.000913 -0.004455
v 0.000000 -0.000913 -0.004822
v -0.003410 -0.000913 -0.003410
v -0.004455 -0.000913 -0.001845
v -0.004822 -0.000913 0.000000
v -0.004455 -0.000913 0.001845
v -0.003410 -0.000913 0.003410
v -0.001845 -0.000913 0.004455
v -0.000000 -0.000913 0.004822
v 0.001845 -0.000913 0.004455
v 0.003410 -0.000913 0.003410
v 0.004455 -0.000913 0.001845
v 0.004822 -0.000913 -0.000000
v 0.004455 -0.000913 -0.001845
v 0.003410 -0.000913 -0.003410
v 0.001845 -0.000913 -0.004455
v -0.001845 0.000913 -0.004455
v 0.000000 0.000913 -0.004822
v -0.003410 0.000913 -0.003410
v -0.004455 0.000913 -0.001845
v -0.004822 0.000913 0.000000
v -0.004455 0.000913 0.001845
v -0.003410 0.000913 0.003410
v -0.001845 0.000913 0.004455
v -0.000000 0.000913 0.004822
v 0.001845 0.000913 0.004455
v 0.003410 0.000913 0.003410
v 0.004455 0.000913 0.001845
v 0.004822 0.000913 -0.000000
v 0.004455 0.000913 -0.001845
v 0.003410 0.000913 -0.003410
v 0.001845 0.000913 -0.004455
v -0.008115 -0.000786 -0.012763
v -0.008115 0.000786 -0.012763
v -0.012763 0.000786 -0.008115
v -0.012763 -0.000786 -0.008115
v -0.016011 -0.000786 -0.020660
v -0.016011 0.000786 -0.020660
v -0.020660 0.000786 -0.016011
v -0.020660 -0.000786 -0.016011
v -0.016508 -0.000786 -0.023963
v -0.016508 0.000786 -0.023963
v -0.023963 0.000786 -0.016508
v -0.023963 -0.000786 -0.016508
v -0.016302 -0.000786 -0.026388
v -0.014846 0.000000 -0.027292
v -0.027292 0.000000 -0.014846
v -0.026388 -0.000786 -0.016302
v -0.039660 0.000000 -0.039660
v -0.036412 -0.000786 -0.036412
v -0.014846 0.000000 -0.027292
v -0.039660 0.000000 -0.039660
v -0.027292 0.000000 -0.014846
v -0.016302 0.000786 -0.026388
v -0.026388 0.000786 -0.016302
v -0.036412 0.000786 -0.036412
v -0.003287 -0.000786 0.014763
v -0.003287 0.000786 0.014763
v 0.003287 0.000786 0.014763
v 0.003287 -0.000786 0.014763
v -0.003287 -0.000786 0.025930
v -0.003287 0.000786 0.025930
v 0.003287 0.000786 0.025930
v 0.003287 -0.000786 0.025930
v -0.005271 -0.000786 0.028617
v -0.005271 0.000786 0.028617
v 0.005271 0.000786 0.028617
v 0.005271 -0.000786 0.028617
v -0.007132 -0.000786 0.030187
v -0.008801 0.000000 0.029795
v 0.008801 0.000000 0.029795
v 0.007132 -0.000786 0.030187
v -0.000000 0.000000 0.056088
v -0.000000 -0.000786 0.051494
v -0.008801 0.000000 0.029795
v -0.000000 0.000000 0.056088
v 0.008801 0.000000 0.029795
v -0.007132 0.000786 0.030187
v 0.007132 0.000786 0.030187
v -0.000000 0.000786 0.051494
v 0.036412 0.000786 0.036412
v 0.026388 0.000786 0.016302
v 0.016302 0.000786 0.026388
v 0.027292 0.000000 0.014846
v 0.039660 0.000000 0.039660
v 0.014846 0.000000 0.027292
v 0.036412 -0.000786 0.036412
v 0.039660 0.000000 0.039660
v 0.026388 -0.000786 0.016302
v 0.027292 0.000000 0.014846
v 0.014846 0.000000 0.027292
v 0.016302 -0.000786 0.026388
v 0.023963 -0.000786 0.016508
v 0.023963 0.000786 0.016508
v 0.016508 0.000786 0.023963
v 0.016508 -0.000786 0.023963
v 0.020660 -0.000786 0.016011
v 0.020660 0.000786 0.016011
v 0.016011 0.000786 0.020660
v 0.016011 -0.000786 0.020660
v 0.012763 -0.000786 0.008115
v 0.012763 0.000786 0.008115
v 0.008115 0.000786 0.012763
v 0.008115 -0.000786 0.012763
v 0.014763 -0.000786 0.003287
v 0.014763 0.000786 0.003287
v 0.014763 0.000786 -0.003287
v 0.014763 -0.000786 -0.003287
v 0.025930 -0.000786 0.003287
v 0.025930 0.000786 0.003287
v 0.025930 0.000786 -0.003287
v 0.025930 -0.000786 -0.003287
v 0.028617 -0.000786 0.005271
v 0.028617 0.000786 0.005271
v 0.028617 0.000786 -0.005271
v 0.028617 -0.000786 -0.005271
v 0.030187 -0.000786 0.007132
v 0.029795 0.000000 0.008801
v 0.029795 0.000000 -0.008801
v 0.030187 -0.000786 -0.007132
v 0.056088 0.000000 0.000000
v 0.051494 -0.000786 0.000000
v 0.029795 0.000000 0.008801
v 0.056088 0.000000 0.000000
v 0.029795 0.000000 -0.008801
v 0.030187 0.000786 0.007132
v 0.030187 0.000786 -0.007132
v 0.051494 0.000786 0.000000
v 0.012763 -0.000786 -0.008115
v 0.012763 0.000786 -0.008115
v 0.008115 0.000786 -0.012763
v 0.008115 -0.000786 -0.012763
v 0.020660 -0.000786 -0.016011
v 0.020660 0.000786 -0.016011
v 0.016011 0.000786 -0.020660
v 0.016011 -0.000786 -0.020660
v 0.023963 -0.000786 -0.016508
v 0.023963 0.000786 -0.016508
v 0.016508 0.000786 -0.023963
v 0.016508 -0.000786 -0.023963
v 0.026388 -0.000786 -0.016302
v 0.027292 0.000000 -0.014846
v 0.014846 0.000000 -0.027292
v 0.016302 -0.000786 -0.026388
v 0.039660 0.000000 -0.039660
v 0.036412 -0.000786 -0.036412
v 0.027292 0.000000 -0.014846
v 0.039660 0.000000 -0.039660
v 0.014846 0.000000 -0.027292
v 0.026388 0.000786 -0.016302
v 0.016302 0.000786 -0.026388
v 0.036412 0.000786 -0.036412
v -0.014763 -0.000786 -0.003287
v -0.014763 0.000786 -0.003287
v -0.014763 0.000786 0.003287
v -0.014763 -0.000786 0.003287
v -0.025930 -0.000786 -0.003287
v -0.025930 0.000786 -0.003287
v -0.025930 0.000786 0.003287
v -0.025930 -0.000786 0.003287
v -0.028617 -0.000786 -0.005271
v -0.028617 0.000786 -0.005271
v -0.028617 0.000786 0.005271
v -0.028617 -0.000786 0.005271
v -0.030187 -0.000786 -0.007132
v -0.029795 0.000000 -0.008801
v -0.029795 0.000000 0.008801
v -0.030187 -0.000786 0.007132
v -0.056088 0.000000 -0.000000
v -0.051494 -0.000786 -0.000000
v -0.029795 0.000000 -0.008801
v -0.056088 0.000000 -0.000000
v -0.029795 0.000000 0.008801
v -0.030187 0.000786 -0.007132
v -0.030187 0.000786 0.007132
v -0.051494 0.000786 -0.000000
v -0.012763 -0.000786 0.008115
v -0.012763 0.000786 0.008115
v -0.008115 0.000786 0.012763
v -0.008115 -0.000786 0.012763
v -0.020660 -0.000786 0.016011
v -0.020660 0.000786 0.016011
v -0.016011 0.000786 0.020660
v -0.016011 -0.000786 0.020660
v -0.023963 -0.000786 0.016508
v -0.023963 0.000786 0.016508
v -0.016508 0.000786 0.023963
v -0.016508 -0.000786 0.023963
v -0.026388 -0.000786 0.016302
v -0.027292 0.000000 0.014845
v -0.014846 0.000000 0.027292
v -0.016302 -0.000786 0.026388
v -0.039660 0.000000 0.039660
v -0.036412 -0.000786 0.036412
v -0.027292 0.000000 0.014845
v -0.039660 0.000000 0.039660
v -0.014846 0.000000 0.027292
v -0.026388 0.000786 0.016302
v -0.016302 0.000786 0.026388
v -0.036412 0.000786 0.036412
vn 0.0000 1.0000 -0.0000
vn 0.0000 -1.0000 0.0000
vn -0.2283 0.0000 0.9736
vn -0.4498 0.8804 -0.1505
vn 0.4498 0.8804 -0.1505
vn 0.0000 0.0000 1.0000
vn 0.2283 0.0000 0.9736
vn -0.4498 -0.8804 -0.1505
vn 0.4498 -0.8804 -0.1505
vn -0.6447 0.0000 0.7644
vn 0.6447 0.0000 0.7644
vn 1.0000 0.0000 0.0000
vn 0.8044 0.0000 0.5940
vn -0.8044 0.0000 0.5940
vn -1.0000 0.0000 0.0000
vn 0.8315 0.0000 -0.5556
vn -0.5556 0.0000 0.8315
vn 0.5556 0.0000 -0.8315
vn -0.1951 0.0000 0.9808
vn -0.1951 0.0000 -0.9808
vn 0.1951 0.0000 -0.9808
vn 0.1951 0.0000 0.9808
vn -0.5556 0.0000 -0.8315
vn 0.5556 0.0000 0.8315
vn -0.8315 0.0000 -0.5556
vn 0.8315 0.0000 0.5556
vn -0.9808 0.0000 -0.1951
vn 0.9808 0.0000 0.1951
vn -0.9808 0.0000 0.1951
vn 0.9808 0.0000 -0.1951
vn -0.8315 0.0000 0.5556
vn -0.1488 0.0000 0.9889
vn -0.4245 -0.8804 0.2116
vn 0.7071 0.0000 0.7071
vn 0.7071 0.0000 -0.7071
vn -0.7071 0.0000 0.7071
vn 0.8499 0.0000 0.5270
vn 0.9889 0.0000 -0.1488
vn 0.0846 0.0000 0.9964
vn 0.9964 0.0000 0.0846
vn 0.2116 -0.8804 -0.4245
vn 0.5270 0.0000 0.8498
vn -0.4245 0.8804 0.2116
vn 0.2116 0.8804 -0.4245
vn 0.4498 -0.8804 0.1505
vn 0.6447 0.0000 -0.7644
vn 0.0000 0.0000 -1.0000
vn -0.8044 0.0000 -0.5940
vn -0.4498 -0.8804 0.1505
vn -0.2283 0.0000 -0.9736
vn 0.8044 0.0000 -0.5940
vn -0.6447 0.0000 -0.7644
vn 0.2283 0.0000 -0.9736
vn 0.4498 0.8804 0.1505
vn -0.4498 0.8804 0.1505
vn -0.0846 0.0000 -0.9964
vn -0.2116 -0.8804 0.4245
vn -0.2116 0.8804 0.4245
vn -0.5270 0.0000 -0.8498
vn 0.1488 0.0000 -0.9889
vn 0.4245 0.8804 -0.2116
vn -0.8498 0.0000 -0.5270
vn -0.9889 0.0000 0.1488
vn -0.9964 0.0000 -0.0846
vn 0.4245 -0.8804 -0.2116
vn -0.7071 0.0000 -0.7071
vn 0.1505 -0.8804 -0.4498
vn -0.7644 0.0000 -0.6447
vn -0.5940 0.0000 0.8044
vn 0.1505 -0.8804 0.4498
vn -0.9736 0.0000 0.2283
vn -0.5940 0.0000 -0.8044
vn -0.7644 0.0000 0.6447
vn -0.9736 0.0000 -0.2283
vn 0.1505 0.8804 -0.4498
vn 0.1505 0.8804 0.4498
vn -0.2116 -0.8804 -0.4245
vn -0.9964 0.0000 0.0846
vn 0.1488 0.0000 0.9889
vn 0.4245 -0.8804 0.2116
vn -0.5270 0.0000 0.8498
vn -0.9889 0.0000 -0.1488
vn -0.0846 0.0000 0.9964
vn -0.8498 0.0000 0.5270
vn -0.2116 0.8804 -0.4245
vn 0.4245 0.8804 0.2116
vn -0.1505 -0.8804 0.4498
vn 0.7644 0.0000 0.6447
vn 0.5940 0.0000 -0.8044
vn -0.1505 -0.8804 -0.4498
vn 0.9736 0.0000 -0.2283
vn 0.5940 0.0000 0.8044
vn 0.7644 0.0000 -0.6447
vn 0.9736 0.0000 0.2283
vn -0.1505 0.8804 0.4498
vn -0.1505 0.8804 -0.4498
vn 0.2116 -0.8804 0.4245
vn 0.9964 0.0000 -0.0846
vn -0.1488 0.0000 -0.9889
vn -0.4245 -0.8804 -0.2116
vn 0.5270 0.0000 -0.8499
vn 0.9889 0.0000 0.1488
vn 0.0846 0.0000 -0.9964
vn 0.8499 0.0000 -0.5270
vn 0.2116 0.8804 0.4245
vn -0.4245 0.8804 -0.2116
usemtl black.009
s off
f 14//1 18//1 19//1 15//1
f 7//2 12//2 9//2
f 3//3 12//3 11//3
f 8//4 10//4 2//4 1//4
f 11//5 8//5 1//5 3//5
f 2//1 14//1 15//1 3//1
f 5//6 8//6 10//6 4//6
f 6//6 11//6 8//6 5//6
f 1//1 2//1 3//1
f 10//7 9//7 2//7
f 8//8 7//8 9//8 10//8
f 11//9 12//9 7//9 8//9
f 12//2 16//2 13//2 9//2
f 21//6 24//6 23//6 22//6
f 2//10 9//10 13//10 14//10
f 12//11 3//11 15//11 16//11
f 20//12 19//12 23//12 24//12
f 19//1 18//1 22//1 23//1
f 16//13 15//13 19//13 20//13
f 14//14 13//14 17//14 18//14
f 17//2 20//2 24//2 21//2
f 18//15 17//15 21//15 22//15
f 38//16 39//16 55//16 54//16
f 31//17 32//17 48//17 47//17
f 39//18 40//18 56//18 55//18
f 32//19 33//19 49//19 48//19
f 25//20 26//20 42//20 41//20
f 40//21 25//21 41//21 56//21
f 33//22 34//22 50//22 49//22
f 26//23 27//23 43//23 42//23
f 34//24 35//24 51//24 50//24
f 27//25 28//25 44//25 43//25
f 35//26 36//26 52//26 51//26
f 28//27 29//27 45//27 44//27
f 36//28 37//28 53//28 52//28
f 29//29 30//29 46//29 45//29
f 37//30 38//30 54//30 53//30
f 30//31 31//31 47//31 46//31
f 70//31 86//31 87//31 71//31
f 63//18 79//18 80//18 64//18
f 71//17 87//17 88//17 72//17
f 64//21 80//21 81//21 65//21
f 58//22 74//22 73//22 57//22
f 72//19 88//19 74//19 58//19
f 65//20 81//20 82//20 66//20
f 57//24 73//24 75//24 59//24
f 66//23 82//23 83//23 67//23
f 59//26 75//26 76//26 60//26
f 67//25 83//25 84//25 68//25
f 60//28 76//28 77//28 61//28
f 68//27 84//27 85//27 69//27
f 61//30 77//30 78//30 62//30
f 69//29 85//29 86//29 70//29
f 62//16 78//16 79//16 63//16
f 35//2 67//2 68//2 36//2
f 50//1 82//1 81//1 49//1
f 36//2 68//2 69//2 37//2
f 51//1 83//1 82//1 50//1
f 37//2 69//2 70//2 38//2
f 52//1 84//1 83//1 51//1
f 38//2 70//2 71//2 39//2
f 25//2 58//2 57//2 26//2
f 53//1 85//1 84//1 52//1
f 39//2 71//2 72//2 40//2
f 26//2 57//2 59//2 27//2
f 54//1 86//1 85//1 53//1
f 40//2 72//2 58//2 25//2
f 27//2 59//2 60//2 28//2
f 55//1 87//1 86//1 54//1
f 42//1 73//1 74//1 41//1
f 28//2 60//2 61//2 29//2
f 56//1 88//1 87//1 55//1
f 43//1 75//1 73//1 42//1
f 29//2 61//2 62//2 30//2
f 41//1 74//1 88//1 56//1
f 44//1 76//1 75//1 43//1
f 30//2 62//2 63//2 31//2
f 45//1 77//1 76//1 44//1
f 31//2 63//2 64//2 32//2
f 46//1 78//1 77//1 45//1
f 32//2 64//2 65//2 33//2
f 47//1 79//1 78//1 46//1
f 33//2 65//2 66//2 34//2
f 48//1 80//1 79//1 47//1
f 34//2 66//2 67//2 35//2
f 49//1 81//1 80//1 48//1
f 13//2 16//2 20//2 17//2
f 99//32 100//32 96//32 95//32
f 101//2 97//2 100//2 104//2
f 105//33 106//33 104//33 103//33
f 100//2 97//2 93//2 96//2
f 92//34 89//34 90//34 91//34
f 93//35 94//35 90//35 89//35
f 112//1 111//1 110//1
f 108//6 105//6 103//6 109//6
f 95//36 96//36 92//36 91//36
f 94//1 95//1 91//1 90//1
f 103//37 104//37 111//37
f 97//38 98//38 94//38 93//38
f 111//1 99//1 98//1 110//1
f 111//39 104//39 100//39 99//39
f 96//2 93//2 89//2 92//2
f 101//40 110//40 98//40 97//40
f 102//41 101//41 106//41 105//41
f 106//2 101//2 104//2
f 110//42 101//42 102//42
f 105//43 103//43 111//43 112//43
f 102//44 105//44 112//44 110//44
f 107//6 102//6 105//6 108//6
f 99//1 95//1 94//1 98//1
f 132//6 129//6 127//6 133//6
f 129//45 130//45 128//45 127//45
f 117//15 118//15 114//15 113//15
f 119//12 120//12 116//12 115//12
f 124//2 121//2 117//2 120//2
f 118//1 119//1 115//1 114//1
f 135//46 128//46 124//46 123//46
f 116//47 113//47 114//47 115//47
f 120//2 117//2 113//2 116//2
f 121//48 122//48 118//48 117//48
f 126//49 125//49 130//49 129//49
f 125//2 121//2 124//2 128//2
f 127//50 128//50 135//50
f 123//1 119//1 118//1 122//1
f 123//51 124//51 120//51 119//51
f 125//52 134//52 122//52 121//52
f 130//2 125//2 128//2
f 134//53 125//53 126//53
f 135//1 123//1 122//1 134//1
f 136//1 135//1 134//1
f 129//54 127//54 135//54 136//54
f 126//55 129//55 136//55 134//55
f 131//6 126//6 129//6 132//6
f 138//56 145//56 149//56 150//56
f 147//57 148//57 143//57 144//57
f 143//2 148//2 145//2
f 147//58 144//58 137//58 139//58
f 142//6 147//6 144//6 141//6
f 139//59 148//59 147//59
f 150//60 149//60 153//60 154//60
f 150//1 154//1 155//1 151//1
f 144//61 146//61 138//61 137//61
f 138//1 150//1 151//1 139//1
f 148//2 152//2 149//2 145//2
f 146//62 145//62 138//62
f 152//63 151//63 155//63 156//63
f 141//6 144//6 146//6 140//6
f 137//1 138//1 139//1
f 148//64 139//64 151//64 152//64
f 144//65 143//65 145//65 146//65
f 156//36 155//36 159//36 160//36
f 155//1 154//1 158//1 159//1
f 153//2 156//2 160//2 157//2
f 154//35 153//35 157//35 158//35
f 149//2 152//2 156//2 153//2
f 157//66 160//66 159//66 158//66
f 180//6 177//6 175//6 181//6
f 177//67 178//67 176//67 175//67
f 165//6 166//6 162//6 161//6
f 167//47 168//47 164//47 163//47
f 172//2 169//2 165//2 168//2
f 166//1 167//1 163//1 162//1
f 183//68 176//68 172//68 171//68
f 164//15 161//15 162//15 163//15
f 168//2 165//2 161//2 164//2
f 169//69 170//69 166//69 165//69
f 174//70 173//70 178//70 177//70
f 173//2 169//2 172//2 176//2
f 175//71 176//71 183//71
f 171//1 167//1 166//1 170//1
f 171//72 172//72 168//72 167//72
f 173//73 182//73 170//73 169//73
f 178//2 173//2 176//2
f 182//74 173//74 174//74
f 183//1 171//1 170//1 182//1
f 184//1 183//1 182//1
f 177//75 175//75 183//75 184//75
f 174//76 177//76 184//76 182//76
f 179//6 174//6 177//6 180//6
f 204//6 201//6 199//6 205//6
f 201//77 202//77 200//77 199//77
f 189//34 190//34 186//34 185//34
f 191//66 192//66 188//66 187//66
f 196//2 193//2 189//2 192//2
f 190//1 191//1 187//1 186//1
f 207//78 200//78 196//78 195//78
f 188//36 185//36 186//36 187//36
f 192//2 189//2 185//2 188//2
f 193//79 194//79 190//79 189//79
f 198//80 197//80 202//80 201//80
f 197//2 193//2 196//2 200//2
f 199//81 200//81 207//81
f 195//1 191//1 190//1 194//1
f 195//82 196//82 192//82 191//82
f 197//83 206//83 194//83 193//83
f 202//2 197//2 200//2
f 206//84 197//84 198//84
f 207//1 195//1 194//1 206//1
f 208//1 207//1 206//1
f 201//85 199//85 207//85 208//85
f 198//86 201//86 208//86 206//86
f 203//6 198//6 201//6 204//6
f 228//6 225//6 223//6 229//6
f 225//87 226//87 224//87 223//87
f 213//47 214//47 210//47 209//47
f 215//6 216//6 212//6 211//6
f 220//2 217//2 213//2 216//2
f 214//1 215//1 211//1 210//1
f 231//88 224//88 220//88 219//88
f 212//12 209//12 210//12 211//12
f 216//2 213//2 209//2 212//2
f 217//89 218//89 214//89 213//89
f 222//90 221//90 226//90 225//90
f 221//2 217//2 220//2 224//2
f 223//91 224//91 231//91
f 219//1 215//1 214//1 218//1
f 219//92 220//92 216//92 215//92
f 221//93 230//93 218//93 217//93
f 226//2 221//2 224//2
f 230//94 221//94 222//94
f 231//1 219//1 218//1 230//1
f 232//1 231//1 230//1
f 225//95 223//95 231//95 232//95
f 222//96 225//96 232//96 230//96
f 227//6 222//6 225//6 228//6
f 252//6 249//6 247//6 253//6
f 249//97 250//97 248//97 247//97
f 237//66 238//66 234//66 233//66
f 239//34 240//34 236//34 235//34
f 244//2 241//2 237//2 240//2
f 238//1 239//1 235//1 234//1
f 255//98 248//98 244//98 243//98
f 236//35 233//35 234//35 235//35
f 240//2 237//2 233//2 236//2
f 241//99 242//99 238//99 237//99
f 246//100 245//100 250//100 249//100
f 245//2 241//2 244//2 248//2
f 247//101 248//101 255//101
f 243//1 239//1 238//1 242//1
f 243//102 244//102 240//102 239//102
f 245//103 254//103 242//103 241//103
f 250//2 245//2 248//2
f 254//104 245//104 246//104
f 255//1 243//1 242//1 254//1
f 256//1 255//1 254//1
f 249//105 247//105 255//105 256//105
f 246//106 249//106 256//106 254//106
f 251//6 246//6 249//6 252//6
