# Blender v2.78 (sub 0) OBJ File: 'harigata.blend'
# www.blender.org
mtllib harigata.mtl
o harigata_Cylinder
v -0.581117 0.000000 -0.031018
v 0.856535 0.000000 -0.031018
v -0.581117 -0.021933 -0.021933
v 0.856535 -0.021933 -0.021933
v -0.581117 -0.031018 0.000000
v 0.856535 -0.031018 0.000000
v -0.581117 -0.021933 0.021933
v 0.856535 -0.021933 0.021933
v -0.581117 0.000000 0.031018
v 0.856535 0.000000 0.031018
v -0.581117 0.021933 0.021933
v 0.856535 0.021933 0.021933
v -0.581117 0.031018 -0.000000
v 0.856535 0.031018 -0.000000
v -0.581117 0.021933 -0.021933
v 0.856535 0.021933 -0.021933
v -0.884457 0.000000 0.000000
vn 0.0000 -0.3827 -0.9239
vn 0.0000 -0.9239 -0.3827
vn 0.0000 -0.9239 0.3827
vn 0.0000 -0.3827 0.9239
vn 0.0000 0.3827 0.9239
vn 0.0000 0.9239 0.3827
vn 1.0000 -0.0000 0.0000
vn 0.0000 0.9239 -0.3827
vn 0.0000 0.3827 -0.9239
vn -0.0941 -0.3810 0.9198
vn -0.0941 0.9198 -0.3810
vn -0.0941 -0.9198 -0.3810
vn -0.0941 0.3810 0.9198
vn -0.0941 0.3810 -0.9198
vn -0.0941 -0.3810 -0.9198
vn -0.0941 -0.9198 0.3810
vn -0.0941 0.9198 0.3810
usemtl black.012
s off
f 1//1 2//1 4//1 3//1
f 3//2 4//2 6//2 5//2
f 5//3 6//3 8//3 7//3
f 7//4 8//4 10//4 9//4
f 9//5 10//5 12//5 11//5
f 11//6 12//6 14//6 13//6
f 4//7 2//7 16//7 14//7 12//7 10//7 8//7 6//7
f 13//8 14//8 16//8 15//8
f 15//9 16//9 2//9 1//9
f 7//10 9//10 17//10
f 13//11 15//11 17//11
f 3//12 5//12 17//12
f 9//13 11//13 17//13
f 15//14 1//14 17//14
f 1//15 3//15 17//15
f 5//16 7//16 17//16
f 11//17 13//17 17//17
