# Blender v2.78 (sub 0) OBJ File: 'ippo.blend'
# www.blender.org
mtllib ippo.mtl
o ippo_Plane.006
v 0.000000 0.000741 -0.058026
v -0.013091 0.000741 -0.029637
v 0.013091 0.000741 -0.029637
v -0.016153 -0.000000 -0.029116
v 0.000000 -0.000000 -0.064146
v 0.016153 -0.000000 -0.029116
v 0.000000 -0.000741 -0.058026
v 0.000000 -0.000000 -0.064146
v -0.013091 -0.000741 -0.029637
v -0.016153 -0.000000 -0.029116
v 0.016153 -0.000000 -0.029116
v 0.013091 -0.000741 -0.029637
v -0.009675 -0.000741 -0.027546
v -0.009675 0.000741 -0.027546
v 0.009675 0.000741 -0.027546
v 0.009675 -0.000741 -0.027546
v -0.006033 -0.000741 -0.023966
v -0.006033 0.000741 -0.023966
v 0.006033 0.000741 -0.023966
v 0.006033 -0.000741 -0.023966
v -0.006033 -0.000741 -0.009088
v -0.006033 0.000741 -0.009088
v 0.006033 0.000741 -0.009088
v 0.006033 -0.000741 -0.009088
v 0.000000 -0.000862 -0.016729
v -0.006304 -0.000862 -0.015474
v -0.011648 -0.000862 -0.011904
v -0.015219 -0.000862 -0.006559
v -0.016473 -0.000862 -0.000256
v -0.015219 -0.000862 0.006048
v -0.011648 -0.000862 0.011392
v -0.006304 -0.000862 0.014963
v 0.000000 -0.000862 0.016216
v 0.006304 -0.000862 0.014963
v 0.011648 -0.000862 0.011392
v 0.015219 -0.000862 0.006048
v 0.016473 -0.000862 -0.000256
v 0.015219 -0.000862 -0.006559
v 0.011648 -0.000862 -0.011904
v 0.006304 -0.000862 -0.015474
v 0.000000 0.000862 -0.016729
v -0.006304 0.000862 -0.015474
v -0.011648 0.000862 -0.011904
v -0.015219 0.000862 -0.006559
v -0.016473 0.000862 -0.000256
v -0.015219 0.000862 0.006048
v -0.011648 0.000862 0.011392
v -0.006304 0.000862 0.014963
v 0.000000 0.000862 0.016216
v 0.006304 0.000862 0.014963
v 0.011648 0.000862 0.011392
v 0.015219 0.000862 0.006048
v 0.016473 0.000862 -0.000256
v 0.015219 0.000862 -0.006559
v 0.011648 0.000862 -0.011904
v 0.006304 0.000862 -0.015474
v -0.001741 -0.000862 -0.004460
v 0.000000 -0.000862 -0.004806
v -0.003218 -0.000862 -0.003473
v -0.004204 -0.000862 -0.001997
v -0.004550 -0.000862 -0.000256
v -0.004204 -0.000862 0.001485
v -0.003218 -0.000862 0.002962
v -0.001741 -0.000862 0.003948
v 0.000000 -0.000862 0.004294
v 0.001741 -0.000862 0.003948
v 0.003217 -0.000862 0.002962
v 0.004204 -0.000862 0.001485
v 0.004550 -0.000862 -0.000256
v 0.004204 -0.000862 -0.001997
v 0.003217 -0.000862 -0.003473
v 0.001741 -0.000862 -0.004460
v -0.001741 0.000862 -0.004460
v 0.000000 0.000862 -0.004806
v -0.003218 0.000862 -0.003473
v -0.004204 0.000862 -0.001997
v -0.004550 0.000862 -0.000256
v -0.004204 0.000862 0.001485
v -0.003218 0.000862 0.002962
v -0.001741 0.000862 0.003948
v 0.000000 0.000862 0.004294
v 0.001741 0.000862 0.003948
v 0.003217 0.000862 0.002962
v 0.004204 0.000862 0.001485
v 0.004550 0.000862 -0.000256
v 0.004204 0.000862 -0.001997
v 0.003217 0.000862 -0.003473
v 0.001741 0.000862 -0.004460
vn 0.0000 1.0000 0.0000
vn 0.0000 -1.0000 0.0000
vn -0.1678 0.0000 0.9858
vn -0.2523 0.9606 -0.1164
vn 0.2523 0.9606 -0.1164
vn 0.0000 0.0000 1.0000
vn 0.1678 0.0000 0.9858
vn -0.2523 -0.9606 -0.1164
vn 0.2523 -0.9606 -0.1164
vn -0.5221 0.0000 0.8529
vn 0.5221 0.0000 0.8529
vn 1.0000 0.0000 0.0000
vn 0.7010 0.0000 0.7132
vn -0.7010 0.0000 0.7132
vn -1.0000 0.0000 0.0000
vn 0.8315 0.0000 -0.5556
vn -0.5556 0.0000 0.8315
vn 0.5556 0.0000 -0.8315
vn -0.1950 0.0000 0.9808
vn -0.1951 0.0000 -0.9808
vn 0.1951 0.0000 -0.9808
vn 0.1950 0.0000 0.9808
vn -0.5556 0.0000 -0.8315
vn 0.5556 0.0000 0.8315
vn -0.8315 0.0000 -0.5556
vn 0.8315 0.0000 0.5556
vn -0.9808 0.0000 -0.1951
vn 0.9808 0.0000 0.1951
vn -0.9808 0.0000 0.1951
vn 0.9808 0.0000 -0.1951
vn -0.8315 0.0000 0.5556
vn -0.8313 0.0000 0.5559
vn 0.5557 0.0000 -0.8314
vn -0.5558 0.0000 0.8313
vn 0.1948 0.0000 -0.9808
vn 0.1948 0.0000 0.9808
vn -0.1948 0.0000 0.9808
vn -0.1948 0.0000 -0.9808
vn 0.5557 0.0000 0.8314
vn -0.5558 0.0000 -0.8313
vn 0.8314 0.0000 0.5557
vn -0.8314 0.0000 -0.5557
vn 0.9808 0.0000 0.1949
vn -0.9808 0.0000 -0.1950
vn 0.9808 0.0000 -0.1950
vn -0.9808 0.0000 0.1949
vn 0.8315 0.0000 -0.5555
usemtl black.002
s off
f 14//1 18//1 19//1 15//1
f 7//2 12//2 9//2
f 3//3 12//3 11//3
f 8//4 10//4 2//4 1//4
f 11//5 8//5 1//5 3//5
f 2//1 14//1 15//1 3//1
f 5//6 8//6 10//6 4//6
f 6//6 11//6 8//6 5//6
f 1//1 2//1 3//1
f 10//7 9//7 2//7
f 8//8 7//8 9//8 10//8
f 11//9 12//9 7//9 8//9
f 12//2 16//2 13//2 9//2
f 21//6 24//6 23//6 22//6
f 2//10 9//10 13//10 14//10
f 12//11 3//11 15//11 16//11
f 20//12 19//12 23//12 24//12
f 19//1 18//1 22//1 23//1
f 16//13 15//13 19//13 20//13
f 14//14 13//14 17//14 18//14
f 17//2 20//2 24//2 21//2
f 18//15 17//15 21//15 22//15
f 38//16 39//16 55//16 54//16
f 31//17 32//17 48//17 47//17
f 39//18 40//18 56//18 55//18
f 32//19 33//19 49//19 48//19
f 25//20 26//20 42//20 41//20
f 40//21 25//21 41//21 56//21
f 33//22 34//22 50//22 49//22
f 26//23 27//23 43//23 42//23
f 34//24 35//24 51//24 50//24
f 27//25 28//25 44//25 43//25
f 35//26 36//26 52//26 51//26
f 28//27 29//27 45//27 44//27
f 36//28 37//28 53//28 52//28
f 29//29 30//29 46//29 45//29
f 37//30 38//30 54//30 53//30
f 30//31 31//31 47//31 46//31
f 70//32 86//32 87//32 71//32
f 63//33 79//33 80//33 64//33
f 71//34 87//34 88//34 72//34
f 64//35 80//35 81//35 65//35
f 58//36 74//36 73//36 57//36
f 72//37 88//37 74//37 58//37
f 65//38 81//38 82//38 66//38
f 57//39 73//39 75//39 59//39
f 66//40 82//40 83//40 67//40
f 59//41 75//41 76//41 60//41
f 67//42 83//42 84//42 68//42
f 60//43 76//43 77//43 61//43
f 68//44 84//44 85//44 69//44
f 61//45 77//45 78//45 62//45
f 69//46 85//46 86//46 70//46
f 62//47 78//47 79//47 63//47
f 35//2 67//2 68//2 36//2
f 50//1 82//1 81//1 49//1
f 36//2 68//2 69//2 37//2
f 51//1 83//1 82//1 50//1
f 37//2 69//2 70//2 38//2
f 52//1 84//1 83//1 51//1
f 38//2 70//2 71//2 39//2
f 25//2 58//2 57//2 26//2
f 53//1 85//1 84//1 52//1
f 39//2 71//2 72//2 40//2
f 26//2 57//2 59//2 27//2
f 54//1 86//1 85//1 53//1
f 40//2 72//2 58//2 25//2
f 27//2 59//2 60//2 28//2
f 55//1 87//1 86//1 54//1
f 42//1 73//1 74//1 41//1
f 28//2 60//2 61//2 29//2
f 56//1 88//1 87//1 55//1
f 43//1 75//1 73//1 42//1
f 29//2 61//2 62//2 30//2
f 41//1 74//1 88//1 56//1
f 44//1 76//1 75//1 43//1
f 30//2 62//2 63//2 31//2
f 45//1 77//1 76//1 44//1
f 31//2 63//2 64//2 32//2
f 46//1 78//1 77//1 45//1
f 32//2 64//2 65//2 33//2
f 47//1 79//1 78//1 46//1
f 33//2 65//2 66//2 34//2
f 48//1 80//1 79//1 47//1
f 34//2 66//2 67//2 35//2
f 49//1 81//1 80//1 48//1
f 13//2 16//2 20//2 17//2
