# Blender v2.78 (sub 0) OBJ File: 'jippo.blend'
# www.blender.org
mtllib jippo.mtl
o jippo_Plane.007
v 0.000000 0.000714 -0.049751
v -0.005838 0.000714 -0.030378
v 0.005838 0.000714 -0.030378
v -0.007203 0.000000 -0.030022
v 0.000000 0.000000 -0.053928
v 0.007203 0.000000 -0.030022
v 0.000000 -0.000714 -0.049751
v 0.000000 0.000000 -0.053928
v -0.005838 -0.000714 -0.030378
v -0.007203 0.000000 -0.030022
v 0.007203 0.000000 -0.030022
v 0.005838 -0.000714 -0.030378
v -0.004314 -0.000714 -0.028951
v -0.004314 0.000714 -0.028951
v 0.004314 0.000714 -0.028951
v 0.004314 -0.000714 -0.028951
v -0.002690 -0.000714 -0.026507
v -0.002690 0.000714 -0.026507
v 0.002690 0.000714 -0.026507
v 0.002690 -0.000714 -0.026507
v -0.002690 -0.000714 -0.012229
v -0.002690 0.000714 -0.012229
v 0.002690 0.000714 -0.012229
v 0.002690 -0.000714 -0.012229
v 0.000000 -0.000830 -0.015872
v -0.006074 -0.000830 -0.014663
v -0.011223 -0.000830 -0.011223
v -0.014663 -0.000830 -0.006074
v -0.015872 -0.000830 0.000000
v -0.014663 -0.000830 0.006074
v -0.011223 -0.000830 0.011223
v -0.006074 -0.000830 0.014663
v -0.000000 -0.000830 0.015872
v 0.006074 -0.000830 0.014663
v 0.011223 -0.000830 0.011223
v 0.014663 -0.000830 0.006074
v 0.015872 -0.000830 -0.000000
v 0.014663 -0.000830 -0.006074
v 0.011223 -0.000830 -0.011223
v 0.006074 -0.000830 -0.014663
v 0.000000 0.000830 -0.015872
v -0.006074 0.000830 -0.014663
v -0.011223 0.000830 -0.011223
v -0.014663 0.000830 -0.006074
v -0.015872 0.000830 0.000000
v -0.014663 0.000830 0.006074
v -0.011223 0.000830 0.011223
v -0.006074 0.000830 0.014663
v -0.000000 0.000830 0.015872
v 0.006074 0.000830 0.014663
v 0.011223 0.000830 0.011223
v 0.014663 0.000830 0.006074
v 0.015872 0.000830 -0.000000
v 0.014663 0.000830 -0.006074
v 0.011223 0.000830 -0.011223
v 0.006074 0.000830 -0.014663
v -0.001678 -0.000830 -0.004050
v 0.000000 -0.000830 -0.004384
v -0.003100 -0.000830 -0.003100
v -0.004050 -0.000830 -0.001678
v -0.004384 -0.000830 0.000000
v -0.004050 -0.000830 0.001678
v -0.003100 -0.000830 0.003100
v -0.001678 -0.000830 0.004050
v -0.000000 -0.000830 0.004384
v 0.001678 -0.000830 0.004050
v 0.003100 -0.000830 0.003100
v 0.004050 -0.000830 0.001678
v 0.004384 -0.000830 -0.000000
v 0.004050 -0.000830 -0.001678
v 0.003100 -0.000830 -0.003100
v 0.001678 -0.000830 -0.004050
v -0.001678 0.000830 -0.004050
v 0.000000 0.000830 -0.004384
v -0.003100 0.000830 -0.003100
v -0.004050 0.000830 -0.001678
v -0.004384 0.000830 0.000000
v -0.004050 0.000830 0.001678
v -0.003100 0.000830 0.003100
v -0.001678 0.000830 0.004050
v -0.000000 0.000830 0.004384
v 0.001678 0.000830 0.004050
v 0.003100 0.000830 0.003100
v 0.004050 0.000830 0.001678
v 0.004384 0.000830 -0.000000
v 0.004050 0.000830 -0.001678
v 0.003100 0.000830 -0.003100
v 0.001678 0.000830 -0.004050
v -0.047316 0.000714 -0.015374
v -0.030695 0.000714 -0.003835
v -0.027087 0.000714 -0.014939
v -0.030778 0.000000 -0.002427
v -0.051288 0.000000 -0.016665
v -0.026327 0.000000 -0.016128
v -0.047316 -0.000714 -0.015374
v -0.051288 0.000000 -0.016665
v -0.030695 -0.000714 -0.003835
v -0.030778 0.000000 -0.002427
v -0.026327 0.000000 -0.016128
v -0.027087 -0.000714 -0.014939
v -0.028867 -0.000714 -0.004843
v -0.028867 0.000714 -0.004843
v -0.026200 0.000714 -0.013049
v -0.026200 -0.000714 -0.013049
v -0.026041 -0.000714 -0.005632
v -0.026041 0.000714 -0.005632
v -0.024379 0.000714 -0.010750
v -0.024379 -0.000714 -0.010750
v -0.012461 -0.000714 -0.001220
v -0.012461 0.000714 -0.001220
v -0.010799 0.000714 -0.006338
v -0.010799 -0.000714 -0.006338
v -0.012461 -0.000714 0.001220
v -0.012461 0.000714 0.001220
v -0.010799 0.000714 0.006338
v -0.010799 -0.000714 0.006338
v -0.026041 -0.000714 0.005632
v -0.026041 0.000714 0.005632
v -0.024379 0.000714 0.010750
v -0.024379 -0.000714 0.010750
v -0.028867 -0.000714 0.004843
v -0.028867 0.000714 0.004843
v -0.026200 0.000714 0.013049
v -0.026200 -0.000714 0.013049
v -0.030695 -0.000714 0.003835
v -0.030778 0.000000 0.002427
v -0.026327 0.000000 0.016128
v -0.027087 -0.000714 0.014939
v -0.051288 0.000000 0.016665
v -0.047316 -0.000714 0.015374
v -0.030778 0.000000 0.002427
v -0.051288 0.000000 0.016665
v -0.026327 0.000000 0.016128
v -0.030695 0.000714 0.003835
v -0.027087 0.000714 0.014939
v -0.047316 0.000714 0.015374
v -0.029243 0.000714 0.040249
v -0.013133 0.000714 0.028007
v -0.022578 0.000714 0.021145
v -0.011819 0.000000 0.028522
v -0.031698 0.000000 0.043628
v -0.023474 0.000000 0.020054
v -0.029243 -0.000714 0.040249
v -0.031698 0.000000 0.043628
v -0.013133 -0.000714 0.028007
v -0.011819 0.000000 0.028522
v -0.023474 0.000000 0.020054
v -0.022578 -0.000714 0.021145
v -0.013526 -0.000714 0.025957
v -0.013526 0.000714 0.025957
v -0.020507 0.000714 0.020886
v -0.020507 -0.000714 0.020886
v -0.013404 -0.000714 0.023026
v -0.013404 0.000714 0.023026
v -0.017757 0.000714 0.019863
v -0.017757 -0.000714 0.019863
v -0.005011 -0.000714 0.011474
v -0.005011 0.000714 0.011474
v -0.009364 0.000714 0.008312
v -0.009364 -0.000714 0.008312
v -0.002690 -0.000714 0.012229
v -0.002690 0.000714 0.012229
v 0.002690 0.000714 0.012229
v 0.002690 -0.000714 0.012229
v -0.002690 -0.000714 0.026507
v -0.002690 0.000714 0.026507
v 0.002690 0.000714 0.026507
v 0.002690 -0.000714 0.026507
v -0.004314 -0.000714 0.028951
v -0.004314 0.000714 0.028951
v 0.004314 0.000714 0.028951
v 0.004314 -0.000714 0.028951
v -0.005838 -0.000714 0.030378
v -0.007203 0.000000 0.030022
v 0.007203 0.000000 0.030022
v 0.005838 -0.000714 0.030378
v 0.000000 0.000000 0.053928
v 0.000000 -0.000714 0.049751
v -0.007203 0.000000 0.030022
v 0.000000 0.000000 0.053928
v 0.007203 0.000000 0.030022
v -0.005838 0.000714 0.030378
v 0.005838 0.000714 0.030378
v 0.000000 0.000714 0.049751
v 0.029243 0.000714 0.040249
v 0.022578 0.000714 0.021145
v 0.013133 0.000714 0.028007
v 0.023474 0.000000 0.020054
v 0.031698 0.000000 0.043628
v 0.011819 0.000000 0.028522
v 0.029243 -0.000714 0.040249
v 0.031698 0.000000 0.043628
v 0.022578 -0.000714 0.021145
v 0.023474 0.000000 0.020054
v 0.011819 0.000000 0.028522
v 0.013133 -0.000714 0.028007
v 0.020507 -0.000714 0.020886
v 0.020507 0.000714 0.020886
v 0.013526 0.000714 0.025957
v 0.013526 -0.000714 0.025957
v 0.017757 -0.000714 0.019863
v 0.017757 0.000714 0.019863
v 0.013404 0.000714 0.023026
v 0.013404 -0.000714 0.023026
v 0.009364 -0.000714 0.008312
v 0.009364 0.000714 0.008312
v 0.005011 0.000714 0.011474
v 0.005011 -0.000714 0.011474
v 0.010799 -0.000714 0.006338
v 0.010799 0.000714 0.006338
v 0.012461 0.000714 0.001220
v 0.012461 -0.000714 0.001220
v 0.024379 -0.000714 0.010750
v 0.024379 0.000714 0.010750
v 0.026041 0.000714 0.005632
v 0.026041 -0.000714 0.005632
v 0.026200 -0.000714 0.013049
v 0.026200 0.000714 0.013049
v 0.028867 0.000714 0.004843
v 0.028867 -0.000714 0.004843
v 0.027087 -0.000714 0.014939
v 0.026327 0.000000 0.016128
v 0.030778 0.000000 0.002427
v 0.030695 -0.000714 0.003835
v 0.051288 0.000000 0.016665
v 0.047316 -0.000714 0.015374
v 0.026327 0.000000 0.016128
v 0.051288 0.000000 0.016665
v 0.030778 0.000000 0.002427
v 0.027087 0.000714 0.014939
v 0.030695 0.000714 0.003835
v 0.047316 0.000714 0.015374
v 0.047316 0.000714 -0.015374
v 0.027087 0.000714 -0.014939
v 0.030695 0.000714 -0.003835
v 0.026327 0.000000 -0.016128
v 0.051288 0.000000 -0.016665
v 0.030778 0.000000 -0.002427
v 0.047316 -0.000714 -0.015374
v 0.051288 0.000000 -0.016665
v 0.027087 -0.000714 -0.014939
v 0.026327 0.000000 -0.016128
v 0.030778 0.000000 -0.002427
v 0.030695 -0.000714 -0.003835
v 0.026200 -0.000714 -0.013049
v 0.026200 0.000714 -0.013049
v 0.028867 0.000714 -0.004843
v 0.028867 -0.000714 -0.004843
v 0.024379 -0.000714 -0.010750
v 0.024379 0.000714 -0.010750
v 0.026041 0.000714 -0.005632
v 0.026041 -0.000714 -0.005632
v 0.010799 -0.000714 -0.006338
v 0.010799 0.000714 -0.006338
v 0.012461 0.000714 -0.001220
v 0.012461 -0.000714 -0.001220
v 0.009364 -0.000714 -0.008312
v 0.009364 0.000714 -0.008312
v 0.005011 0.000714 -0.011474
v 0.005011 -0.000714 -0.011474
v 0.017757 -0.000714 -0.019863
v 0.017757 0.000714 -0.019863
v 0.013404 0.000714 -0.023026
v 0.013404 -0.000714 -0.023026
v 0.020507 -0.000714 -0.020886
v 0.020507 0.000714 -0.020886
v 0.013526 0.000714 -0.025957
v 0.013526 -0.000714 -0.025957
v 0.022578 -0.000714 -0.021145
v 0.023474 0.000000 -0.020054
v 0.011819 0.000000 -0.028522
v 0.013133 -0.000714 -0.028007
v 0.031698 0.000000 -0.043628
v 0.029243 -0.000714 -0.040249
v 0.023474 0.000000 -0.020054
v 0.031698 0.000000 -0.043628
v 0.011819 0.000000 -0.028522
v 0.022578 0.000714 -0.021145
v 0.013133 0.000714 -0.028007
v 0.029243 0.000714 -0.040249
v -0.029243 0.000714 -0.040249
v -0.022578 0.000714 -0.021145
v -0.013133 0.000714 -0.028007
v -0.023474 0.000000 -0.020054
v -0.031698 0.000000 -0.043628
v -0.011819 0.000000 -0.028522
v -0.029243 -0.000714 -0.040249
v -0.031698 0.000000 -0.043628
v -0.022578 -0.000714 -0.021145
v -0.023474 0.000000 -0.020054
v -0.011819 0.000000 -0.028522
v -0.013133 -0.000714 -0.028007
v -0.020507 -0.000714 -0.020886
v -0.020507 0.000714 -0.020886
v -0.013526 0.000714 -0.025957
v -0.013526 -0.000714 -0.025957
v -0.017757 -0.000714 -0.019863
v -0.017757 0.000714 -0.019863
v -0.013404 0.000714 -0.023026
v -0.013404 -0.000714 -0.023026
v -0.009364 -0.000714 -0.008312
v -0.009364 0.000714 -0.008312
v -0.005011 0.000714 -0.011474
v -0.005011 -0.000714 -0.011474
vn 0.0000 1.0000 0.0000
vn 0.0000 -1.0000 0.0000
vn -0.2521 0.0000 0.9677
vn -0.4882 0.8602 -0.1471
vn 0.4882 0.8602 -0.1471
vn 0.0000 0.0000 1.0000
vn 0.2521 0.0000 0.9677
vn -0.4882 -0.8602 -0.1471
vn 0.4882 -0.8602 -0.1471
vn -0.6837 0.0000 0.7297
vn 0.6837 0.0000 0.7297
vn 1.0000 0.0000 0.0000
vn 0.8328 0.0000 0.5536
vn -0.8328 0.0000 0.5536
vn -1.0000 0.0000 0.0000
vn 0.8315 0.0000 -0.5556
vn -0.5556 0.0000 0.8315
vn 0.5556 0.0000 -0.8315
vn -0.1951 0.0000 0.9808
vn -0.1951 0.0000 -0.9808
vn 0.1951 0.0000 -0.9808
vn 0.1951 0.0000 0.9808
vn -0.5556 0.0000 -0.8315
vn 0.5556 0.0000 0.8315
vn -0.8315 0.0000 -0.5556
vn 0.8315 0.0000 0.5556
vn -0.9808 0.0000 -0.1951
vn 0.9808 0.0000 0.1951
vn -0.9808 0.0000 0.1951
vn 0.9808 0.0000 -0.1951
vn -0.8315 0.0000 0.5556
vn 0.0110 0.8602 -0.5098
vn 0.8425 0.0000 0.5388
vn 0.4827 0.0000 0.8758
vn 0.9982 0.0000 0.0593
vn -0.2908 0.8602 0.4189
vn 0.0110 -0.8602 -0.5098
vn 0.3090 0.0000 -0.9511
vn -0.2908 -0.8602 0.4189
vn -0.3090 0.0000 0.9511
vn 0.9053 0.0000 -0.4248
vn 0.7838 0.0000 -0.6210
vn 0.9511 0.0000 0.3090
vn 0.2691 0.0000 0.9631
vn 0.3090 0.0000 0.9511
vn 0.2691 0.0000 -0.9631
vn 0.7838 0.0000 0.6210
vn -0.2908 0.8602 -0.4189
vn 0.9511 0.0000 -0.3090
vn 0.0110 -0.8602 0.5098
vn 0.9982 0.0000 -0.0593
vn -0.3090 0.0000 -0.9511
vn 0.0110 0.8602 0.5098
vn 0.4827 0.0000 -0.8758
vn 0.8425 0.0000 -0.5388
vn -0.2908 -0.8602 -0.4189
vn 0.9053 0.0000 0.4248
vn 0.3085 0.8602 0.4060
vn 0.3649 0.0000 -0.9311
vn 0.9821 0.0000 -0.1885
vn -0.4814 -0.8602 -0.1680
vn 0.8090 0.0000 0.5878
vn 0.7727 0.0000 -0.6347
vn -0.8090 0.0000 -0.5878
vn -0.4814 0.8602 -0.1680
vn -0.1242 0.0000 -0.9923
vn -0.3484 0.0000 -0.9374
vn 0.3085 -0.8602 0.4060
vn 0.5878 0.0000 -0.8090
vn 0.9991 0.0000 0.0417
vn -0.8328 0.0000 -0.5536
vn 0.0000 0.0000 -1.0000
vn 0.4882 -0.8602 0.1471
vn 0.4882 0.8602 0.1471
vn 0.8328 0.0000 -0.5536
vn 0.2521 0.0000 -0.9677
vn -0.6837 0.0000 -0.7297
vn -0.2521 0.0000 -0.9677
vn -0.4882 -0.8602 0.1471
vn -0.4882 0.8602 0.1471
vn 0.6837 0.0000 -0.7297
vn -0.7727 0.0000 -0.6347
vn -0.3085 -0.8602 0.4060
vn 0.1242 0.0000 -0.9923
vn -0.3085 0.8602 0.4060
vn -0.3649 0.0000 -0.9311
vn -0.9991 0.0000 0.0417
vn 0.3484 0.0000 -0.9374
vn 0.4814 0.8602 -0.1680
vn -0.9821 0.0000 -0.1885
vn 0.4814 -0.8602 -0.1680
vn -0.8090 0.0000 0.5878
vn 0.8090 0.0000 -0.5878
vn -0.5878 0.0000 -0.8090
vn -0.2691 0.0000 -0.9631
vn 0.2908 -0.8602 -0.4189
vn -0.9511 0.0000 -0.3090
vn -0.9982 0.0000 -0.0593
vn -0.7838 0.0000 0.6210
vn -0.4827 0.0000 -0.8758
vn -0.9053 0.0000 0.4248
vn -0.0110 -0.8602 0.5098
vn -0.8425 0.0000 -0.5388
vn 0.2908 0.8602 -0.4189
vn -0.0110 0.8602 0.5098
vn -0.9053 0.0000 -0.4248
vn 0.2908 -0.8602 0.4189
vn 0.2908 0.8602 0.4189
vn -0.9982 0.0000 0.0593
vn -0.7838 0.0000 -0.6210
vn -0.0110 0.8602 -0.5098
vn -0.8425 0.0000 0.5388
vn -0.2691 0.0000 0.9631
vn -0.4827 0.0000 0.8758
vn -0.0110 -0.8602 -0.5098
vn -0.9511 0.0000 0.3090
vn -0.3085 -0.8602 -0.4060
vn -0.9821 0.0000 0.1885
vn -0.5878 0.0000 0.8090
vn 0.3484 0.0000 0.9374
vn 0.4814 -0.8602 0.1680
vn -0.3649 0.0000 0.9311
vn -0.9991 0.0000 -0.0417
vn 0.1242 0.0000 0.9923
vn -0.7727 0.0000 0.6347
vn -0.3085 0.8602 -0.4060
vn 0.4814 0.8602 0.1680
vn 0.3085 0.8602 -0.4060
vn 0.3649 0.0000 0.9311
vn -0.1242 0.0000 0.9923
vn 0.7727 0.0000 0.6347
vn -0.4814 0.8602 0.1680
vn 0.3085 -0.8602 -0.4060
vn -0.4814 -0.8602 0.1680
vn 0.9821 0.0000 0.1885
vn 0.9991 0.0000 -0.0417
vn 0.5878 0.0000 0.8090
vn -0.3484 0.0000 0.9374
usemtl black.011
s off
f 14//1 18//1 19//1 15//1
f 7//2 12//2 9//2
f 3//3 12//3 11//3
f 8//4 10//4 2//4 1//4
f 11//5 8//5 1//5 3//5
f 2//1 14//1 15//1 3//1
f 5//6 8//6 10//6 4//6
f 6//6 11//6 8//6 5//6
f 1//1 2//1 3//1
f 10//7 9//7 2//7
f 8//8 7//8 9//8 10//8
f 11//9 12//9 7//9 8//9
f 12//2 16//2 13//2 9//2
f 21//6 24//6 23//6 22//6
f 2//10 9//10 13//10 14//10
f 12//11 3//11 15//11 16//11
f 20//12 19//12 23//12 24//12
f 19//1 18//1 22//1 23//1
f 16//13 15//13 19//13 20//13
f 14//14 13//14 17//14 18//14
f 17//2 20//2 24//2 21//2
f 18//15 17//15 21//15 22//15
f 38//16 39//16 55//16 54//16
f 31//17 32//17 48//17 47//17
f 39//18 40//18 56//18 55//18
f 32//19 33//19 49//19 48//19
f 25//20 26//20 42//20 41//20
f 40//21 25//21 41//21 56//21
f 33//22 34//22 50//22 49//22
f 26//23 27//23 43//23 42//23
f 34//24 35//24 51//24 50//24
f 27//25 28//25 44//25 43//25
f 35//26 36//26 52//26 51//26
f 28//27 29//27 45//27 44//27
f 36//28 37//28 53//28 52//28
f 29//29 30//29 46//29 45//29
f 37//30 38//30 54//30 53//30
f 30//31 31//31 47//31 46//31
f 70//31 86//31 87//31 71//31
f 63//18 79//18 80//18 64//18
f 71//17 87//17 88//17 72//17
f 64//21 80//21 81//21 65//21
f 58//22 74//22 73//22 57//22
f 72//19 88//19 74//19 58//19
f 65//20 81//20 82//20 66//20
f 57//24 73//24 75//24 59//24
f 66//23 82//23 83//23 67//23
f 59//26 75//26 76//26 60//26
f 67//25 83//25 84//25 68//25
f 60//28 76//28 77//28 61//28
f 68//27 84//27 85//27 69//27
f 61//30 77//30 78//30 62//30
f 69//29 85//29 86//29 70//29
f 62//16 78//16 79//16 63//16
f 35//2 67//2 68//2 36//2
f 50//1 82//1 81//1 49//1
f 36//2 68//2 69//2 37//2
f 51//1 83//1 82//1 50//1
f 37//2 69//2 70//2 38//2
f 52//1 84//1 83//1 51//1
f 38//2 70//2 71//2 39//2
f 25//2 58//2 57//2 26//2
f 53//1 85//1 84//1 52//1
f 39//2 71//2 72//2 40//2
f 26//2 57//2 59//2 27//2
f 54//1 86//1 85//1 53//1
f 40//2 72//2 58//2 25//2
f 27//2 59//2 60//2 28//2
f 55//1 87//1 86//1 54//1
f 42//1 73//1 74//1 41//1
f 28//2 60//2 61//2 29//2
f 56//1 88//1 87//1 55//1
f 43//1 75//1 73//1 42//1
f 29//2 61//2 62//2 30//2
f 41//1 74//1 88//1 56//1
f 44//1 76//1 75//1 43//1
f 30//2 62//2 63//2 31//2
f 45//1 77//1 76//1 44//1
f 31//2 63//2 64//2 32//2
f 46//1 78//1 77//1 45//1
f 32//2 64//2 65//2 33//2
f 47//1 79//1 78//1 46//1
f 33//2 65//2 66//2 34//2
f 48//1 80//1 79//1 47//1
f 34//2 66//2 67//2 35//2
f 49//1 81//1 80//1 48//1
f 13//2 16//2 20//2 17//2
f 99//32 96//32 89//32 91//32
f 91//33 100//33 99//33
f 90//1 102//1 103//1 91//1
f 90//34 97//34 101//34 102//34
f 89//1 90//1 91//1
f 98//35 97//35 90//35
f 101//2 104//2 108//2 105//2
f 96//36 98//36 90//36 89//36
f 102//1 106//1 107//1 103//1
f 99//37 100//37 95//37 96//37
f 108//38 107//38 111//38 112//38
f 95//2 100//2 97//2
f 96//39 95//39 97//39 98//39
f 106//40 105//40 109//40 110//40
f 94//6 99//6 96//6 93//6
f 100//41 91//41 103//41 104//41
f 107//1 106//1 110//1 111//1
f 104//42 103//42 107//42 108//42
f 100//2 104//2 101//2 97//2
f 109//43 112//43 111//43 110//43
f 93//6 96//6 98//6 92//6
f 102//44 101//44 105//44 106//44
f 105//2 108//2 112//2 109//2
f 119//45 120//45 116//45 115//45
f 118//1 119//1 115//1 114//1
f 121//46 122//46 118//46 117//46
f 132//6 129//6 127//6 133//6
f 123//47 124//47 120//47 119//47
f 125//2 121//2 124//2 128//2
f 126//48 129//48 136//48 134//48
f 120//2 117//2 113//2 116//2
f 116//49 113//49 114//49 115//49
f 129//50 130//50 128//50 127//50
f 134//51 125//51 126//51
f 117//52 118//52 114//52 113//52
f 130//2 125//2 128//2
f 129//53 127//53 135//53 136//53
f 124//2 121//2 117//2 120//2
f 125//54 134//54 122//54 121//54
f 135//1 123//1 122//1 134//1
f 127//55 128//55 135//55
f 126//56 125//56 130//56 129//56
f 131//6 126//6 129//6 132//6
f 123//1 119//1 118//1 122//1
f 135//57 128//57 124//57 123//57
f 136//1 135//1 134//1
f 144//58 146//58 138//58 137//58
f 138//1 150//1 151//1 139//1
f 146//59 145//59 138//59
f 150//1 154//1 155//1 151//1
f 138//60 145//60 149//60 150//60
f 147//61 148//61 143//61 144//61
f 154//62 153//62 157//62 158//62
f 137//1 138//1 139//1
f 142//6 147//6 144//6 141//6
f 143//2 148//2 145//2
f 155//1 154//1 158//1 159//1
f 139//63 148//63 147//63
f 156//64 155//64 159//64 160//64
f 153//2 156//2 160//2 157//2
f 147//65 144//65 137//65 139//65
f 148//66 139//66 151//66 152//66
f 152//67 151//67 155//67 156//67
f 148//2 152//2 149//2 145//2
f 144//68 143//68 145//68 146//68
f 149//2 152//2 156//2 153//2
f 157//69 160//69 159//69 158//69
f 141//6 144//6 146//6 140//6
f 150//70 149//70 153//70 154//70
f 168//2 165//2 161//2 164//2
f 169//71 170//71 166//71 165//71
f 173//2 169//2 172//2 176//2
f 164//72 161//72 162//72 163//72
f 180//6 177//6 175//6 181//6
f 177//73 178//73 176//73 175//73
f 177//74 175//74 183//74 184//74
f 171//75 172//75 168//75 167//75
f 172//2 169//2 165//2 168//2
f 165//15 166//15 162//15 161//15
f 183//1 171//1 170//1 182//1
f 166//1 167//1 163//1 162//1
f 182//76 173//76 174//76
f 184//1 183//1 182//1
f 167//12 168//12 164//12 163//12
f 173//77 182//77 170//77 169//77
f 175//78 176//78 183//78
f 174//79 173//79 178//79 177//79
f 178//2 173//2 176//2
f 174//80 177//80 184//80 182//80
f 179//6 174//6 177//6 180//6
f 171//1 167//1 166//1 170//1
f 183//81 176//81 172//81 171//81
f 185//1 186//1 187//1
f 194//82 193//82 186//82
f 195//83 196//83 191//83 192//83
f 190//6 195//6 192//6 189//6
f 198//1 202//1 203//1 199//1
f 191//2 196//2 193//2
f 201//2 204//2 208//2 205//2
f 186//84 193//84 197//84 198//84
f 195//85 192//85 185//85 187//85
f 187//86 196//86 195//86
f 200//87 199//87 203//87 204//87
f 186//1 198//1 199//1 187//1
f 203//1 202//1 206//1 207//1
f 198//88 197//88 201//88 202//88
f 192//89 194//89 186//89 185//89
f 196//90 187//90 199//90 200//90
f 196//2 200//2 197//2 193//2
f 192//91 191//91 193//91 194//91
f 204//92 203//92 207//92 208//92
f 202//93 201//93 205//93 206//93
f 197//2 200//2 204//2 201//2
f 205//94 208//94 207//94 206//94
f 189//6 192//6 194//6 188//6
f 219//95 220//95 216//95 215//95
f 221//2 217//2 220//2 224//2
f 225//96 226//96 224//96 223//96
f 220//2 217//2 213//2 216//2
f 212//97 209//97 210//97 211//97
f 213//40 214//40 210//40 209//40
f 232//1 231//1 230//1
f 228//6 225//6 223//6 229//6
f 215//38 216//38 212//38 211//38
f 214//1 215//1 211//1 210//1
f 223//98 224//98 231//98
f 217//99 218//99 214//99 213//99
f 231//1 219//1 218//1 230//1
f 231//100 224//100 220//100 219//100
f 216//2 213//2 209//2 212//2
f 221//101 230//101 218//101 217//101
f 222//102 221//102 226//102 225//102
f 226//2 221//2 224//2
f 230//103 221//103 222//103
f 225//104 223//104 231//104 232//104
f 222//105 225//105 232//105 230//105
f 227//6 222//6 225//6 228//6
f 219//1 215//1 214//1 218//1
f 234//106 241//106 245//106 246//106
f 243//107 244//107 239//107 240//107
f 239//2 244//2 241//2
f 243//108 240//108 233//108 235//108
f 238//6 243//6 240//6 237//6
f 235//109 244//109 243//109
f 246//110 245//110 249//110 250//110
f 246//1 250//1 251//1 247//1
f 240//111 242//111 234//111 233//111
f 234//1 246//1 247//1 235//1
f 244//2 248//2 245//2 241//2
f 242//112 241//112 234//112
f 248//113 247//113 251//113 252//113
f 237//6 240//6 242//6 236//6
f 233//1 234//1 235//1
f 244//114 235//114 247//114 248//114
f 240//115 239//115 241//115 242//115
f 252//45 251//45 255//45 256//45
f 251//1 250//1 254//1 255//1
f 249//2 252//2 256//2 253//2
f 250//52 249//52 253//52 254//52
f 245//2 248//2 252//2 249//2
f 253//116 256//116 255//116 254//116
f 276//6 273//6 271//6 277//6
f 273//117 274//117 272//117 271//117
f 261//62 262//62 258//62 257//62
f 263//64 264//64 260//64 259//64
f 268//2 265//2 261//2 264//2
f 262//1 263//1 259//1 258//1
f 279//118 272//118 268//118 267//118
f 260//119 257//119 258//119 259//119
f 264//2 261//2 257//2 260//2
f 265//120 266//120 262//120 261//120
f 270//121 269//121 274//121 273//121
f 269//2 265//2 268//2 272//2
f 271//122 272//122 279//122
f 267//1 263//1 262//1 266//1
f 267//123 268//123 264//123 263//123
f 269//124 278//124 266//124 265//124
f 274//2 269//2 272//2
f 278//125 269//125 270//125
f 279//1 267//1 266//1 278//1
f 280//1 279//1 278//1
f 273//126 271//126 279//126 280//126
f 270//127 273//127 280//127 278//127
f 275//6 270//6 273//6 276//6
f 291//128 288//128 281//128 283//128
f 283//129 292//129 291//129
f 282//1 294//1 295//1 283//1
f 282//130 289//130 293//130 294//130
f 281//1 282//1 283//1
f 290//131 289//131 282//131
f 293//2 296//2 300//2 297//2
f 288//132 290//132 282//132 281//132
f 294//1 298//1 299//1 295//1
f 291//133 292//133 287//133 288//133
f 300//93 299//93 303//93 304//93
f 287//2 292//2 289//2
f 288//134 287//134 289//134 290//134
f 298//92 297//92 301//92 302//92
f 286//6 291//6 288//6 285//6
f 292//135 283//135 295//135 296//135
f 299//1 298//1 302//1 303//1
f 296//136 295//136 299//136 300//136
f 292//2 296//2 293//2 289//2
f 301//137 304//137 303//137 302//137
f 285//6 288//6 290//6 284//6
f 294//138 293//138 297//138 298//138
f 297//2 300//2 304//2 301//2
