# Blender v2.78 (sub 0) OBJ File: 'kuho.blend'
# www.blender.org
mtllib kuho.mtl
o kuho_Plane.013
v 0.000000 0.000734 -0.051118
v -0.005997 0.000734 -0.031215
v 0.005997 0.000734 -0.031215
v -0.007400 0.000000 -0.030850
v 0.000000 0.000000 -0.055408
v 0.007400 0.000000 -0.030850
v 0.000000 -0.000734 -0.051118
v 0.000000 0.000000 -0.055408
v -0.005997 -0.000734 -0.031215
v -0.007400 0.000000 -0.030850
v 0.007400 0.000000 -0.030850
v 0.005997 -0.000734 -0.031215
v -0.004432 -0.000734 -0.029749
v -0.004432 0.000734 -0.029749
v 0.004432 0.000734 -0.029749
v 0.004432 -0.000734 -0.029749
v -0.002764 -0.000734 -0.027239
v -0.002764 0.000734 -0.027239
v 0.002764 0.000734 -0.027239
v 0.002764 -0.000734 -0.027239
v -0.002764 -0.000734 -0.012570
v -0.002764 0.000734 -0.012570
v 0.002764 0.000734 -0.012570
v 0.002764 -0.000734 -0.012570
v 0.000000 -0.000853 -0.016313
v -0.006240 -0.000853 -0.015072
v -0.011529 -0.000853 -0.011537
v -0.015064 -0.000853 -0.006247
v -0.016305 -0.000853 -0.000008
v -0.015064 -0.000853 0.006232
v -0.011529 -0.000853 0.011522
v -0.006240 -0.000853 0.015056
v 0.000000 -0.000853 0.016298
v 0.006240 -0.000853 0.015056
v 0.011529 -0.000853 0.011522
v 0.015064 -0.000853 0.006232
v 0.016305 -0.000853 -0.000008
v 0.015064 -0.000853 -0.006247
v 0.011529 -0.000853 -0.011537
v 0.006240 -0.000853 -0.015072
v 0.000000 0.000853 -0.016313
v -0.006240 0.000853 -0.015072
v -0.011529 0.000853 -0.011537
v -0.015064 0.000853 -0.006247
v -0.016305 0.000853 -0.000008
v -0.015064 0.000853 0.006232
v -0.011529 0.000853 0.011522
v -0.006240 0.000853 0.015056
v 0.000000 0.000853 0.016298
v 0.006240 0.000853 0.015056
v 0.011529 0.000853 0.011522
v 0.015064 0.000853 0.006232
v 0.016305 0.000853 -0.000008
v 0.015064 0.000853 -0.006247
v 0.011529 0.000853 -0.011537
v 0.006240 0.000853 -0.015072
v -0.001724 -0.000853 -0.004169
v 0.000000 -0.000853 -0.004512
v -0.003185 -0.000853 -0.003192
v -0.004161 -0.000853 -0.001731
v -0.004504 -0.000853 -0.000008
v -0.004161 -0.000853 0.001716
v -0.003185 -0.000853 0.003177
v -0.001724 -0.000853 0.004154
v 0.000000 -0.000853 0.004496
v 0.001724 -0.000853 0.004154
v 0.003185 -0.000853 0.003177
v 0.004161 -0.000853 0.001716
v 0.004504 -0.000853 -0.000008
v 0.004161 -0.000853 -0.001731
v 0.003185 -0.000853 -0.003192
v 0.001724 -0.000853 -0.004169
v -0.001724 0.000853 -0.004169
v 0.000000 0.000853 -0.004512
v -0.003185 0.000853 -0.003192
v -0.004161 0.000853 -0.001731
v -0.004504 0.000853 -0.000008
v -0.004161 0.000853 0.001716
v -0.003185 0.000853 0.003177
v -0.001724 0.000853 0.004154
v 0.000000 0.000853 0.004496
v 0.001724 0.000853 0.004154
v 0.003185 0.000853 0.003177
v 0.004161 0.000853 0.001716
v 0.004504 0.000853 -0.000008
v 0.004161 0.000853 -0.001731
v 0.003185 0.000853 -0.003192
v 0.001724 0.000853 -0.004169
v 0.032853 0.000734 -0.039160
v 0.015466 0.000734 -0.027769
v 0.024654 0.000734 -0.020059
v 0.014156 0.000000 -0.028390
v 0.035611 0.000000 -0.042447
v 0.025494 0.000000 -0.018877
v 0.032853 -0.000734 -0.039160
v 0.035611 0.000000 -0.042447
v 0.015466 -0.000734 -0.027769
v 0.014156 0.000000 -0.028390
v 0.025494 0.000000 -0.018877
v 0.024654 -0.000734 -0.020059
v 0.015722 -0.000734 -0.025640
v 0.015722 0.000734 -0.025640
v 0.022513 0.000734 -0.019942
v 0.022513 -0.000734 -0.019942
v 0.015387 -0.000734 -0.022645
v 0.015387 0.000734 -0.022645
v 0.019621 0.000734 -0.019091
v 0.019621 -0.000734 -0.019091
v 0.005958 -0.000734 -0.011408
v 0.005958 0.000734 -0.011408
v 0.010192 0.000734 -0.007854
v 0.010192 -0.000734 -0.007854
v 0.050334 0.000734 -0.008883
v 0.029692 0.000734 -0.011333
v 0.031775 0.000734 0.000479
v 0.029088 0.000000 -0.012651
v 0.054559 0.000000 -0.009628
v 0.031658 0.000000 0.001924
v 0.050334 -0.000734 -0.008883
v 0.054559 0.000000 -0.009628
v 0.029692 -0.000734 -0.011333
v 0.029088 0.000000 -0.012651
v 0.031658 0.000000 0.001924
v 0.031775 -0.000734 0.000479
v 0.028520 -0.000734 -0.009537
v 0.028520 0.000734 -0.009537
v 0.030059 0.000734 -0.000807
v 0.030059 -0.000734 -0.000807
v 0.026338 -0.000734 -0.007458
v 0.026338 0.000734 -0.007458
v 0.027298 0.000734 -0.002014
v 0.027298 -0.000734 -0.002014
v 0.011892 -0.000734 -0.004911
v 0.011892 0.000734 -0.004911
v 0.012852 0.000734 0.000533
v 0.012852 -0.000734 0.000533
v 0.044263 0.000734 0.025547
v 0.030025 0.000734 0.010403
v 0.024028 0.000734 0.020790
v 0.030410 0.000000 0.009005
v 0.047978 0.000000 0.027693
v 0.023010 0.000000 0.021822
v 0.044263 -0.000734 0.025547
v 0.047978 0.000000 0.027693
v 0.030025 -0.000734 0.010403
v 0.030410 0.000000 0.009005
v 0.023010 0.000000 0.021822
v 0.024028 -0.000734 0.020790
v 0.027973 -0.000734 0.011025
v 0.027973 0.000734 0.011025
v 0.023541 0.000734 0.018702
v 0.023541 -0.000734 0.018702
v 0.024965 -0.000734 0.011215
v 0.024965 0.000734 0.011215
v 0.022201 0.000734 0.016002
v 0.022201 -0.000734 0.016002
v 0.012261 -0.000734 0.003880
v 0.012261 0.000734 0.003880
v 0.009498 0.000734 0.008667
v 0.009498 -0.000734 0.008667
v 0.017481 0.000734 0.048020
v 0.016309 0.000734 0.027267
v 0.005038 0.000734 0.031369
v 0.017502 0.000000 0.026444
v 0.018948 0.000000 0.052052
v 0.003595 0.000000 0.031505
v 0.017481 -0.000734 0.048020
v 0.018948 0.000000 0.052052
v 0.016309 -0.000734 0.027267
v 0.017502 0.000000 0.026444
v 0.003595 0.000000 0.031505
v 0.005038 -0.000734 0.031369
v 0.014337 -0.000734 0.026424
v 0.014337 0.000734 0.026424
v 0.006007 0.000734 0.029456
v 0.006007 -0.000734 0.029456
v 0.011911 -0.000734 0.024636
v 0.011911 0.000734 0.024636
v 0.006716 0.000734 0.026527
v 0.006716 -0.000734 0.026527
v 0.006894 -0.000734 0.010852
v 0.006894 0.000734 0.010852
v 0.001699 0.000734 0.012743
v 0.001699 -0.000734 0.012743
v -0.017481 0.000734 0.048020
v -0.005038 0.000734 0.031369
v -0.016309 0.000734 0.027267
v -0.003595 0.000000 0.031505
v -0.018948 0.000000 0.052052
v -0.017502 0.000000 0.026444
v -0.017481 -0.000734 0.048020
v -0.018948 0.000000 0.052052
v -0.005038 -0.000734 0.031369
v -0.003595 0.000000 0.031505
v -0.017502 0.000000 0.026444
v -0.016309 -0.000734 0.027267
v -0.006007 -0.000734 0.029456
v -0.006007 0.000734 0.029456
v -0.014337 0.000734 0.026424
v -0.014337 -0.000734 0.026424
v -0.006716 -0.000734 0.026527
v -0.006716 0.000734 0.026527
v -0.011911 0.000734 0.024636
v -0.011911 -0.000734 0.024636
v -0.001699 -0.000734 0.012743
v -0.001699 0.000734 0.012743
v -0.006894 0.000734 0.010852
v -0.006894 -0.000734 0.010852
v -0.044263 0.000734 0.025547
v -0.024028 0.000734 0.020790
v -0.030025 0.000734 0.010403
v -0.023010 0.000000 0.021822
v -0.047978 0.000000 0.027693
v -0.030410 0.000000 0.009005
v -0.044263 -0.000734 0.025547
v -0.047978 0.000000 0.027693
v -0.024028 -0.000734 0.020790
v -0.023010 0.000000 0.021822
v -0.030410 0.000000 0.009005
v -0.030025 -0.000734 0.010403
v -0.023541 -0.000734 0.018702
v -0.023541 0.000734 0.018702
v -0.027973 0.000734 0.011025
v -0.027973 -0.000734 0.011025
v -0.022201 -0.000734 0.016002
v -0.022201 0.000734 0.016002
v -0.024965 0.000734 0.011215
v -0.024965 -0.000734 0.011215
v -0.009498 -0.000734 0.008667
v -0.009498 0.000734 0.008667
v -0.012261 0.000734 0.003880
v -0.012261 -0.000734 0.003880
v -0.050334 0.000734 -0.008883
v -0.031775 0.000734 0.000479
v -0.029692 0.000734 -0.011333
v -0.031658 0.000000 0.001924
v -0.054559 0.000000 -0.009628
v -0.029088 0.000000 -0.012651
v -0.050334 -0.000734 -0.008883
v -0.054559 0.000000 -0.009628
v -0.031775 -0.000734 0.000479
v -0.031658 0.000000 0.001924
v -0.029088 0.000000 -0.012651
v -0.029692 -0.000734 -0.011333
v -0.030059 -0.000734 -0.000807
v -0.030059 0.000734 -0.000807
v -0.028520 0.000734 -0.009537
v -0.028520 -0.000734 -0.009537
v -0.027298 -0.000734 -0.002014
v -0.027298 0.000734 -0.002014
v -0.026338 0.000734 -0.007458
v -0.026338 -0.000734 -0.007458
v -0.012852 -0.000734 0.000533
v -0.012852 0.000734 0.000533
v -0.011892 0.000734 -0.004911
v -0.011892 -0.000734 -0.004911
v -0.032853 0.000734 -0.039160
v -0.024654 0.000734 -0.020059
v -0.015466 0.000734 -0.027769
v -0.025494 0.000000 -0.018877
v -0.035611 0.000000 -0.042447
v -0.014156 0.000000 -0.028390
v -0.032853 -0.000734 -0.039160
v -0.035611 0.000000 -0.042447
v -0.024654 -0.000734 -0.020059
v -0.025494 0.000000 -0.018877
v -0.014156 0.000000 -0.028390
v -0.015466 -0.000734 -0.027769
v -0.022513 -0.000734 -0.019942
v -0.022513 0.000734 -0.019942
v -0.015722 0.000734 -0.025640
v -0.015722 -0.000734 -0.025640
v -0.019621 -0.000734 -0.019091
v -0.019621 0.000734 -0.019091
v -0.015387 0.000734 -0.022645
v -0.015387 -0.000734 -0.022645
v -0.010192 -0.000734 -0.007854
v -0.010192 0.000734 -0.007854
v -0.005958 0.000734 -0.011408
v -0.005958 -0.000734 -0.011408
vn 0.0000 1.0000 -0.0000
vn 0.0000 -1.0000 0.0000
vn -0.2520 0.0000 0.9677
vn -0.4882 0.8602 -0.1471
vn 0.4882 0.8602 -0.1471
vn 0.0000 0.0000 1.0000
vn 0.2520 0.0000 0.9677
vn -0.4882 -0.8602 -0.1471
vn 0.4882 -0.8602 -0.1471
vn -0.6837 0.0000 0.7297
vn 0.6837 0.0000 0.7297
vn 1.0000 0.0000 0.0000
vn 0.8328 0.0000 0.5536
vn -0.8328 0.0000 0.5536
vn -1.0000 0.0000 0.0000
vn 0.8315 0.0000 -0.5556
vn -0.5556 0.0000 0.8315
vn 0.5556 0.0000 -0.8315
vn -0.1951 0.0000 0.9808
vn -0.1951 0.0000 -0.9808
vn 0.1951 0.0000 -0.9808
vn 0.1951 0.0000 0.9808
vn -0.5556 0.0000 -0.8315
vn 0.5556 0.0000 0.8315
vn -0.8315 0.0000 -0.5556
vn 0.8315 0.0000 0.5556
vn -0.9808 0.0000 -0.1951
vn 0.9808 0.0000 0.1951
vn -0.9808 0.0000 0.1951
vn 0.9808 0.0000 -0.1951
vn -0.8315 0.0000 0.5556
vn -0.8151 0.0000 0.5793
vn -0.2794 0.8602 -0.4265
vn 0.4686 0.8602 0.2011
vn -0.4289 0.0000 0.9033
vn -0.2794 -0.8602 -0.4265
vn 0.4686 -0.8602 0.2011
vn -0.6428 0.0000 0.7660
vn -0.9928 0.0000 0.1195
vn 0.0547 0.0000 0.9985
vn 0.7660 0.0000 0.6428
vn 0.2821 0.0000 0.9594
vn -0.9938 0.0000 -0.1113
vn -0.7660 0.0000 -0.6428
vn -0.9968 0.0000 -0.0802
vn 0.0601 0.8602 -0.5063
vn 0.2296 0.8602 0.4553
vn -0.9092 0.0000 0.4163
vn 0.0601 -0.8602 -0.5063
vn 0.2296 -0.8602 0.4553
vn -0.9848 0.0000 0.1736
vn -0.8374 0.0000 -0.5466
vn -0.5999 0.0000 0.8001
vn 0.1736 0.0000 0.9848
vn -0.4005 0.0000 0.9163
vn -0.6898 0.0000 -0.7240
vn -0.1736 0.0000 -0.9848
vn -0.7120 0.0000 -0.7021
vn 0.3715 0.8602 -0.3493
vn -0.1167 0.8602 0.4964
vn -0.9641 0.0000 -0.2656
vn 0.3715 -0.8602 -0.3493
vn -0.1167 -0.8602 0.4964
vn -0.8660 0.0000 -0.5000
vn -0.2901 0.0000 -0.9570
vn -0.9738 0.0000 0.2273
vn -0.5000 0.0000 0.8660
vn -0.8958 0.0000 0.4444
vn -0.0630 0.0000 -0.9980
vn 0.5000 0.0000 -0.8660
vn -0.0941 0.0000 -0.9956
vn 0.5091 0.8602 -0.0287
vn -0.4085 0.8602 0.3052
vn -0.5678 0.0000 -0.8232
vn 0.5091 -0.8602 -0.0287
vn -0.4085 -0.8602 0.3052
vn -0.3420 0.0000 -0.9397
vn 0.3929 0.0000 -0.9196
vn -0.8921 0.0000 -0.4519
vn -0.9397 0.0000 0.3420
vn -0.9719 0.0000 -0.2354
vn 0.5932 0.0000 -0.8050
vn 0.9397 0.0000 -0.3420
vn 0.5678 0.0000 -0.8231
vn 0.4085 0.8602 0.3052
vn -0.5091 0.8602 -0.0287
vn 0.0941 0.0000 -0.9956
vn 0.4085 -0.8602 0.3052
vn -0.5091 -0.8602 -0.0287
vn 0.3420 0.0000 -0.9397
vn 0.8921 0.0000 -0.4519
vn -0.3929 0.0000 -0.9196
vn -0.9397 0.0000 -0.3420
vn -0.5932 0.0000 -0.8050
vn 0.9719 0.0000 -0.2353
vn 0.9397 0.0000 0.3420
vn 0.9641 0.0000 -0.2656
vn 0.1167 0.8602 0.4964
vn -0.3715 0.8602 -0.3493
vn 0.7120 0.0000 -0.7021
vn 0.1167 -0.8602 0.4964
vn -0.3715 -0.8602 -0.3493
vn 0.8660 0.0000 -0.5000
vn 0.9738 0.0000 0.2273
vn 0.2901 0.0000 -0.9570
vn -0.5000 0.0000 -0.8660
vn 0.0630 0.0000 -0.9980
vn 0.8958 0.0000 0.4444
vn 0.5000 0.0000 0.8660
vn 0.9092 0.0000 0.4163
vn -0.2296 0.8602 0.4553
vn -0.0601 0.8602 -0.5063
vn 0.9968 0.0000 -0.0802
vn -0.2296 -0.8602 0.4553
vn -0.0601 -0.8602 -0.5063
vn 0.9848 0.0000 0.1736
vn 0.5999 0.0000 0.8001
vn 0.8374 0.0000 -0.5466
vn 0.1736 0.0000 -0.9848
vn 0.6898 0.0000 -0.7240
vn 0.4005 0.0000 0.9163
vn -0.1736 0.0000 0.9848
vn 0.4289 0.0000 0.9033
vn -0.4686 0.8602 0.2011
vn 0.2794 0.8602 -0.4265
vn 0.8151 0.0000 0.5793
vn -0.4686 -0.8602 0.2011
vn 0.2794 -0.8602 -0.4265
vn 0.6428 0.0000 0.7660
vn -0.0547 0.0000 0.9985
vn 0.9928 0.0000 0.1195
vn 0.7660 0.0000 -0.6428
vn 0.9938 0.0000 -0.1113
vn -0.2821 0.0000 0.9594
vn -0.7660 0.0000 0.6428
usemtl black.010
s off
f 14//1 18//1 19//1 15//1
f 7//2 12//2 9//2
f 3//3 12//3 11//3
f 8//4 10//4 2//4 1//4
f 11//5 8//5 1//5 3//5
f 2//1 14//1 15//1 3//1
f 5//6 8//6 10//6 4//6
f 6//6 11//6 8//6 5//6
f 1//1 2//1 3//1
f 10//7 9//7 2//7
f 8//8 7//8 9//8 10//8
f 11//9 12//9 7//9 8//9
f 12//2 16//2 13//2 9//2
f 21//6 24//6 23//6 22//6
f 2//10 9//10 13//10 14//10
f 12//11 3//11 15//11 16//11
f 20//12 19//12 23//12 24//12
f 19//1 18//1 22//1 23//1
f 16//13 15//13 19//13 20//13
f 14//14 13//14 17//14 18//14
f 17//2 20//2 24//2 21//2
f 18//15 17//15 21//15 22//15
f 38//16 39//16 55//16 54//16
f 31//17 32//17 48//17 47//17
f 39//18 40//18 56//18 55//18
f 32//19 33//19 49//19 48//19
f 25//20 26//20 42//20 41//20
f 40//21 25//21 41//21 56//21
f 33//22 34//22 50//22 49//22
f 26//23 27//23 43//23 42//23
f 34//24 35//24 51//24 50//24
f 27//25 28//25 44//25 43//25
f 35//26 36//26 52//26 51//26
f 28//27 29//27 45//27 44//27
f 36//28 37//28 53//28 52//28
f 29//29 30//29 46//29 45//29
f 37//30 38//30 54//30 53//30
f 30//31 31//31 47//31 46//31
f 70//31 86//31 87//31 71//31
f 63//18 79//18 80//18 64//18
f 71//17 87//17 88//17 72//17
f 64//21 80//21 81//21 65//21
f 58//22 74//22 73//22 57//22
f 72//19 88//19 74//19 58//19
f 65//20 81//20 82//20 66//20
f 57//24 73//24 75//24 59//24
f 66//23 82//23 83//23 67//23
f 59//26 75//26 76//26 60//26
f 67//25 83//25 84//25 68//25
f 60//28 76//28 77//28 61//28
f 68//27 84//27 85//27 69//27
f 61//30 77//30 78//30 62//30
f 69//29 85//29 86//29 70//29
f 62//16 78//16 79//16 63//16
f 35//2 67//2 68//2 36//2
f 50//1 82//1 81//1 49//1
f 36//2 68//2 69//2 37//2
f 51//1 83//1 82//1 50//1
f 37//2 69//2 70//2 38//2
f 52//1 84//1 83//1 51//1
f 38//2 70//2 71//2 39//2
f 25//2 58//2 57//2 26//2
f 53//1 85//1 84//1 52//1
f 39//2 71//2 72//2 40//2
f 26//2 57//2 59//2 27//2
f 54//1 86//1 85//1 53//1
f 40//2 72//2 58//2 25//2
f 27//2 59//2 60//2 28//2
f 55//1 87//1 86//1 54//1
f 42//1 73//1 74//1 41//1
f 28//2 60//2 61//2 29//2
f 56//1 88//1 87//1 55//1
f 43//1 75//1 73//1 42//1
f 29//2 61//2 62//2 30//2
f 41//1 74//1 88//1 56//1
f 44//1 76//1 75//1 43//1
f 30//2 62//2 63//2 31//2
f 45//1 77//1 76//1 44//1
f 31//2 63//2 64//2 32//2
f 46//1 78//1 77//1 45//1
f 32//2 64//2 65//2 33//2
f 47//1 79//1 78//1 46//1
f 33//2 65//2 66//2 34//2
f 48//1 80//1 79//1 47//1
f 34//2 66//2 67//2 35//2
f 49//1 81//1 80//1 48//1
f 13//2 16//2 20//2 17//2
f 102//1 106//1 107//1 103//1
f 95//2 100//2 97//2
f 91//32 100//32 99//32
f 96//33 98//33 90//33 89//33
f 99//34 96//34 89//34 91//34
f 90//1 102//1 103//1 91//1
f 93//6 96//6 98//6 92//6
f 94//6 99//6 96//6 93//6
f 89//1 90//1 91//1
f 98//35 97//35 90//35
f 96//36 95//36 97//36 98//36
f 99//37 100//37 95//37 96//37
f 100//2 104//2 101//2 97//2
f 109//38 112//38 111//38 110//38
f 90//39 97//39 101//39 102//39
f 100//40 91//40 103//40 104//40
f 108//41 107//41 111//41 112//41
f 107//1 106//1 110//1 111//1
f 104//42 103//42 107//42 108//42
f 102//43 101//43 105//43 106//43
f 105//2 108//2 112//2 109//2
f 106//44 105//44 109//44 110//44
f 101//2 104//2 108//2 105//2
f 126//1 130//1 131//1 127//1
f 119//2 124//2 121//2
f 115//45 124//45 123//45
f 120//46 122//46 114//46 113//46
f 123//47 120//47 113//47 115//47
f 114//1 126//1 127//1 115//1
f 117//6 120//6 122//6 116//6
f 118//6 123//6 120//6 117//6
f 113//1 114//1 115//1
f 122//48 121//48 114//48
f 120//49 119//49 121//49 122//49
f 123//50 124//50 119//50 120//50
f 124//2 128//2 125//2 121//2
f 133//51 136//51 135//51 134//51
f 114//52 121//52 125//52 126//52
f 124//53 115//53 127//53 128//53
f 132//54 131//54 135//54 136//54
f 131//1 130//1 134//1 135//1
f 128//55 127//55 131//55 132//55
f 126//56 125//56 129//56 130//56
f 129//2 132//2 136//2 133//2
f 130//57 129//57 133//57 134//57
f 125//2 128//2 132//2 129//2
f 150//1 154//1 155//1 151//1
f 143//2 148//2 145//2
f 139//58 148//58 147//58
f 144//59 146//59 138//59 137//59
f 147//60 144//60 137//60 139//60
f 138//1 150//1 151//1 139//1
f 141//6 144//6 146//6 140//6
f 142//6 147//6 144//6 141//6
f 137//1 138//1 139//1
f 146//61 145//61 138//61
f 144//62 143//62 145//62 146//62
f 147//63 148//63 143//63 144//63
f 148//2 152//2 149//2 145//2
f 157//64 160//64 159//64 158//64
f 138//65 145//65 149//65 150//65
f 148//66 139//66 151//66 152//66
f 156//67 155//67 159//67 160//67
f 155//1 154//1 158//1 159//1
f 152//68 151//68 155//68 156//68
f 150//69 149//69 153//69 154//69
f 153//2 156//2 160//2 157//2
f 154//70 153//70 157//70 158//70
f 149//2 152//2 156//2 153//2
f 174//1 178//1 179//1 175//1
f 167//2 172//2 169//2
f 163//71 172//71 171//71
f 168//72 170//72 162//72 161//72
f 171//73 168//73 161//73 163//73
f 162//1 174//1 175//1 163//1
f 165//6 168//6 170//6 164//6
f 166//6 171//6 168//6 165//6
f 161//1 162//1 163//1
f 170//74 169//74 162//74
f 168//75 167//75 169//75 170//75
f 171//76 172//76 167//76 168//76
f 172//2 176//2 173//2 169//2
f 181//77 184//77 183//77 182//77
f 162//78 169//78 173//78 174//78
f 172//79 163//79 175//79 176//79
f 180//80 179//80 183//80 184//80
f 179//1 178//1 182//1 183//1
f 176//81 175//81 179//81 180//81
f 174//82 173//82 177//82 178//82
f 177//2 180//2 184//2 181//2
f 178//83 177//83 181//83 182//83
f 173//2 176//2 180//2 177//2
f 198//1 202//1 203//1 199//1
f 191//2 196//2 193//2
f 187//84 196//84 195//84
f 192//85 194//85 186//85 185//85
f 195//86 192//86 185//86 187//86
f 186//1 198//1 199//1 187//1
f 189//6 192//6 194//6 188//6
f 190//6 195//6 192//6 189//6
f 185//1 186//1 187//1
f 194//87 193//87 186//87
f 192//88 191//88 193//88 194//88
f 195//89 196//89 191//89 192//89
f 196//2 200//2 197//2 193//2
f 205//90 208//90 207//90 206//90
f 186//91 193//91 197//91 198//91
f 196//92 187//92 199//92 200//92
f 204//93 203//93 207//93 208//93
f 203//1 202//1 206//1 207//1
f 200//94 199//94 203//94 204//94
f 198//95 197//95 201//95 202//95
f 201//2 204//2 208//2 205//2
f 202//96 201//96 205//96 206//96
f 197//2 200//2 204//2 201//2
f 222//1 226//1 227//1 223//1
f 215//2 220//2 217//2
f 211//97 220//97 219//97
f 216//98 218//98 210//98 209//98
f 219//99 216//99 209//99 211//99
f 210//1 222//1 223//1 211//1
f 213//6 216//6 218//6 212//6
f 214//6 219//6 216//6 213//6
f 209//1 210//1 211//1
f 218//100 217//100 210//100
f 216//101 215//101 217//101 218//101
f 219//102 220//102 215//102 216//102
f 220//2 224//2 221//2 217//2
f 229//103 232//103 231//103 230//103
f 210//104 217//104 221//104 222//104
f 220//105 211//105 223//105 224//105
f 228//106 227//106 231//106 232//106
f 227//1 226//1 230//1 231//1
f 224//107 223//107 227//107 228//107
f 222//108 221//108 225//108 226//108
f 225//2 228//2 232//2 229//2
f 226//109 225//109 229//109 230//109
f 221//2 224//2 228//2 225//2
f 246//1 250//1 251//1 247//1
f 239//2 244//2 241//2
f 235//110 244//110 243//110
f 240//111 242//111 234//111 233//111
f 243//112 240//112 233//112 235//112
f 234//1 246//1 247//1 235//1
f 237//6 240//6 242//6 236//6
f 238//6 243//6 240//6 237//6
f 233//1 234//1 235//1
f 242//113 241//113 234//113
f 240//114 239//114 241//114 242//114
f 243//115 244//115 239//115 240//115
f 244//2 248//2 245//2 241//2
f 253//116 256//116 255//116 254//116
f 234//117 241//117 245//117 246//117
f 244//118 235//118 247//118 248//118
f 252//119 251//119 255//119 256//119
f 251//1 250//1 254//1 255//1
f 248//120 247//120 251//120 252//120
f 246//121 245//121 249//121 250//121
f 249//2 252//2 256//2 253//2
f 250//122 249//122 253//122 254//122
f 245//2 248//2 252//2 249//2
f 270//1 274//1 275//1 271//1
f 263//2 268//2 265//2
f 259//123 268//123 267//123
f 264//124 266//124 258//124 257//124
f 267//125 264//125 257//125 259//125
f 258//1 270//1 271//1 259//1
f 261//6 264//6 266//6 260//6
f 262//6 267//6 264//6 261//6
f 257//1 258//1 259//1
f 266//126 265//126 258//126
f 264//127 263//127 265//127 266//127
f 267//128 268//128 263//128 264//128
f 268//2 272//2 269//2 265//2
f 277//129 280//129 279//129 278//129
f 258//130 265//130 269//130 270//130
f 268//131 259//131 271//131 272//131
f 276//132 275//132 279//132 280//132
f 275//1 274//1 278//1 279//1
f 272//133 271//133 275//133 276//133
f 270//134 269//134 273//134 274//134
f 273//2 276//2 280//2 277//2
f 274//135 273//135 277//135 278//135
f 269//2 272//2 276//2 273//2
