# Blender v2.78 (sub 0) OBJ File: 'kunai-gata-03.blend'
# www.blender.org
mtllib kunai-gata-03.mtl
o kunai-3_Cube.003
v 0.001752 0.004229 0.016728
v 0.004229 0.001752 0.016728
v 0.004229 -0.001752 0.016728
v 0.001752 -0.004229 0.016728
v -0.001752 -0.004229 0.016728
v -0.004229 -0.001752 0.016728
v -0.004229 0.001752 0.016728
v -0.001752 0.004229 0.016728
v 0.000190 0.008008 0.039966
v -0.000190 0.008008 0.039966
v -0.000189 0.008022 0.040377
v 0.000189 0.008022 0.040377
v 0.000164 0.001547 0.018588
v -0.000164 0.001547 0.018588
v -0.000165 0.000074 0.099709
v -0.000165 -0.000074 0.099709
v 0.000165 -0.000074 0.099709
v 0.000165 0.000074 0.099709
v 0.014372 0.000074 0.040350
v 0.014372 -0.000074 0.040350
v 0.014333 -0.000079 0.039993
v 0.014333 0.000079 0.039993
v 0.003607 -0.000080 0.019148
v 0.003607 0.000080 0.019148
v -0.014372 0.000074 0.040350
v -0.014333 0.000079 0.039993
v -0.014333 -0.000079 0.039993
v -0.014372 -0.000074 0.040350
v 0.000189 -0.008022 0.040377
v -0.000189 -0.008022 0.040377
v -0.000190 -0.008008 0.039966
v 0.000190 -0.008008 0.039966
v -0.000164 -0.001547 0.018588
v 0.000164 -0.001547 0.018588
v -0.003607 0.000080 0.019148
v -0.003607 -0.000080 0.019148
v 0.001752 0.004229 -0.016728
v 0.004229 0.001752 -0.016728
v 0.004229 -0.001752 -0.016728
v 0.001752 -0.004229 -0.016728
v -0.001752 -0.004229 -0.016728
v -0.004229 -0.001752 -0.016728
v -0.004229 0.001752 -0.016728
v -0.001752 0.004229 -0.016728
v 0.000190 0.008008 -0.039966
v -0.000190 0.008008 -0.039966
v -0.000189 0.008022 -0.040377
v 0.000189 0.008022 -0.040377
v 0.000164 0.001547 -0.018588
v -0.000164 0.001547 -0.018588
v -0.000165 0.000074 -0.099709
v -0.000165 -0.000074 -0.099709
v 0.000165 -0.000074 -0.099709
v 0.000165 0.000074 -0.099709
v -0.001918 0.004631 0.016728
v -0.004631 0.001918 0.016728
v 0.014372 0.000074 -0.040350
v 0.014372 -0.000074 -0.040350
v 0.014333 -0.000079 -0.039993
v 0.014333 0.000079 -0.039993
v 0.003607 -0.000080 -0.019148
v 0.003607 0.000080 -0.019148
v -0.004631 -0.001918 0.016728
v -0.001918 -0.004631 0.016728
v -0.014372 0.000074 -0.040350
v -0.014333 0.000079 -0.039993
v -0.014333 -0.000079 -0.039993
v -0.014372 -0.000074 -0.040350
v 0.000189 -0.008022 -0.040377
v -0.000189 -0.008022 -0.040377
v -0.000190 -0.008008 -0.039966
v 0.000190 -0.008008 -0.039966
v -0.000164 -0.001547 -0.018588
v 0.000164 -0.001547 -0.018588
v -0.003607 0.000080 -0.019148
v -0.003607 -0.000080 -0.019148
v 0.001918 -0.004631 0.016728
v 0.004631 -0.001918 0.016728
v 0.004631 0.001918 0.016728
v 0.001918 0.004631 0.016728
v 0.001918 0.004631 -0.016728
v 0.004631 0.001918 -0.016728
v 0.004631 -0.001918 -0.016728
v 0.001918 -0.004631 -0.016728
v -0.001918 -0.004631 -0.016728
v -0.004631 -0.001918 -0.016728
v -0.004631 0.001918 -0.016728
v -0.001918 0.004631 -0.016728
v -0.001918 0.004631 0.019544
v -0.004631 0.001918 0.019544
v -0.004631 -0.001918 0.019544
v -0.001918 -0.004631 0.019544
v 0.001918 -0.004631 0.019544
v 0.004631 -0.001918 0.019544
v 0.004631 0.001918 0.019544
v 0.001918 0.004631 0.019544
v 0.001918 0.004631 -0.019544
v 0.004631 0.001918 -0.019544
v 0.004631 -0.001918 -0.019544
v 0.001918 -0.004631 -0.019544
v -0.001918 -0.004631 -0.019544
v -0.004631 -0.001918 -0.019544
v -0.004631 0.001918 -0.019544
v -0.001918 0.004631 -0.019544
v -0.000000 0.000000 0.019544
v -0.000000 -0.000000 -0.019544
vn 0.4858 0.8663 0.1163
vn -0.4629 0.8510 -0.2481
vn -0.4858 0.8663 0.1163
vn -0.4858 -0.8663 0.1163
vn -0.4629 -0.8510 -0.2481
vn 0.4629 -0.8510 -0.2481
vn 0.4858 -0.8663 0.1163
vn 0.0000 0.9994 -0.0356
vn 0.0000 0.0000 1.0000
vn 0.9941 0.0000 -0.1082
vn -0.9941 0.0000 -0.1082
vn 0.0000 -0.9994 -0.0356
vn 0.4886 0.8718 -0.0349
vn 0.0000 0.9911 0.1328
vn 0.8892 0.0000 -0.4576
vn 0.0000 0.9572 -0.2893
vn -0.4886 0.8718 -0.0349
vn -0.8892 0.0000 -0.4576
vn 0.4886 -0.8718 -0.0349
vn 0.0000 -0.9572 -0.2893
vn -0.4886 -0.8718 -0.0349
vn 0.9725 0.0000 0.2328
vn -0.9725 0.0000 0.2328
vn -0.0000 -0.9911 0.1328
vn 0.4629 0.8510 -0.2481
vn 0.4858 0.8663 -0.1163
vn -0.4629 0.8510 0.2481
vn -0.4858 0.8663 -0.1163
vn -0.4858 -0.8663 -0.1163
vn -0.4629 -0.8510 0.2481
vn 0.4629 -0.8510 0.2481
vn 0.4858 -0.8663 -0.1163
vn 0.0000 0.9994 0.0356
vn 0.0000 0.0000 -1.0000
vn 0.9941 0.0000 0.1082
vn -0.9941 0.0000 0.1082
vn 0.0000 -0.9994 0.0356
vn 0.4886 0.8718 0.0349
vn 0.0000 0.9911 -0.1328
vn 0.8892 0.0000 0.4576
vn 0.0000 0.9572 0.2893
vn -0.4886 0.8718 0.0349
vn -0.8892 0.0000 0.4576
vn 0.4886 -0.8718 0.0349
vn 0.0000 -0.9572 0.2893
vn -0.4886 -0.8718 0.0349
vn 0.9725 0.0000 -0.2328
vn -0.9725 0.0000 -0.2328
vn -0.0000 -0.9911 -0.1328
vn 0.4629 0.8510 0.2481
vn -0.7071 0.7071 0.0000
vn -1.0000 0.0000 0.0000
vn -0.7071 -0.7071 0.0000
vn 0.0000 -1.0000 0.0000
vn 0.7071 -0.7071 0.0000
vn 1.0000 0.0000 0.0000
vn 0.7071 0.7071 0.0000
vn 0.0000 1.0000 0.0000
usemtl metal
s off
f 19//1 12//1 18//1
f 14//2 35//2 26//2 10//2
f 25//3 15//3 11//3
f 28//4 30//4 16//4
f 33//5 31//5 27//5 36//5
f 34//6 23//6 21//6 32//6
f 20//7 17//7 29//7
f 9//8 10//8 11//8 12//8
f 15//9 16//9 17//9 18//9
f 19//10 20//10 21//10 22//10
f 25//11 26//11 27//11 28//11
f 29//12 30//12 31//12 32//12
f 12//13 19//13 22//13 9//13
f 11//14 15//14 18//14 12//14
f 24//15 22//15 21//15 23//15
f 14//16 10//16 9//16 13//16
f 10//17 26//17 25//17 11//17
f 36//18 27//18 26//18 35//18
f 32//19 21//19 20//19 29//19
f 34//20 32//20 31//20 33//20
f 30//21 28//21 27//21 31//21
f 19//22 18//22 17//22 20//22
f 28//23 16//23 15//23 25//23
f 29//24 17//24 16//24 30//24
f 13//25 9//25 22//25 24//25
f 57//26 54//26 48//26
f 50//27 46//27 66//27 75//27
f 65//28 47//28 51//28
f 68//29 52//29 70//29
f 73//30 76//30 67//30 71//30
f 74//31 72//31 59//31 61//31
f 58//32 69//32 53//32
f 45//33 48//33 47//33 46//33
f 51//34 54//34 53//34 52//34
f 57//35 60//35 59//35 58//35
f 65//36 68//36 67//36 66//36
f 69//37 72//37 71//37 70//37
f 48//38 45//38 60//38 57//38
f 47//39 48//39 54//39 51//39
f 62//40 61//40 59//40 60//40
f 50//41 49//41 45//41 46//41
f 46//42 47//42 65//42 66//42
f 76//43 75//43 66//43 67//43
f 72//44 69//44 58//44 59//44
f 74//45 73//45 71//45 72//45
f 70//46 71//46 67//46 68//46
f 57//47 58//47 53//47 54//47
f 68//48 65//48 51//48 52//48
f 69//49 70//49 52//49 53//49
f 49//50 62//50 60//50 45//50
usemtl black
f 43//51 7//51 8//51 44//51
f 42//52 6//52 7//52 43//52
f 41//53 5//53 6//53 42//53
f 40//54 4//54 5//54 41//54
f 39//55 3//55 4//55 40//55
f 38//56 2//56 3//56 39//56
f 37//57 1//57 2//57 38//57
f 3//34 2//34 79//34 78//34
f 43//9 44//9 88//9 87//9
f 1//34 8//34 55//34 80//34
f 8//34 7//34 56//34 55//34
f 44//9 37//9 81//9 88//9
f 2//34 1//34 80//34 79//34
f 41//9 42//9 86//9 85//9
f 42//9 43//9 87//9 86//9
f 44//58 8//58 1//58 37//58
f 37//9 38//9 82//9 81//9
f 4//34 3//34 78//34 77//34
f 38//9 39//9 83//9 82//9
f 5//34 4//34 77//34 64//34
f 39//9 40//9 84//9 83//9
f 6//34 5//34 64//34 63//34
f 40//9 41//9 85//9 84//9
f 7//34 6//34 63//34 56//34
f 81//57 82//57 98//57 97//57
f 86//52 87//52 103//52 102//52
f 79//57 80//57 96//57 95//57
f 83//55 84//55 100//55 99//55
f 55//51 56//51 90//51 89//51
f 77//55 78//55 94//55 93//55
f 82//56 83//56 99//56 98//56
f 56//52 63//52 91//52 90//52
f 80//58 55//58 89//58 96//58
f 78//56 79//56 95//56 94//56
f 63//53 64//53 92//53 91//53
f 64//54 77//54 93//54 92//54
f 88//58 81//58 97//58 104//58
f 87//51 88//51 104//51 103//51
f 85//53 86//53 102//53 101//53
f 84//54 85//54 101//54 100//54
f 89//9 90//9 105//9
f 101//34 102//34 106//34
f 90//9 91//9 105//9
f 97//34 98//34 106//34
f 91//9 92//9 105//9
f 99//34 100//34 106//34
f 100//34 101//34 106//34
f 98//34 99//34 106//34
f 102//34 103//34 106//34
f 95//9 96//9 105//9
f 96//9 89//9 105//9
f 93//9 94//9 105//9
f 104//34 97//34 106//34
f 92//9 93//9 105//9
f 94//9 95//9 105//9
f 103//34 104//34 106//34
