# Blender v2.78 (sub 0) OBJ File: 'manji-02.blend'
# www.blender.org
mtllib manji-02.mtl
o Circle
v -0.011441 0.001510 -0.036340
v 0.036340 0.001510 -0.011441
v -0.010674 0.001510 -0.057176
v 0.018165 0.001510 -0.026373
v -0.026373 0.001510 -0.018165
v -0.021033 0.001510 -0.019227
v -0.016506 0.001510 -0.022252
v -0.013481 0.001510 -0.026779
v -0.011822 0.001510 -0.032120
v -0.010674 -0.001510 -0.072217
v 0.057176 0.001510 -0.010674
v 0.026373 0.001510 0.018165
v 0.019227 0.001510 -0.021033
v 0.022252 0.001510 -0.016506
v 0.026779 0.001510 -0.013481
v 0.032120 0.001510 -0.011822
v 0.072217 -0.001510 -0.010674
v 0.042044 -0.001510 0.018165
v 0.011441 0.001510 0.036340
v -0.036340 0.001510 0.011441
v 0.010674 0.001510 0.057176
v -0.018165 0.001510 0.026373
v 0.021033 0.001510 0.019227
v 0.016506 0.001510 0.022252
v 0.013481 0.001510 0.026779
v 0.011822 0.001510 0.032120
v -0.018165 -0.001510 0.042044
v -0.057176 0.001510 0.010674
v -0.019227 0.001510 0.021033
v -0.022252 0.001510 0.016506
v -0.026779 0.001510 0.013481
v -0.032120 0.001510 0.011822
v 0.000000 0.001510 -0.009169
v -0.004584 0.001510 -0.007940
v -0.007940 0.001510 -0.004584
v -0.009169 0.001510 0.000000
v -0.007940 0.001510 0.004584
v -0.004584 0.001510 0.007940
v 0.000000 0.001510 0.009169
v 0.004584 0.001510 0.007940
v 0.007940 0.001510 0.004584
v 0.009169 0.001510 0.000000
v 0.007940 0.001510 -0.004584
v 0.004584 0.001510 -0.007940
v -0.011441 -0.001510 -0.036340
v 0.036340 -0.001510 -0.011441
v -0.010674 -0.001510 -0.057176
v 0.018165 -0.001510 -0.026373
v -0.026373 -0.001510 -0.018165
v -0.021033 -0.001510 -0.019227
v -0.016506 -0.001510 -0.022252
v -0.013481 -0.001510 -0.026779
v -0.011822 -0.001510 -0.032120
v 0.018165 -0.001510 -0.042044
v 0.057176 -0.001510 -0.010674
v 0.026373 -0.001510 0.018165
v 0.019227 -0.001510 -0.021033
v 0.022252 -0.001510 -0.016506
v 0.026779 -0.001510 -0.013481
v 0.032120 -0.001510 -0.011822
v 0.011441 -0.001510 0.036340
v -0.036340 -0.001510 0.011441
v 0.010674 -0.001510 0.057176
v -0.018165 -0.001510 0.026373
v 0.021033 -0.001510 0.019227
v 0.016506 -0.001510 0.022252
v 0.013481 -0.001510 0.026779
v 0.011822 -0.001510 0.032120
v 0.010674 -0.001510 0.072217
v -0.057176 -0.001510 0.010674
v -0.019227 -0.001510 0.021033
v -0.022252 -0.001510 0.016506
v -0.026779 -0.001510 0.013481
v -0.032120 -0.001510 0.011822
v -0.072217 -0.001510 0.010674
v -0.042044 -0.001510 -0.018165
v 0.000000 -0.001510 -0.009169
v -0.004584 -0.001510 -0.007940
v -0.007940 -0.001510 -0.004584
v -0.009169 -0.001510 0.000000
v -0.007940 -0.001510 0.004584
v -0.004584 -0.001510 0.007940
v 0.000000 -0.001510 0.009169
v 0.004584 -0.001510 0.007940
v 0.007940 -0.001510 0.004584
v 0.009169 -0.001510 0.000000
v 0.007940 -0.001510 -0.004584
v 0.004584 -0.001510 -0.007940
vn 0.0000 1.0000 -0.0000
vn 0.0000 -1.0000 0.0000
vn -0.0000 0.0000 1.0000
vn -0.0368 0.0000 0.9993
vn -0.0898 0.0000 0.9960
vn -0.2967 0.0000 0.9550
vn -0.5556 0.0000 0.8315
vn -0.8315 0.0000 0.5556
vn -0.9808 0.0000 0.1951
vn -1.0000 0.0000 0.0000
vn 1.0000 0.0000 0.0000
vn 0.9993 0.0000 0.0368
vn 0.9960 0.0000 0.0898
vn 0.9550 0.0000 0.2967
vn 0.8315 0.0000 0.5556
vn 0.5556 0.0000 0.8315
vn 0.1951 0.0000 0.9808
vn 0.0000 0.0000 -1.0000
vn 0.0368 0.0000 -0.9993
vn 0.0898 0.0000 -0.9960
vn 0.2967 0.0000 -0.9550
vn 0.5556 0.0000 -0.8315
vn 0.8315 0.0000 -0.5556
vn 0.9808 0.0000 -0.1951
vn -0.9993 0.0000 -0.0368
vn -0.9960 0.0000 -0.0898
vn -0.9550 0.0000 -0.2967
vn -0.8315 0.0000 -0.5556
vn -0.5556 0.0000 -0.8315
vn -0.1951 0.0000 -0.9808
vn -0.9659 0.0000 -0.2588
vn -0.7071 0.0000 -0.7071
vn -0.2588 0.0000 -0.9659
vn 0.2588 0.0000 -0.9659
vn 0.7071 0.0000 -0.7071
vn 0.9659 0.0000 -0.2588
vn 0.9659 0.0000 0.2588
vn 0.7071 0.0000 0.7071
vn 0.2588 0.0000 0.9659
vn -0.2588 0.0000 0.9659
vn -0.7071 0.0000 0.7071
vn -0.9659 0.0000 0.2588
vn 0.1891 0.9614 0.1999
vn 0.1999 0.9614 -0.1891
vn -0.1891 0.9614 -0.1999
vn -0.1999 0.9614 0.1891
usemtl black
s off
f 3//1 1//1 13//1 4//1
f 1//1 9//1 14//1 13//1
f 21//1 19//1 29//1 22//1
f 19//1 26//1 30//1 29//1
f 6//1 5//1 28//1 20//1
f 7//1 6//1 20//1 32//1
f 12//1 11//1 2//1 23//1
f 2//1 16//1 24//1 23//1
f 14//1 9//1 33//1 44//1
f 15//1 14//1 44//1 43//1
f 16//1 15//1 43//1 42//1
f 24//1 16//1 42//1 41//1
f 25//1 24//1 41//1 40//1
f 26//1 25//1 40//1 39//1
f 30//1 26//1 39//1 38//1
f 31//1 30//1 38//1 37//1
f 32//1 31//1 37//1 36//1
f 7//1 32//1 36//1 35//1
f 8//1 7//1 35//1 34//1
f 9//1 8//1 34//1 33//1
f 55//2 17//2 18//2 56//2
f 47//2 10//2 54//2 48//2
f 47//2 48//2 57//2 45//2
f 45//2 57//2 58//2 53//2
f 70//2 75//2 76//2 49//2
f 63//2 69//2 27//2 64//2
f 63//2 64//2 71//2 61//2
f 61//2 71//2 72//2 68//2
f 50//2 62//2 70//2 49//2
f 51//2 74//2 62//2 50//2
f 56//2 65//2 46//2 55//2
f 46//2 65//2 66//2 60//2
f 58//2 88//2 77//2 53//2
f 59//2 87//2 88//2 58//2
f 60//2 86//2 87//2 59//2
f 66//2 85//2 86//2 60//2
f 67//2 84//2 85//2 66//2
f 68//2 83//2 84//2 67//2
f 72//2 82//2 83//2 68//2
f 73//2 81//2 82//2 72//2
f 74//2 80//2 81//2 73//2
f 51//2 79//2 80//2 74//2
f 52//2 78//2 79//2 51//2
f 53//2 77//2 78//2 52//2
f 70//3 28//3 75//3
f 20//4 28//4 70//4 62//4
f 32//5 20//5 62//5 74//5
f 31//6 32//6 74//6 73//6
f 30//7 31//7 73//7 72//7
f 29//8 30//8 72//8 71//8
f 22//9 29//9 71//9 64//9
f 27//10 22//10 64//10
f 63//11 21//11 69//11
f 19//12 21//12 63//12 61//12
f 26//13 19//13 61//13 68//13
f 25//14 26//14 68//14 67//14
f 24//15 25//15 67//15 66//15
f 65//16 23//16 24//16 66//16
f 56//17 12//17 23//17 65//17
f 56//3 18//3 12//3
f 11//18 17//18 55//18
f 2//19 11//19 55//19 46//19
f 16//20 2//20 46//20 60//20
f 15//21 16//21 60//21 59//21
f 14//22 15//22 59//22 58//22
f 13//23 14//23 58//23 57//23
f 4//24 13//24 57//24 48//24
f 48//11 54//11 4//11
f 3//10 10//10 47//10
f 1//25 3//25 47//25 45//25
f 9//26 1//26 45//26 53//26
f 8//27 9//27 53//27 52//27
f 7//28 8//28 52//28 51//28
f 6//29 7//29 51//29 50//29
f 5//30 6//30 50//30 49//30
f 49//18 76//18 5//18
f 41//31 42//31 86//31 85//31
f 40//32 41//32 85//32 84//32
f 39//33 40//33 84//33 83//33
f 38//34 39//34 83//34 82//34
f 37//35 38//35 82//35 81//35
f 36//36 37//36 81//36 80//36
f 35//37 36//37 80//37 79//37
f 34//38 35//38 79//38 78//38
f 33//39 34//39 78//39 77//39
f 44//40 33//40 77//40 88//40
f 43//41 44//41 88//41 87//41
f 42//42 43//42 87//42 86//42
usemtl silver
f 11//43 12//43 18//43 17//43
f 3//44 4//44 54//44 10//44
f 28//45 5//45 76//45 75//45
f 21//46 22//46 27//46 69//46
