# Blender v2.78 (sub 0) OBJ File: 'nipo.blend'
# www.blender.org
mtllib nipo.mtl
o nippo_Plane.005
v 0.000000 0.000558 -0.043456
v -0.009847 0.000558 -0.022101
v 0.009847 0.000558 -0.022101
v -0.012151 0.000000 -0.021709
v 0.000000 0.000000 -0.048059
v 0.012151 0.000000 -0.021709
v 0.000000 -0.000558 -0.043456
v 0.000000 0.000000 -0.048059
v -0.009847 -0.000558 -0.022101
v -0.012151 0.000000 -0.021709
v 0.012151 0.000000 -0.021709
v 0.009847 -0.000558 -0.022101
v -0.007278 -0.000558 -0.020528
v -0.007278 0.000558 -0.020528
v 0.007278 0.000558 -0.020528
v 0.007278 -0.000558 -0.020528
v -0.004538 -0.000558 -0.017835
v -0.004538 0.000558 -0.017835
v 0.004538 0.000558 -0.017835
v 0.004538 -0.000558 -0.017835
v -0.004538 -0.000558 -0.006644
v -0.004538 0.000558 -0.006644
v 0.004538 0.000558 -0.006644
v 0.004538 -0.000558 -0.006644
v 0.000000 -0.000648 -0.012391
v -0.004742 -0.000648 -0.011448
v -0.008762 -0.000648 -0.008762
v -0.011448 -0.000648 -0.004742
v -0.012391 -0.000648 0.000000
v -0.011448 -0.000648 0.004742
v -0.008762 -0.000648 0.008762
v -0.004742 -0.000648 0.011448
v -0.000000 -0.000648 0.012391
v 0.004742 -0.000648 0.011448
v 0.008762 -0.000648 0.008762
v 0.011448 -0.000648 0.004742
v 0.012391 -0.000648 -0.000000
v 0.011448 -0.000648 -0.004742
v 0.008762 -0.000648 -0.008762
v 0.004742 -0.000648 -0.011448
v 0.000000 0.000648 -0.012391
v -0.004742 0.000648 -0.011448
v -0.008762 0.000648 -0.008762
v -0.011448 0.000648 -0.004742
v -0.012391 0.000648 0.000000
v -0.011448 0.000648 0.004742
v -0.008762 0.000648 0.008762
v -0.004742 0.000648 0.011448
v -0.000000 0.000648 0.012391
v 0.004742 0.000648 0.011448
v 0.008762 0.000648 0.008762
v 0.011448 0.000648 0.004742
v 0.012391 0.000648 -0.000000
v 0.011448 0.000648 -0.004742
v 0.008762 0.000648 -0.008762
v 0.004742 0.000648 -0.011448
v -0.001310 -0.000648 -0.003162
v 0.000000 -0.000648 -0.003423
v -0.002420 -0.000648 -0.002420
v -0.003162 -0.000648 -0.001310
v -0.003423 -0.000648 0.000000
v -0.003162 -0.000648 0.001310
v -0.002420 -0.000648 0.002420
v -0.001310 -0.000648 0.003162
v -0.000000 -0.000648 0.003423
v 0.001310 -0.000648 0.003162
v 0.002420 -0.000648 0.002420
v 0.003162 -0.000648 0.001310
v 0.003423 -0.000648 -0.000000
v 0.003162 -0.000648 -0.001310
v 0.002420 -0.000648 -0.002420
v 0.001310 -0.000648 -0.003162
v -0.001310 0.000648 -0.003162
v 0.000000 0.000648 -0.003423
v -0.002420 0.000648 -0.002420
v -0.003162 0.000648 -0.001310
v -0.003423 0.000648 0.000000
v -0.003162 0.000648 0.001310
v -0.002420 0.000648 0.002420
v -0.001310 0.000648 0.003162
v -0.000000 0.000648 0.003423
v 0.001310 0.000648 0.003162
v 0.002420 0.000648 0.002420
v 0.003162 0.000648 0.001310
v 0.003423 0.000648 -0.000000
v 0.003162 0.000648 -0.001310
v 0.002420 0.000648 -0.002420
v 0.001310 0.000648 -0.003162
v -0.000000 0.000558 0.043456
v 0.009847 0.000558 0.022101
v -0.009847 0.000558 0.022101
v 0.012151 0.000000 0.021709
v -0.000000 0.000000 0.048059
v -0.012151 0.000000 0.021709
v -0.000000 -0.000558 0.043456
v -0.000000 0.000000 0.048059
v 0.009847 -0.000558 0.022101
v 0.012151 0.000000 0.021709
v -0.012151 0.000000 0.021709
v -0.009847 -0.000558 0.022101
v 0.007278 -0.000558 0.020528
v 0.007278 0.000558 0.020528
v -0.007278 0.000558 0.020528
v -0.007278 -0.000558 0.020528
v 0.004538 -0.000558 0.017835
v 0.004538 0.000558 0.017835
v -0.004538 0.000558 0.017835
v -0.004538 -0.000558 0.017835
v 0.004538 -0.000558 0.006644
v 0.004538 0.000558 0.006644
v -0.004538 0.000558 0.006644
v -0.004538 -0.000558 0.006644
vn 0.0000 1.0000 0.0000
vn 0.0000 -1.0000 0.0000
vn -0.1678 0.0000 0.9858
vn -0.2523 0.9606 -0.1164
vn 0.2523 0.9606 -0.1164
vn 0.0000 0.0000 1.0000
vn 0.1678 0.0000 0.9858
vn -0.2523 -0.9606 -0.1164
vn 0.2523 -0.9606 -0.1164
vn -0.5221 0.0000 0.8529
vn 0.5221 0.0000 0.8529
vn 1.0000 0.0000 0.0000
vn 0.7010 0.0000 0.7131
vn -0.7010 0.0000 0.7131
vn -1.0000 0.0000 0.0000
vn 0.8315 0.0000 -0.5556
vn -0.5556 0.0000 0.8315
vn 0.5556 0.0000 -0.8315
vn -0.1951 0.0000 0.9808
vn -0.1951 0.0000 -0.9808
vn 0.1951 0.0000 -0.9808
vn 0.1951 0.0000 0.9808
vn -0.5556 0.0000 -0.8315
vn 0.5556 0.0000 0.8315
vn -0.8315 0.0000 -0.5556
vn 0.8315 0.0000 0.5556
vn -0.9808 0.0000 -0.1951
vn 0.9808 0.0000 0.1951
vn -0.9808 0.0000 0.1951
vn 0.9808 0.0000 -0.1951
vn -0.8315 0.0000 0.5556
vn 0.1678 0.0000 -0.9858
vn 0.2523 0.9606 0.1164
vn -0.2523 0.9606 0.1164
vn -0.1678 0.0000 -0.9858
vn 0.2523 -0.9606 0.1164
vn -0.2523 -0.9606 0.1164
vn 0.0000 0.0000 -1.0000
vn 0.5221 0.0000 -0.8529
vn -0.5221 0.0000 -0.8529
vn -0.7010 0.0000 -0.7131
vn 0.7010 0.0000 -0.7131
usemtl black.003
s off
f 14//1 18//1 19//1 15//1
f 7//2 12//2 9//2
f 3//3 12//3 11//3
f 8//4 10//4 2//4 1//4
f 11//5 8//5 1//5 3//5
f 2//1 14//1 15//1 3//1
f 5//6 8//6 10//6 4//6
f 6//6 11//6 8//6 5//6
f 1//1 2//1 3//1
f 10//7 9//7 2//7
f 8//8 7//8 9//8 10//8
f 11//9 12//9 7//9 8//9
f 12//2 16//2 13//2 9//2
f 21//6 24//6 23//6 22//6
f 2//10 9//10 13//10 14//10
f 12//11 3//11 15//11 16//11
f 20//12 19//12 23//12 24//12
f 19//1 18//1 22//1 23//1
f 16//13 15//13 19//13 20//13
f 14//14 13//14 17//14 18//14
f 17//2 20//2 24//2 21//2
f 18//15 17//15 21//15 22//15
f 38//16 39//16 55//16 54//16
f 31//17 32//17 48//17 47//17
f 39//18 40//18 56//18 55//18
f 32//19 33//19 49//19 48//19
f 25//20 26//20 42//20 41//20
f 40//21 25//21 41//21 56//21
f 33//22 34//22 50//22 49//22
f 26//23 27//23 43//23 42//23
f 34//24 35//24 51//24 50//24
f 27//25 28//25 44//25 43//25
f 35//26 36//26 52//26 51//26
f 28//27 29//27 45//27 44//27
f 36//28 37//28 53//28 52//28
f 29//29 30//29 46//29 45//29
f 37//30 38//30 54//30 53//30
f 30//31 31//31 47//31 46//31
f 70//31 86//31 87//31 71//31
f 63//18 79//18 80//18 64//18
f 71//17 87//17 88//17 72//17
f 64//21 80//21 81//21 65//21
f 58//22 74//22 73//22 57//22
f 72//19 88//19 74//19 58//19
f 65//20 81//20 82//20 66//20
f 57//24 73//24 75//24 59//24
f 66//23 82//23 83//23 67//23
f 59//26 75//26 76//26 60//26
f 67//25 83//25 84//25 68//25
f 60//28 76//28 77//28 61//28
f 68//27 84//27 85//27 69//27
f 61//30 77//30 78//30 62//30
f 69//29 85//29 86//29 70//29
f 62//16 78//16 79//16 63//16
f 35//2 67//2 68//2 36//2
f 50//1 82//1 81//1 49//1
f 36//2 68//2 69//2 37//2
f 51//1 83//1 82//1 50//1
f 37//2 69//2 70//2 38//2
f 52//1 84//1 83//1 51//1
f 38//2 70//2 71//2 39//2
f 25//2 58//2 57//2 26//2
f 53//1 85//1 84//1 52//1
f 39//2 71//2 72//2 40//2
f 26//2 57//2 59//2 27//2
f 54//1 86//1 85//1 53//1
f 40//2 72//2 58//2 25//2
f 27//2 59//2 60//2 28//2
f 55//1 87//1 86//1 54//1
f 42//1 73//1 74//1 41//1
f 28//2 60//2 61//2 29//2
f 56//1 88//1 87//1 55//1
f 43//1 75//1 73//1 42//1
f 29//2 61//2 62//2 30//2
f 41//1 74//1 88//1 56//1
f 44//1 76//1 75//1 43//1
f 30//2 62//2 63//2 31//2
f 45//1 77//1 76//1 44//1
f 31//2 63//2 64//2 32//2
f 46//1 78//1 77//1 45//1
f 32//2 64//2 65//2 33//2
f 47//1 79//1 78//1 46//1
f 33//2 65//2 66//2 34//2
f 48//1 80//1 79//1 47//1
f 34//2 66//2 67//2 35//2
f 49//1 81//1 80//1 48//1
f 13//2 16//2 20//2 17//2
f 102//1 106//1 107//1 103//1
f 95//2 100//2 97//2
f 91//32 100//32 99//32
f 96//33 98//33 90//33 89//33
f 99//34 96//34 89//34 91//34
f 90//1 102//1 103//1 91//1
f 93//6 96//6 98//6 92//6
f 94//6 99//6 96//6 93//6
f 89//1 90//1 91//1
f 98//35 97//35 90//35
f 96//36 95//36 97//36 98//36
f 99//37 100//37 95//37 96//37
f 100//2 104//2 101//2 97//2
f 109//38 112//38 111//38 110//38
f 90//39 97//39 101//39 102//39
f 100//40 91//40 103//40 104//40
f 108//15 107//15 111//15 112//15
f 107//1 106//1 110//1 111//1
f 104//41 103//41 107//41 108//41
f 102//42 101//42 105//42 106//42
f 105//2 108//2 112//2 109//2
f 106//12 105//12 109//12 110//12
f 101//2 104//2 108//2 105//2
