# Blender v2.78 (sub 0) OBJ File: 'roppo.blend'
# www.blender.org
mtllib roppo.mtl
o roppo_Plane.010
v -0.000000 0.000721 -0.047247
v -0.006544 0.000721 -0.027697
v 0.006544 0.000721 -0.027697
v -0.008075 0.000000 -0.027338
v -0.000000 0.000000 -0.051462
v 0.008075 0.000000 -0.027338
v -0.000000 -0.000721 -0.047247
v -0.000000 0.000000 -0.051462
v -0.006544 -0.000721 -0.027697
v -0.008075 0.000000 -0.027338
v 0.008075 0.000000 -0.027338
v 0.006544 -0.000721 -0.027697
v -0.004837 -0.000721 -0.026257
v -0.004837 0.000721 -0.026257
v 0.004837 0.000721 -0.026257
v 0.004837 -0.000721 -0.026257
v -0.003016 -0.000721 -0.023791
v -0.003016 0.000721 -0.023791
v 0.003016 0.000721 -0.023791
v 0.003016 -0.000721 -0.023791
v -0.003016 -0.000721 -0.013546
v -0.003016 0.000721 -0.013546
v 0.003016 0.000721 -0.013546
v 0.003016 -0.000721 -0.013546
v -0.000000 -0.000838 -0.016016
v -0.006129 -0.000838 -0.014797
v -0.011325 -0.000838 -0.011325
v -0.014797 -0.000838 -0.006129
v -0.016016 -0.000838 0.000000
v -0.014797 -0.000838 0.006129
v -0.011325 -0.000838 0.011325
v -0.006129 -0.000838 0.014797
v -0.000000 -0.000838 0.016016
v 0.006129 -0.000838 0.014797
v 0.011325 -0.000838 0.011325
v 0.014797 -0.000838 0.006129
v 0.016016 -0.000838 0.000000
v 0.014797 -0.000838 -0.006129
v 0.011325 -0.000838 -0.011325
v 0.006129 -0.000838 -0.014797
v -0.000000 0.000838 -0.016016
v -0.006129 0.000838 -0.014797
v -0.011325 0.000838 -0.011325
v -0.014797 0.000838 -0.006129
v -0.016016 0.000838 0.000000
v -0.014797 0.000838 0.006129
v -0.011325 0.000838 0.011325
v -0.006129 0.000838 0.014797
v -0.000000 0.000838 0.016016
v 0.006129 0.000838 0.014797
v 0.011325 0.000838 0.011325
v 0.014797 0.000838 0.006129
v 0.016016 0.000838 0.000000
v 0.014797 0.000838 -0.006129
v 0.011325 0.000838 -0.011325
v 0.006129 0.000838 -0.014797
v -0.001693 -0.000838 -0.004087
v -0.000000 -0.000838 -0.004424
v -0.003128 -0.000838 -0.003128
v -0.004087 -0.000838 -0.001693
v -0.004424 -0.000838 0.000000
v -0.004087 -0.000838 0.001693
v -0.003128 -0.000838 0.003128
v -0.001693 -0.000838 0.004087
v -0.000000 -0.000838 0.004424
v 0.001693 -0.000838 0.004087
v 0.003128 -0.000838 0.003128
v 0.004087 -0.000838 0.001693
v 0.004424 -0.000838 0.000000
v 0.004087 -0.000838 -0.001693
v 0.003128 -0.000838 -0.003128
v 0.001693 -0.000838 -0.004087
v -0.001693 0.000838 -0.004087
v -0.000000 0.000838 -0.004424
v -0.003128 0.000838 -0.003128
v -0.004087 0.000838 -0.001693
v -0.004424 0.000838 0.000000
v -0.004087 0.000838 0.001693
v -0.003128 0.000838 0.003128
v -0.001693 0.000838 0.004087
v -0.000000 0.000838 0.004424
v 0.001693 0.000838 0.004087
v 0.003128 0.000838 0.003128
v 0.004087 0.000838 0.001693
v 0.004424 0.000838 0.000000
v 0.004087 0.000838 -0.001693
v 0.003128 0.000838 -0.003128
v 0.001693 0.000838 -0.004087
v 0.040917 0.000721 -0.023624
v 0.020714 0.000721 -0.019516
v 0.027258 0.000721 -0.008181
v 0.019638 0.000000 -0.020662
v 0.044567 0.000000 -0.025731
v 0.027713 0.000000 -0.006676
v 0.040917 -0.000721 -0.023624
v 0.044567 0.000000 -0.025731
v 0.020714 -0.000721 -0.019516
v 0.019638 0.000000 -0.020662
v 0.027713 0.000000 -0.006676
v 0.027258 -0.000721 -0.008181
v 0.020321 -0.000721 -0.017317
v 0.020321 0.000721 -0.017317
v 0.025158 0.000721 -0.008940
v 0.025158 -0.000721 -0.008940
v 0.019096 -0.000721 -0.014508
v 0.019096 0.000721 -0.014508
v 0.022112 0.000721 -0.009284
v 0.022112 -0.000721 -0.009284
v 0.010223 -0.000721 -0.009385
v 0.010223 0.000721 -0.009385
v 0.013239 0.000721 -0.004161
v 0.013239 -0.000721 -0.004161
v 0.040917 0.000721 0.023624
v 0.027258 0.000721 0.008181
v 0.020714 0.000721 0.019516
v 0.027713 0.000000 0.006676
v 0.044567 0.000000 0.025731
v 0.019638 0.000000 0.020662
v 0.040917 -0.000721 0.023624
v 0.044567 0.000000 0.025731
v 0.027258 -0.000721 0.008181
v 0.027713 0.000000 0.006676
v 0.019638 0.000000 0.020662
v 0.020714 -0.000721 0.019516
v 0.025158 -0.000721 0.008940
v 0.025158 0.000721 0.008940
v 0.020321 0.000721 0.017317
v 0.020321 -0.000721 0.017317
v 0.022112 -0.000721 0.009284
v 0.022112 0.000721 0.009284
v 0.019096 0.000721 0.014508
v 0.019096 -0.000721 0.014508
v 0.013239 -0.000721 0.004161
v 0.013239 0.000721 0.004161
v 0.010223 0.000721 0.009385
v 0.010223 -0.000721 0.009385
v -0.000000 0.000721 0.047247
v 0.006544 0.000721 0.027697
v -0.006544 0.000721 0.027697
v 0.008075 0.000000 0.027338
v -0.000000 0.000000 0.051462
v -0.008075 0.000000 0.027338
v -0.000000 -0.000721 0.047247
v -0.000000 0.000000 0.051462
v 0.006544 -0.000721 0.027697
v 0.008075 0.000000 0.027338
v -0.008075 0.000000 0.027338
v -0.006544 -0.000721 0.027697
v 0.004837 -0.000721 0.026257
v 0.004837 0.000721 0.026257
v -0.004837 0.000721 0.026257
v -0.004837 -0.000721 0.026257
v 0.003016 -0.000721 0.023792
v 0.003016 0.000721 0.023792
v -0.003016 0.000721 0.023792
v -0.003016 -0.000721 0.023792
v 0.003016 -0.000721 0.013546
v 0.003016 0.000721 0.013546
v -0.003016 0.000721 0.013546
v -0.003016 -0.000721 0.013546
v -0.040917 0.000721 0.023624
v -0.020714 0.000721 0.019516
v -0.027258 0.000721 0.008181
v -0.019638 0.000000 0.020662
v -0.044567 0.000000 0.025731
v -0.027713 0.000000 0.006676
v -0.040917 -0.000721 0.023624
v -0.044567 0.000000 0.025731
v -0.020714 -0.000721 0.019516
v -0.019638 0.000000 0.020662
v -0.027713 0.000000 0.006676
v -0.027258 -0.000721 0.008181
v -0.020321 -0.000721 0.017317
v -0.020321 0.000721 0.017317
v -0.025158 0.000721 0.008940
v -0.025158 -0.000721 0.008940
v -0.019096 -0.000721 0.014508
v -0.019096 0.000721 0.014508
v -0.022112 0.000721 0.009284
v -0.022112 -0.000721 0.009284
v -0.010223 -0.000721 0.009385
v -0.010223 0.000721 0.009385
v -0.013239 0.000721 0.004161
v -0.013239 -0.000721 0.004161
v -0.040917 0.000721 -0.023624
v -0.027258 0.000721 -0.008181
v -0.020714 0.000721 -0.019516
v -0.027713 0.000000 -0.006676
v -0.044567 0.000000 -0.025731
v -0.019638 0.000000 -0.020662
v -0.040917 -0.000721 -0.023624
v -0.044567 0.000000 -0.025731
v -0.027258 -0.000721 -0.008181
v -0.027713 0.000000 -0.006676
v -0.019638 0.000000 -0.020662
v -0.020714 -0.000721 -0.019516
v -0.025158 -0.000721 -0.008940
v -0.025158 0.000721 -0.008940
v -0.020321 0.000721 -0.017317
v -0.020321 -0.000721 -0.017317
v -0.022112 -0.000721 -0.009284
v -0.022112 0.000721 -0.009284
v -0.019096 0.000721 -0.014508
v -0.019096 -0.000721 -0.014508
v -0.013239 -0.000721 -0.004161
v -0.013239 0.000721 -0.004161
v -0.010223 0.000721 -0.009385
v -0.010223 -0.000721 -0.009385
vn 0.0000 1.0000 -0.0000
vn 0.0000 -1.0000 0.0000
vn -0.2283 0.0000 0.9736
vn -0.4498 0.8804 -0.1505
vn 0.4498 0.8804 -0.1505
vn 0.0000 0.0000 1.0000
vn 0.2283 0.0000 0.9736
vn -0.4498 -0.8804 -0.1505
vn 0.4498 -0.8804 -0.1505
vn -0.6447 0.0000 0.7644
vn 0.6447 0.0000 0.7644
vn 1.0000 0.0000 0.0000
vn 0.8044 0.0000 0.5940
vn -0.8044 0.0000 0.5940
vn -1.0000 0.0000 0.0000
vn 0.8315 0.0000 -0.5556
vn -0.5556 0.0000 0.8315
vn 0.5556 0.0000 -0.8315
vn -0.1951 0.0000 0.9808
vn -0.1951 0.0000 -0.9808
vn 0.1951 0.0000 -0.9808
vn 0.1951 0.0000 0.9808
vn -0.5556 0.0000 -0.8315
vn 0.5556 0.0000 0.8315
vn -0.8315 0.0000 -0.5556
vn 0.8315 0.0000 0.5556
vn -0.9808 0.0000 -0.1951
vn 0.9808 0.0000 0.1951
vn -0.9808 0.0000 0.1951
vn 0.9808 0.0000 -0.1951
vn -0.8315 0.0000 0.5556
vn -0.9573 0.0000 0.2891
vn -0.0945 0.8804 -0.4648
vn 0.3553 0.8804 0.3142
vn -0.7290 0.0000 0.6845
vn -0.0945 -0.8804 -0.4648
vn 0.3553 -0.8804 0.3142
vn -0.8660 0.0000 0.5000
vn -0.9844 0.0000 -0.1761
vn -0.3396 0.0000 0.9406
vn 0.5000 0.0000 0.8660
vn -0.1122 0.0000 0.9937
vn -0.9167 0.0000 -0.3997
vn -0.5000 0.0000 -0.8660
vn -0.7290 0.0000 -0.6845
vn 0.3553 0.8804 -0.3142
vn -0.0945 0.8804 0.4648
vn -0.9573 0.0000 -0.2891
vn 0.3553 -0.8804 -0.3142
vn -0.0945 -0.8804 0.4648
vn -0.8660 0.0000 -0.5000
vn -0.3396 0.0000 -0.9406
vn -0.9844 0.0000 0.1761
vn -0.5000 0.0000 0.8660
vn -0.9167 0.0000 0.3997
vn -0.1122 0.0000 -0.9937
vn 0.5000 0.0000 -0.8660
vn 0.2283 0.0000 -0.9736
vn 0.4498 0.8804 0.1505
vn -0.4498 0.8804 0.1505
vn -0.2283 0.0000 -0.9736
vn 0.4498 -0.8804 0.1505
vn -0.4498 -0.8804 0.1505
vn 0.0000 0.0000 -1.0000
vn 0.6447 0.0000 -0.7644
vn -0.6447 0.0000 -0.7644
vn -0.8044 0.0000 -0.5940
vn 0.8044 0.0000 -0.5940
vn 0.9573 0.0000 -0.2891
vn 0.0945 0.8804 0.4648
vn -0.3553 0.8804 -0.3142
vn 0.7290 0.0000 -0.6845
vn 0.0945 -0.8804 0.4648
vn -0.3553 -0.8804 -0.3142
vn 0.8660 0.0000 -0.5000
vn 0.9844 0.0000 0.1761
vn 0.3396 0.0000 -0.9406
vn 0.1122 0.0000 -0.9937
vn 0.9167 0.0000 0.3997
vn 0.7290 0.0000 0.6845
vn -0.3553 0.8804 0.3142
vn 0.0945 0.8804 -0.4648
vn 0.9573 0.0000 0.2891
vn -0.3553 -0.8804 0.3142
vn 0.0945 -0.8804 -0.4648
vn 0.8660 0.0000 0.5000
vn 0.3396 0.0000 0.9406
vn 0.9844 0.0000 -0.1761
vn 0.9167 0.0000 -0.3997
vn 0.1122 0.0000 0.9937
usemtl black.007
s off
f 14//1 18//1 19//1 15//1
f 7//2 12//2 9//2
f 3//3 12//3 11//3
f 8//4 10//4 2//4 1//4
f 11//5 8//5 1//5 3//5
f 2//1 14//1 15//1 3//1
f 5//6 8//6 10//6 4//6
f 6//6 11//6 8//6 5//6
f 1//1 2//1 3//1
f 10//7 9//7 2//7
f 8//8 7//8 9//8 10//8
f 11//9 12//9 7//9 8//9
f 12//2 16//2 13//2 9//2
f 21//6 24//6 23//6 22//6
f 2//10 9//10 13//10 14//10
f 12//11 3//11 15//11 16//11
f 20//12 19//12 23//12 24//12
f 19//1 18//1 22//1 23//1
f 16//13 15//13 19//13 20//13
f 14//14 13//14 17//14 18//14
f 17//2 20//2 24//2 21//2
f 18//15 17//15 21//15 22//15
f 38//16 39//16 55//16 54//16
f 31//17 32//17 48//17 47//17
f 39//18 40//18 56//18 55//18
f 32//19 33//19 49//19 48//19
f 25//20 26//20 42//20 41//20
f 40//21 25//21 41//21 56//21
f 33//22 34//22 50//22 49//22
f 26//23 27//23 43//23 42//23
f 34//24 35//24 51//24 50//24
f 27//25 28//25 44//25 43//25
f 35//26 36//26 52//26 51//26
f 28//27 29//27 45//27 44//27
f 36//28 37//28 53//28 52//28
f 29//29 30//29 46//29 45//29
f 37//30 38//30 54//30 53//30
f 30//31 31//31 47//31 46//31
f 70//31 86//31 87//31 71//31
f 63//18 79//18 80//18 64//18
f 71//17 87//17 88//17 72//17
f 64//21 80//21 81//21 65//21
f 58//22 74//22 73//22 57//22
f 72//19 88//19 74//19 58//19
f 65//20 81//20 82//20 66//20
f 57//24 73//24 75//24 59//24
f 66//23 82//23 83//23 67//23
f 59//26 75//26 76//26 60//26
f 67//25 83//25 84//25 68//25
f 60//28 76//28 77//28 61//28
f 68//27 84//27 85//27 69//27
f 61//30 77//30 78//30 62//30
f 69//29 85//29 86//29 70//29
f 62//16 78//16 79//16 63//16
f 35//2 67//2 68//2 36//2
f 50//1 82//1 81//1 49//1
f 36//2 68//2 69//2 37//2
f 51//1 83//1 82//1 50//1
f 37//2 69//2 70//2 38//2
f 52//1 84//1 83//1 51//1
f 38//2 70//2 71//2 39//2
f 25//2 58//2 57//2 26//2
f 53//1 85//1 84//1 52//1
f 39//2 71//2 72//2 40//2
f 26//2 57//2 59//2 27//2
f 54//1 86//1 85//1 53//1
f 40//2 72//2 58//2 25//2
f 27//2 59//2 60//2 28//2
f 55//1 87//1 86//1 54//1
f 42//1 73//1 74//1 41//1
f 28//2 60//2 61//2 29//2
f 56//1 88//1 87//1 55//1
f 43//1 75//1 73//1 42//1
f 29//2 61//2 62//2 30//2
f 41//1 74//1 88//1 56//1
f 44//1 76//1 75//1 43//1
f 30//2 62//2 63//2 31//2
f 45//1 77//1 76//1 44//1
f 31//2 63//2 64//2 32//2
f 46//1 78//1 77//1 45//1
f 32//2 64//2 65//2 33//2
f 47//1 79//1 78//1 46//1
f 33//2 65//2 66//2 34//2
f 48//1 80//1 79//1 47//1
f 34//2 66//2 67//2 35//2
f 49//1 81//1 80//1 48//1
f 13//2 16//2 20//2 17//2
f 102//1 106//1 107//1 103//1
f 95//2 100//2 97//2
f 91//32 100//32 99//32
f 96//33 98//33 90//33 89//33
f 99//34 96//34 89//34 91//34
f 90//1 102//1 103//1 91//1
f 93//6 96//6 98//6 92//6
f 94//6 99//6 96//6 93//6
f 89//1 90//1 91//1
f 98//35 97//35 90//35
f 96//36 95//36 97//36 98//36
f 99//37 100//37 95//37 96//37
f 100//2 104//2 101//2 97//2
f 109//38 112//38 111//38 110//38
f 90//39 97//39 101//39 102//39
f 100//40 91//40 103//40 104//40
f 108//41 107//41 111//41 112//41
f 107//1 106//1 110//1 111//1
f 104//42 103//42 107//42 108//42
f 102//43 101//43 105//43 106//43
f 105//2 108//2 112//2 109//2
f 106//44 105//44 109//44 110//44
f 101//2 104//2 108//2 105//2
f 126//1 130//1 131//1 127//1
f 119//2 124//2 121//2
f 115//45 124//45 123//45
f 120//46 122//46 114//46 113//46
f 123//47 120//47 113//47 115//47
f 114//1 126//1 127//1 115//1
f 117//6 120//6 122//6 116//6
f 118//6 123//6 120//6 117//6
f 113//1 114//1 115//1
f 122//48 121//48 114//48
f 120//49 119//49 121//49 122//49
f 123//50 124//50 119//50 120//50
f 124//2 128//2 125//2 121//2
f 133//51 136//51 135//51 134//51
f 114//52 121//52 125//52 126//52
f 124//53 115//53 127//53 128//53
f 132//54 131//54 135//54 136//54
f 131//1 130//1 134//1 135//1
f 128//55 127//55 131//55 132//55
f 126//56 125//56 129//56 130//56
f 129//2 132//2 136//2 133//2
f 130//57 129//57 133//57 134//57
f 125//2 128//2 132//2 129//2
f 150//1 154//1 155//1 151//1
f 143//2 148//2 145//2
f 139//58 148//58 147//58
f 144//59 146//59 138//59 137//59
f 147//60 144//60 137//60 139//60
f 138//1 150//1 151//1 139//1
f 141//6 144//6 146//6 140//6
f 142//6 147//6 144//6 141//6
f 137//1 138//1 139//1
f 146//61 145//61 138//61
f 144//62 143//62 145//62 146//62
f 147//63 148//63 143//63 144//63
f 148//2 152//2 149//2 145//2
f 157//64 160//64 159//64 158//64
f 138//65 145//65 149//65 150//65
f 148//66 139//66 151//66 152//66
f 156//15 155//15 159//15 160//15
f 155//1 154//1 158//1 159//1
f 152//67 151//67 155//67 156//67
f 150//68 149//68 153//68 154//68
f 153//2 156//2 160//2 157//2
f 154//12 153//12 157//12 158//12
f 149//2 152//2 156//2 153//2
f 174//1 178//1 179//1 175//1
f 167//2 172//2 169//2
f 163//69 172//69 171//69
f 168//70 170//70 162//70 161//70
f 171//71 168//71 161//71 163//71
f 162//1 174//1 175//1 163//1
f 165//6 168//6 170//6 164//6
f 166//6 171//6 168//6 165//6
f 161//1 162//1 163//1
f 170//72 169//72 162//72
f 168//73 167//73 169//73 170//73
f 171//74 172//74 167//74 168//74
f 172//2 176//2 173//2 169//2
f 181//75 184//75 183//75 182//75
f 162//76 169//76 173//76 174//76
f 172//77 163//77 175//77 176//77
f 180//44 179//44 183//44 184//44
f 179//1 178//1 182//1 183//1
f 176//78 175//78 179//78 180//78
f 174//79 173//79 177//79 178//79
f 177//2 180//2 184//2 181//2
f 178//41 177//41 181//41 182//41
f 173//2 176//2 180//2 177//2
f 198//1 202//1 203//1 199//1
f 191//2 196//2 193//2
f 187//80 196//80 195//80
f 192//81 194//81 186//81 185//81
f 195//82 192//82 185//82 187//82
f 186//1 198//1 199//1 187//1
f 189//6 192//6 194//6 188//6
f 190//6 195//6 192//6 189//6
f 185//1 186//1 187//1
f 194//83 193//83 186//83
f 192//84 191//84 193//84 194//84
f 195//85 196//85 191//85 192//85
f 196//2 200//2 197//2 193//2
f 205//86 208//86 207//86 206//86
f 186//87 193//87 197//87 198//87
f 196//88 187//88 199//88 200//88
f 204//57 203//57 207//57 208//57
f 203//1 202//1 206//1 207//1
f 200//89 199//89 203//89 204//89
f 198//90 197//90 201//90 202//90
f 201//2 204//2 208//2 205//2
f 202//54 201//54 205//54 206//54
f 197//2 200//2 204//2 201//2
