# Blender v2.78 (sub 0) OBJ File: 'ryubarigata.blend'
# www.blender.org
mtllib ryubarigata.mtl
o ryobarigata_Cylinder.001
v -0.555484 0.000000 -0.040556
v -0.555484 -0.028677 -0.028677
v -0.555484 -0.040556 0.000000
v -0.555484 -0.028677 0.028677
v -0.555484 0.000000 0.040556
v -0.555484 0.028678 0.028677
v -0.555484 0.040556 -0.000000
v -0.555484 0.028678 -0.028677
v -1.060553 0.000000 0.000000
v 0.555484 0.000000 -0.040556
v 0.555484 -0.028677 -0.028677
v 0.555484 -0.040556 0.000000
v 0.555484 -0.028677 0.028677
v 0.555484 0.000000 0.040556
v 0.555484 0.028678 0.028677
v 0.555484 0.040556 -0.000000
v 0.555484 0.028678 -0.028677
v 1.060553 0.000000 0.000000
vn -0.0740 -0.3816 0.9213
vn -0.0740 0.9213 -0.3816
vn -0.0740 -0.9213 -0.3816
vn -0.0740 0.3816 0.9213
vn -0.0740 0.3816 -0.9213
vn -0.0740 -0.3816 -0.9213
vn -0.0740 -0.9213 0.3816
vn -0.0740 0.9213 0.3816
vn 0.0000 0.9239 -0.3827
vn 0.0000 0.9239 0.3827
vn 0.0000 0.3827 0.9239
vn 0.0000 -0.3827 0.9239
vn 0.0000 -0.9239 0.3827
vn 0.0000 -0.9239 -0.3827
vn 0.0000 -0.3827 -0.9239
vn 0.0740 -0.3816 0.9213
vn 0.0740 0.9213 -0.3816
vn 0.0740 -0.9213 -0.3816
vn 0.0740 0.3816 0.9213
vn 0.0740 0.3816 -0.9213
vn 0.0740 -0.3816 -0.9213
vn 0.0740 -0.9213 0.3816
vn 0.0740 0.9213 0.3816
vn 0.0000 0.3827 -0.9239
usemtl black.009
s off
f 4//1 5//1 9//1
f 7//2 8//2 9//2
f 2//3 3//3 9//3
f 5//4 6//4 9//4
f 8//5 1//5 9//5
f 1//6 2//6 9//6
f 3//7 4//7 9//7
f 6//8 7//8 9//8
f 16//9 17//9 8//9 7//9
f 15//10 16//10 7//10 6//10
f 14//11 15//11 6//11 5//11
f 13//12 14//12 5//12 4//12
f 12//13 13//13 4//13 3//13
f 11//14 12//14 3//14 2//14
f 10//15 11//15 2//15 1//15
f 13//16 18//16 14//16
f 16//17 18//17 17//17
f 11//18 18//18 12//18
f 14//19 18//19 15//19
f 17//20 18//20 10//20
f 10//21 18//21 11//21
f 12//22 18//22 13//22
f 15//23 18//23 16//23
f 17//24 10//24 1//24 8//24
