# Blender v2.78 (sub 0) OBJ File: 'shaken-sanban.blend'
# www.blender.org
mtllib shaken-sanban.mtl
o sanban_Cube.002
v -0.098245 0.009183 -0.021928
v -0.112390 0.009183 -0.022856
v -0.125105 0.009183 -0.029126
v -0.084821 0.009183 -0.026485
v -0.074162 0.009183 -0.035832
v -0.067233 0.009183 -0.048166
v 0.008335 0.009183 0.082557
v -0.005810 0.009183 0.082722
v -0.019234 0.009183 0.087279
v -0.029893 0.009183 0.096626
v -0.036163 0.009183 0.109340
v -0.037090 0.009183 0.123486
v 0.068001 0.009183 -0.075096
v 0.075877 0.009183 -0.086883
v 0.087664 0.009183 -0.094759
v 0.065236 0.009183 -0.061192
v 0.068001 0.009183 -0.047288
v 0.075197 0.009183 -0.035156
v -0.064467 0.009183 -0.062069
v -0.067233 0.009183 -0.075973
v -0.075108 0.009183 -0.087760
v -0.086895 0.009183 -0.095636
v 0.032417 0.009183 0.096460
v 0.038687 0.009183 0.109175
v 0.039615 0.009183 0.123321
v 0.021759 0.009183 0.087113
v 0.085855 0.009183 -0.025808
v 0.099279 0.009183 -0.021252
v 0.113425 0.009183 -0.022179
v 0.126139 0.009183 -0.028449
v 0.034002 0.009183 0.019646
v 0.039014 0.009183 0.004222
v 0.037319 0.009183 -0.011907
v 0.029210 0.009183 -0.025952
v 0.016090 0.009183 -0.035484
v 0.000226 0.009183 -0.038856
v -0.015637 0.009183 -0.035484
v -0.028757 0.009183 -0.025952
v -0.036866 0.009183 -0.011907
v -0.038561 0.009183 0.004222
v -0.033550 0.009183 0.019646
v -0.022698 0.009183 0.031698
v -0.007882 0.009183 0.038294
v 0.008335 0.009183 0.038294
v 0.023151 0.009183 0.031698
v -0.335888 0.000000 0.194121
v -0.112390 -0.009183 -0.022856
v -0.125105 -0.009183 -0.029126
v -0.074162 -0.009183 -0.035832
v -0.067233 -0.009183 -0.048166
v 0.008335 -0.009183 0.082557
v -0.005810 -0.009183 0.082722
v -0.019234 -0.009183 0.087279
v -0.029893 -0.009183 0.096626
v -0.036163 -0.009183 0.109340
v 0.000296 0.000000 -0.387927
v 0.068001 -0.009183 -0.075096
v 0.087664 -0.009183 -0.094759
v 0.065236 -0.009183 -0.061192
v 0.068001 -0.009183 -0.047288
v -0.075108 -0.009183 -0.087760
v 0.336272 0.000000 0.194241
v 0.038687 -0.009183 0.109175
v 0.085855 -0.009183 -0.025808
v 0.099279 -0.009183 -0.021252
v 0.113425 -0.009183 -0.022179
v 0.126139 -0.009183 -0.028449
v 0.034002 -0.009183 0.019646
v 0.039014 -0.009183 0.004222
v 0.037319 -0.009183 -0.011907
v 0.029210 -0.009183 -0.025952
v 0.016090 -0.009183 -0.035484
v 0.000226 -0.009183 -0.038856
v -0.015637 -0.009183 -0.035484
v -0.028757 -0.009183 -0.025952
v -0.036866 -0.009183 -0.011907
v -0.038561 -0.009183 0.004222
v -0.033550 -0.009183 0.019646
v -0.022698 -0.009183 0.031698
v -0.007882 -0.009183 0.038294
v 0.008335 -0.009183 0.038294
v 0.023151 -0.009183 0.031698
v -0.134452 0.000000 -0.039784
v -0.032533 0.000000 0.136910
v -0.098245 -0.009183 -0.021928
v -0.084821 -0.009183 -0.026485
v -0.037090 -0.009183 0.123486
v 0.101568 0.000000 -0.097524
v -0.100799 0.000000 -0.098402
v 0.075877 -0.009183 -0.086883
v 0.075197 -0.009183 -0.035156
v -0.064467 -0.009183 -0.062069
v -0.067233 -0.009183 -0.075973
v -0.086895 -0.009183 -0.095636
v 0.035058 0.000000 0.136744
v 0.135486 0.000000 -0.039107
v 0.032417 -0.009183 0.096460
v 0.039615 -0.009183 0.123321
v 0.021759 -0.009183 0.087113
vn 0.0000 1.0000 -0.0000
vn -0.0138 0.9995 0.0281
vn 0.1015 0.8368 0.5380
vn -0.1026 0.8369 0.5377
vn 0.4150 0.8368 -0.3571
vn 0.0139 0.9995 0.0281
vn 0.0314 0.9995 -0.0021
vn 0.0359 0.9992 -0.0177
vn 0.0026 0.9992 0.0397
vn -0.0312 0.9995 -0.0020
vn -0.0356 0.9992 -0.0175
vn -0.0026 0.9992 0.0396
vn -0.4148 0.8368 -0.3572
vn -0.0228 0.9997 0.0131
vn 0.0229 0.9997 0.0130
vn 0.0002 0.9997 -0.0263
vn 0.0332 0.9992 -0.0222
vn -0.5168 0.8369 -0.1805
vn -0.0332 0.9992 -0.0222
vn 0.5169 0.8369 -0.1802
vn -0.0174 0.9995 -0.0261
vn 0.0175 0.9995 -0.0262
vn -0.6593 0.0000 0.7518
vn 0.6593 0.0000 0.7518
vn -0.9808 0.0000 0.1951
vn 0.3214 0.0000 -0.9469
vn 0.8969 0.0000 0.4423
vn -0.8315 0.0000 0.5556
vn -0.0654 0.0000 -0.9979
vn 0.9979 0.0000 0.0654
vn -0.5556 0.0000 0.8315
vn -0.4423 0.0000 -0.8969
vn 0.7518 0.0000 -0.6593
vn 0.1951 0.0000 0.9808
vn -0.9469 0.0000 -0.3214
vn 0.9469 0.0000 -0.3214
vn 0.6593 0.0000 -0.7518
vn -0.6593 0.0000 -0.7518
vn -0.9808 0.0000 -0.1951
vn -0.3214 0.0000 0.9469
vn 0.0654 0.0000 -0.9979
vn -0.1951 0.0000 0.9808
vn 0.4423 0.0000 -0.8969
vn 0.9808 0.0000 -0.1951
vn -0.8718 0.0000 -0.4898
vn 0.8315 0.0000 0.5556
vn -0.7518 0.0000 -0.6594
vn -0.3214 0.0000 -0.9469
vn 0.5556 0.0000 0.8315
vn -0.8969 0.0000 0.4423
vn 0.0117 0.0000 0.9999
vn 0.8601 0.0000 -0.5101
vn -0.9979 0.0000 0.0654
vn 0.3214 0.0000 0.9469
vn 0.9808 0.0000 0.1951
vn 0.0000 -1.0000 0.0000
vn -0.0138 -0.9995 0.0281
vn 0.1015 -0.8368 0.5380
vn -0.1026 -0.8369 0.5377
vn 0.4150 -0.8368 -0.3571
vn 0.0139 -0.9995 0.0281
vn 0.0314 -0.9995 -0.0021
vn 0.0359 -0.9992 -0.0177
vn 0.0026 -0.9992 0.0397
vn -0.0312 -0.9995 -0.0020
vn -0.0356 -0.9992 -0.0175
vn -0.0026 -0.9992 0.0396
vn -0.4148 -0.8368 -0.3572
vn -0.0228 -0.9997 0.0131
vn 0.0229 -0.9997 0.0130
vn 0.0002 -0.9997 -0.0263
vn 0.0332 -0.9992 -0.0222
vn -0.5168 -0.8369 -0.1805
vn -0.0332 -0.9992 -0.0222
vn 0.5169 -0.8369 -0.1802
vn -0.0174 -0.9995 -0.0261
vn 0.0175 -0.9995 -0.0262
usemtl black.002
s off
f 5//1 4//1 40//1 39//1
f 8//1 7//1 44//1 43//1
f 6//1 5//1 39//1 38//1
f 18//1 17//1 34//1 33//1
f 37//1 19//1 6//1 38//1
f 17//1 16//1 35//1 34//1
f 32//1 27//1 18//1 33//1
f 45//1 44//1 7//1 26//1
f 9//1 8//1 43//1 42//1
f 10//1 9//1 42//1 41//1
f 23//1 31//1 45//1 26//1
f 31//1 28//1 27//1 32//1
f 16//1 13//1 36//1 35//1
f 20//1 19//1 37//1 36//1
f 4//1 1//1 41//1 40//1
f 3//2 46//2 2//2
f 84//3 12//3 46//3
f 95//4 62//4 25//4
f 96//5 30//5 62//5
f 30//6 29//6 62//6
f 25//7 62//7 24//7
f 24//8 62//8 23//8
f 28//9 62//9 29//9
f 12//10 11//10 46//10
f 10//11 46//11 11//11
f 2//12 46//12 1//12
f 83//13 46//13 3//13
f 1//14 46//14 10//14 41//14
f 28//15 31//15 23//15 62//15
f 36//16 13//16 56//16 20//16
f 20//17 56//17 21//17
f 89//18 22//18 56//18
f 13//19 14//19 56//19
f 88//20 56//20 15//20
f 15//21 56//21 14//21
f 22//22 21//22 56//22
f 26//23 99//23 97//23 23//23
f 10//24 54//24 53//24 9//24
f 19//25 20//25 93//25 92//25
f 27//26 28//26 65//26 64//26
f 11//27 55//27 54//27 10//27
f 20//28 21//28 61//28 93//28
f 28//29 29//29 66//29 65//29
f 12//30 87//30 55//30 11//30
f 21//31 22//31 94//31 61//31
f 29//32 30//32 67//32 66//32
f 3//33 48//33 83//33
f 15//34 58//34 88//34
f 25//35 98//35 95//35
f 84//36 87//36 12//36
f 18//37 27//37 64//37 91//37
f 4//38 5//38 49//38 86//38
f 6//39 19//39 92//39 50//39
f 7//40 51//40 99//40 26//40
f 1//41 85//41 47//41 2//41
f 89//42 94//42 22//42
f 2//43 47//43 48//43 3//43
f 16//44 17//44 60//44 59//44
f 5//45 6//45 50//45 49//45
f 14//46 13//46 57//46 90//46
f 30//47 96//47 67//47
f 1//48 4//48 86//48 85//48
f 15//49 14//49 90//49 58//49
f 23//50 97//50 63//50 24//50
f 8//51 52//51 51//51 7//51
f 17//52 18//52 91//52 60//52
f 24//53 63//53 98//53 25//53
f 9//54 53//54 52//54 8//54
f 13//55 16//55 59//55 57//55
f 49//56 76//56 77//56 86//56
f 52//56 80//56 81//56 51//56
f 50//56 75//56 76//56 49//56
f 91//56 70//56 71//56 60//56
f 74//56 75//56 50//56 92//56
f 60//56 71//56 72//56 59//56
f 69//56 70//56 91//56 64//56
f 82//56 99//56 51//56 81//56
f 53//56 79//56 80//56 52//56
f 54//56 78//56 79//56 53//56
f 97//56 99//56 82//56 68//56
f 68//56 69//56 64//56 65//56
f 59//56 72//56 73//56 57//56
f 93//56 73//56 74//56 92//56
f 86//56 77//56 78//56 85//56
f 48//57 47//57 46//57
f 84//58 46//58 87//58
f 95//59 98//59 62//59
f 96//60 62//60 67//60
f 67//61 62//61 66//61
f 98//62 63//62 62//62
f 63//63 97//63 62//63
f 65//64 66//64 62//64
f 87//65 46//65 55//65
f 54//66 55//66 46//66
f 47//67 85//67 46//67
f 83//68 48//68 46//68
f 85//69 78//69 54//69 46//69
f 65//70 62//70 97//70 68//70
f 73//71 93//71 56//71 57//71
f 93//72 61//72 56//72
f 89//73 56//73 94//73
f 57//74 56//74 90//74
f 88//75 58//75 56//75
f 58//76 90//76 56//76
f 94//77 56//77 61//77
