# Blender v2.78 (sub 0) OBJ File: 'shaken-juji.blend'
# www.blender.org
mtllib shaken-juji.mtl
o juji_Plane
v -0.002892 0.003089 -0.087623
v -0.002892 0.006804 -0.082980
v 0.080087 0.006804 0.000000
v 0.084731 0.003089 0.000000
v -0.002892 0.006804 0.082980
v -0.002892 0.003089 0.087623
v -0.090516 0.003089 0.000000
v -0.085872 0.006804 0.000000
v 0.227268 -0.000038 -0.226783
v 0.216601 -0.000269 -0.216601
v 0.226783 0.000038 -0.227268
v 0.216601 0.000269 -0.216601
v -0.227268 0.000038 -0.226783
v -0.216601 0.000269 -0.216601
v -0.226783 -0.000038 -0.227268
v -0.216601 -0.000269 -0.216601
v -0.002892 -0.006804 -0.082980
v -0.002892 -0.003089 -0.087623
v 0.227268 0.000038 0.226783
v 0.216601 0.000269 0.216601
v 0.226783 -0.000038 0.227268
v 0.216601 -0.000269 0.216601
v 0.084731 -0.003089 0.000000
v 0.080087 -0.006804 0.000000
v -0.227268 -0.000038 0.226783
v -0.216601 -0.000269 0.216601
v -0.226783 0.000038 0.227268
v -0.216601 0.000269 0.216601
v -0.002892 -0.003089 0.087623
v -0.002892 -0.006804 0.082980
v -0.085872 -0.006804 0.000000
v -0.090516 -0.003089 0.000000
vn -0.5195 0.0000 -0.8545
vn 0.0185 0.9997 0.0185
vn 0.8467 0.0000 0.5321
vn 0.5292 0.0000 -0.8485
vn -0.0188 0.9996 0.0188
vn 0.0185 -0.9997 -0.0185
vn 0.8467 0.0000 -0.5321
vn -0.5195 0.0000 0.8545
vn 0.0185 -0.9997 0.0185
vn 0.5292 0.0000 0.8485
vn -0.8564 0.0000 0.5164
vn -0.8564 0.0000 -0.5164
vn 0.0000 1.0000 0.0000
vn -0.0188 -0.9996 -0.0188
vn 0.0000 -1.0000 0.0000
vn -0.0188 -0.9996 0.0188
vn -0.0188 0.9996 -0.0188
vn 0.7072 0.0000 -0.7070
vn -0.7070 0.0013 -0.7072
vn 0.7070 0.0000 0.7072
vn -0.7072 0.0000 0.7070
vn 0.3828 0.8969 0.2214
vn -0.2061 0.9057 -0.3705
vn -0.3687 0.9071 0.2028
vn 0.2181 0.8984 -0.3811
vn 0.3769 0.9003 -0.2177
vn -0.2096 0.9024 0.3765
vn -0.3747 0.9039 -0.2063
vn 0.2145 0.9018 0.3751
vn 0.3769 -0.9003 0.2177
vn -0.2096 -0.9024 -0.3765
vn -0.3747 -0.9039 0.2063
vn 0.2145 -0.9018 -0.3751
vn 0.3828 -0.8969 -0.2214
vn -0.2061 -0.9057 0.3705
vn -0.3687 -0.9071 -0.2028
vn 0.2181 -0.8984 0.3811
vn 0.0185 0.9997 -0.0185
usemtl black.004
s off
f 11//1 18//1 1//1
f 3//2 5//2 20//2
f 4//3 23//3 9//3
f 1//4 18//4 15//4
f 8//5 28//5 5//5
f 24//6 17//6 10//6
f 19//7 23//7 4//7
f 6//8 29//8 21//8
f 24//9 22//9 30//9
f 27//10 29//10 6//10
f 13//11 32//11 7//11
f 7//12 32//12 25//12
f 3//13 2//13 8//13 5//13
f 31//14 16//14 17//14
f 24//15 30//15 31//15 17//15
f 31//16 30//16 26//16
f 8//17 2//17 14//17
f 9//18 10//18 11//18 12//18
f 13//19 14//19 15//19 16//19
f 19//20 20//20 21//20 22//20
f 25//21 26//21 27//21 28//21
f 12//22 3//22 4//22 9//22
f 11//23 1//23 2//23 12//23
f 13//24 7//24 8//24 14//24
f 14//25 2//25 1//25 15//25
f 19//26 4//26 3//26 20//26
f 20//27 5//27 6//27 21//27
f 28//28 8//28 7//28 25//28
f 27//29 6//29 5//29 28//29
f 9//30 23//30 24//30 10//30
f 10//31 17//31 18//31 11//31
f 16//32 31//32 32//32 13//32
f 15//33 18//33 17//33 16//33
f 22//34 24//34 23//34 19//34
f 21//35 29//35 30//35 22//35
f 25//36 32//36 31//36 26//36
f 26//37 30//37 29//37 27//37
f 3//38 12//38 2//38
